<?xml version="1.0" encoding="utf-8"?>
<!-- Generator: Adobe Illustrator 19.0.0, SVG Export Plug-In . SVG Version: 6.00 Build 0)  -->
<svg version="1.1" id="Layer_1" xmlns="http://www.w3.org/2000/svg" xmlns:xlink="http://www.w3.org/1999/xlink" x="0px" y="0px"
	 viewBox="0 0 96 96" style="enable-background:new 0 0 96 96;" xml:space="preserve">
<style type="text/css">
	.st0{fill:#333333;}
</style>
<g id="XMLID_1_">
	<path id="XMLID_7_" class="st0" d="M48,20.5c-15.2,0-27.5,12.3-27.5,27.5c0,15.2,12.3,27.5,27.5,27.5c15.2,0,27.5-12.3,27.5-27.5
		S63.2,20.5,48,20.5z M57.4,33.2l0.2,0.1l1.9,1.9c0.1,0.1,0.1,0.3,0,0.4L48.3,46.9l-0.2,0.1l-0.2-0.1l-5.6-5.6L42.2,41l0.1-0.2
		l1.9-1.9c0.1-0.1,0.3-0.1,0.4,0l3.5,3.5l9.1-9.1L57.4,33.2z M32.2,58.1V43.4c0-0.2,0-0.5,0.1-0.7l0,0c0.2-0.5,0.5-0.9,0.9-1.2
		l13.4-9.7c0.8-0.6,1.9-0.6,2.8,0l4.9,3.5l-0.9,0.9l-4.7-3.4c-0.4-0.3-0.9-0.3-1.3,0L34,42.5l-0.1,0.1L47.7,51l-14.6,8.9
		C32.6,59.5,32.2,58.8,32.2,58.1z M63.8,58.1c0,1.3-1.1,2.4-2.4,2.4H34.6c-0.3,0-0.7-0.1-0.9-0.2L62.1,43c0.1-0.1,0.2-0.2,0.1-0.4
		l0,0L62,42.5l-0.1,0l-4.8-3.5l0.9-0.9l4.7,3.4c0.4,0.3,0.7,0.7,0.9,1.2l0,0c0.1,0.3,0.1,0.5,0.1,0.7L63.8,58.1L63.8,58.1z"/>
</g>
</svg>
