<?xml version="1.0" encoding="utf-8"?>
<!-- Generator: Adobe Illustrator 21.0.0, SVG Export Plug-In . SVG Version: 6.00 Build 0)  -->
<svg version="1.1" xmlns="http://www.w3.org/2000/svg" xmlns:xlink="http://www.w3.org/1999/xlink" x="0px" y="0px"
	 viewBox="0 0 55 55" style="enable-background:new 0 0 55 55;" xml:space="preserve">
<style type="text/css">
	.st0{fill:#000}
</style>
<g id="Layer_2">
	<rect y="0" width="55" height="55" fill="#fff"/>
</g>
<g id="Layer_1">
	<path class="st0" d="M27.5,0C27.5,0,27.5,0,27.5,0 M36.9,12.7l0.2,0.1l1.9,1.9c0.1,0.1,0.1,0.3,0,0.4L27.8,26.4l-0.2,0.1l-0.2-0.1
		l-5.6-5.6l-0.1-0.3l0.1-0.2l1.9-1.9c0.1-0.1,0.3-0.1,0.4,0l3.5,3.5l9.1-9.1L36.9,12.7z M11.7,37.6V22.9c0-0.2,0-0.5,0.1-0.7l0,0
		c0.2-0.5,0.5-0.9,0.9-1.2l13.4-9.7c0.8-0.6,2-0.6,2.8,0l4.9,3.5l-0.9,0.9l-4.7-3.4c-0.4-0.3-0.9-0.3-1.3,0L13.5,22l-0.1,0.1
		l13.8,8.4l-14.6,8.9C12.1,39,11.7,38.3,11.7,37.6z M43.3,37.6c0,1.3-1.1,2.4-2.4,2.4H14.1c-0.3,0-0.6-0.1-0.9-0.2l28.4-17.3
		c0.1-0.1,0.2-0.2,0.1-0.4l0,0L41.5,22h-0.1l-4.8-3.5l0.9-0.9l4.7,3.4c0.4,0.3,0.7,0.7,0.9,1.2l0,0c0.1,0.2,0.1,0.5,0.1,0.7
		C43.2,22.9,43.3,37.6,43.3,37.6z"/>
</g>
</svg>
