<svg xmlns="http://www.w3.org/2000/svg" viewBox="0 0 55 55">
  <title>phone-1</title>
  <rect width="55" height="55" fill="#fff"/>
  <path d="M46.7,38.8l-.19-.58a5.45,5.45,0,0,0-3.33-3.15l-5.09-1.39a5,5,0,0,0-4.36,1.14l-1.84,1.84A19.55,19.55,0,0,1,18.13,22.91L20,21.07a5,5,0,0,0,1.14-4.36l-1.39-5.09a5.44,5.44,0,0,0-3.15-3.33L16,8.09a4.62,4.62,0,0,0-4.31,1L8.93,11.86a5.14,5.14,0,0,0-.81,1.9A32.54,32.54,0,0,0,41,46.67a5.12,5.12,0,0,0,2-.8l2.76-2.76A4.62,4.62,0,0,0,46.7,38.8Z" transform="translate(0 0)"/>
</svg>
