<svg xmlns="http://www.w3.org/2000/svg" viewBox="0 0 202.87 29.94">
    <path d="M3,3.65a16.4,16.4,0,0,1,5.24.53,9.47,9.47,0,0,1,3.69,1.94A8,8,0,0,1,14.1,9.25a11.17,11.17,0,0,1,.72,4.1A10.92,10.92,0,0,1,13.87,18,7.89,7.89,0,0,1,11,21.33L15.82,32H12.13l-4-9.44a12.79,12.79,0,0,1-1.86.37V32H3Zm3.27,16a6.58,6.58,0,0,0,2.07-.53A4.67,4.67,0,0,0,10,17.88,5.63,5.63,0,0,0,11,16a8.06,8.06,0,0,0,.39-2.62A8.06,8.06,0,0,0,11,10.73,5.63,5.63,0,0,0,10,8.82a4.67,4.67,0,0,0-1.63-1.2,6.58,6.58,0,0,0-2.07-.53Z"
          transform="translate(-2.99 -2.93)"/>
    <path d="M19.51,4h9.42V7.09H22.78V17.85h5.27v3.09H22.78v8h6.15V32H19.51Z"
          transform="translate(-2.99 -2.93)"/>
    <path d="M42.12,18.85h3.27V32.32a12.16,12.16,0,0,1-4.95-.8,10.88,10.88,0,0,1-4.07-2.78A13.55,13.55,0,0,1,33.61,24a19.31,19.31,0,0,1-1-6.56,19.94,19.94,0,0,1,.79-5.87A14,14,0,0,1,35.5,7.28,9.19,9.19,0,0,1,38.57,4.6a7.72,7.72,0,0,1,3.64-.91,7.55,7.55,0,0,1,1.63.18,10.27,10.27,0,0,1,1.7.54L44.05,7.23A4,4,0,0,0,43.18,7a6.11,6.11,0,0,0-.91-.08A4.35,4.35,0,0,0,40,7.62a6.55,6.55,0,0,0-2,2A11.64,11.64,0,0,0,36.54,13,17,17,0,0,0,36,17.52a17.4,17.4,0,0,0,.46,4.16,12.09,12.09,0,0,0,1.27,3.23,8.11,8.11,0,0,0,1.93,2.28,7.05,7.05,0,0,0,2.48,1.28Z"
          transform="translate(-2.99 -2.93)"/>
    <path d="M50.63,4h3.27V32H50.63Z" transform="translate(-2.99 -2.93)"/>
    <path d="M59.87,2.93,68.68,17.6,70.61,21l-.09-3.36V4h3.25V32.6L65,18,63,15,63.14,18V32H59.87Z"
          transform="translate(-2.99 -2.93)"/>
    <path d="M85.36,3.14,93.5,32H90l-1.23-4.66h-6.8L80.74,32H77.22Zm2.58,21.11L86.06,17l-.72-3.34L84.66,17l-1.9,7.22Z"
          transform="translate(-2.99 -2.93)"/>
    <path d="M111.27,18.85h3.27V32.32a12.16,12.16,0,0,1-4.95-.8,10.88,10.88,0,0,1-4.07-2.78,13.55,13.55,0,0,1-2.76-4.7,19.31,19.31,0,0,1-1-6.56,19.94,19.94,0,0,1,.79-5.87,14,14,0,0,1,2.12-4.33,9.19,9.19,0,0,1,3.07-2.68,7.72,7.72,0,0,1,3.64-.91,7.55,7.55,0,0,1,1.63.18,10.27,10.27,0,0,1,1.7.54L113.2,7.23a4,4,0,0,0-.87-.22,6.11,6.11,0,0,0-.91-.08,4.35,4.35,0,0,0-2.29.69,6.55,6.55,0,0,0-2,2A11.64,11.64,0,0,0,105.69,13a17,17,0,0,0-.55,4.56,17.4,17.4,0,0,0,.46,4.16,12.09,12.09,0,0,0,1.27,3.23,8.11,8.11,0,0,0,1.93,2.28,7.05,7.05,0,0,0,2.48,1.28Z"
          transform="translate(-2.99 -2.93)"/>
    <path d="M125.4,3.14,133.54,32H130l-1.23-4.66H122L120.78,32h-3.52ZM128,24.25,126.11,17l-.72-3.34L124.7,17l-1.9,7.22Z"
          transform="translate(-2.99 -2.93)"/>
    <path d="M137,4h3.27V28.94h7.22V32H137Z" transform="translate(-2.99 -2.93)"/>
    <path d="M151,4h3.27V32H151Z" transform="translate(-2.99 -2.93)"/>
    <path d="M160.28,4h9.42V7.09h-6.15V17.85h5.27v3.09h-5.27v8h6.15V32h-9.42Z"
          transform="translate(-2.99 -2.93)"/>
    <path d="M172.34,4h3.52l3.87,15,.74,3.36.77-3.36L185.1,4h3.52l-8.14,28.86Z"
          transform="translate(-2.99 -2.93)"/>
    <path d="M197.72,3.14,205.86,32h-3.52l-1.23-4.66h-6.8L193.1,32h-3.52Zm2.58,21.11L198.42,17l-.72-3.34L197,17l-1.9,7.22Z"
          transform="translate(-2.99 -2.93)"/>
</svg>