<svg xmlns="http://www.w3.org/2000/svg" viewBox="0 0 55 55">
    <path style="fill: #fff" d="M27.5,0A27.5,27.5,0,1,0,55,27.5,27.48,27.48,0,0,0,27.5,0Zm9.4,12.7.2.1L39,14.7a.3.3,0,0,1,0,.4L27.8,26.4l-.2.1-.2-.1-5.6-5.6-.1-.3.1-.2,1.9-1.9a.3.3,0,0,1,.4,0l3.5,3.5,9.1-9.1ZM11.7,37.6V22.9a1.7,1.7,0,0,1,.1-.7h0a2.73,2.73,0,0,1,.9-1.2l13.4-9.7a2.4,2.4,0,0,1,2.8,0l4.9,3.5-.9.9-4.7-3.4a1.05,1.05,0,0,0-1.3,0L13.5,22l-.1.1,13.8,8.4L12.6,39.4A2.43,2.43,0,0,1,11.7,37.6Zm31.6,0A2.43,2.43,0,0,1,40.9,40H14.1a2.39,2.39,0,0,1-.9-.2L41.6,22.5c.1-.1.2-.2.1-.4h0l-.2-.1h-.1l-4.8-3.5.9-.9L42.2,21a2.73,2.73,0,0,1,.9,1.2h0a2,2,0,0,1,.1.7l.1,14.7Z"/>
</svg>