<svg xmlns="http://www.w3.org/2000/svg" viewBox="0 0 261.4 192.65">
    <defs>
        <style>.cls-1{fill:none;}</style>
    </defs>
    <path class="cls-1" d="M150.34,78.26l-.68-2.49v37.18l.68,1.42Z" transform="translate(-18.21)"/>
    <path class="cls-1" d="M150.34,116.15l-.68-1.33v4.24l.68.35Z" transform="translate(-18.21)"/>
    <path class="cls-1" d="M148.3,70.71l-.67-2.54v40.36l.67,1.49Z" transform="translate(-18.21)"/>
    <path class="cls-1" d="M151.36,118.08l-.69-1.29v2.8l.69.36Z" transform="translate(-18.21)"/>
    <path class="cls-1" d="M149.32,74.52,148.65,72v38.78l.68,1.46Z" transform="translate(-18.21)"/>
    <path class="cls-1" d="M149.32,114.14l-.68-1.37v5.78l.68.34Z" transform="translate(-18.21)"/>
    <path class="cls-1" d="M152.38,85.49l-.69-2.42v34l.69,1.34Z" transform="translate(-18.21)"/>
    <path class="cls-1" d="M153.4,89l-.7-2.37V119l.7,1.28Z" transform="translate(-18.21)"/>
    <path class="cls-1" d="M154.42,121.58V92.33L153.72,90v30.83l.29.52Z" transform="translate(-18.21)"/>
    <path class="cls-1" d="M155.44,95.62l-.71-2.29v28.43l.71.4Z" transform="translate(-18.21)"/>
    <path class="cls-1" d="M148.3,112.05l-.67-1.41V118l.67.34Z" transform="translate(-18.21)"/>
    <path class="cls-1" d="M152.38,119.91l-.69-1.24v1.45l.69.37Z" transform="translate(-18.21)"/>
    <path class="cls-1" d="M152.7,120.47v.18l.15.08Z" transform="translate(-18.21)"/>
    <path class="cls-1" d="M151.36,81.92l-.69-2.46v35.59l.69,1.38Z" transform="translate(-18.21)"/>
    <path class="cls-1" d="M141.16,42.6,140.54,40v51l.63,1.65Z" transform="translate(-18.21)"/>
    <path class="cls-1" d="M142.18,46.75l-.63-2.57V93.73l.63,1.63Z" transform="translate(-18.21)"/>
    <path class="cls-1" d="M143.2,100.54,142.56,99v16.59l.64.31Z" transform="translate(-18.21)"/>
    <path class="cls-1" d="M143.2,50.85l-.64-2.57V96.34L143.2,98Z" transform="translate(-18.21)"/>
    <path class="cls-1" d="M142.18,98l-.63-1.58v18.63l.63.3Z" transform="translate(-18.21)"/>
    <path class="cls-1" d="M141.16,95.46l-.63-1.6V114.6l.63.3Z" transform="translate(-18.21)"/>
    <path class="cls-1" d="M156.47,98.83l-.72-2.25v25.75l.72.4Z" transform="translate(-18.21)"/>
    <path class="cls-1" d="M146.26,62.91l-.66-2.55v43.49l.66,1.55Z" transform="translate(-18.21)"/>
    <path class="cls-1" d="M147.28,66.84l-.66-2.55v41.93l.66,1.53Z" transform="translate(-18.21)"/>
    <path class="cls-1" d="M144.22,103l-.65-1.54v14.61l.65.31Z" transform="translate(-18.21)"/>
    <path class="cls-1" d="M146.26,107.66l-.66-1.48V117l.66.32Z" transform="translate(-18.21)"/>
    <path class="cls-1" d="M147.28,109.89l-.66-1.45v9.08l.66.33Z" transform="translate(-18.21)"/>
    <path class="cls-1" d="M144.22,54.91l-.65-2.57V98.9l.65,1.59Z" transform="translate(-18.21)"/>
    <path class="cls-1" d="M145.24,58.94l-.65-2.56v45l.65,1.57Z" transform="translate(-18.21)"/>
    <path class="cls-1" d="M145.24,105.36l-.65-1.51v12.69l.65.32Z" transform="translate(-18.21)"/>
    <path class="cls-1" d="M172.79,124.05c-.27.59-.54,1.16-.82,1.71v5.94a6,6,0,0,0,.82.58Z"
          transform="translate(-18.21)"/>
    <path class="cls-1" d="M173.81,133.27A4,4,0,0,1,173,133v.3l.82.58Z" transform="translate(-18.21)"/>
    <path class="cls-1" d="M172.79,132.86a6.17,6.17,0,0,1-.82-.53v.22l.82.58Z" transform="translate(-18.21)"/>
    <path class="cls-1" d="M170.75,128c-.27.44-.53.86-.8,1.26v.18c.27.37.54.71.8,1Z"
          transform="translate(-18.21)"/>
    <path class="cls-1" d="M173.81,121.7c-.27.65-.54,1.29-.82,1.92v8.78a3.75,3.75,0,0,0,.82.33Z"
          transform="translate(-18.21)"/>
    <path class="cls-1" d="M171.77,132.16a10.16,10.16,0,0,1-.81-.75v.42l.81.56Z" transform="translate(-18.21)"/>
    <path class="cls-1"
          d="M175.85,132.47V116.24l.18-.43v16.54a5.09,5.09,0,0,0,.84-.75V113.69l.17-.45v18.18a11.2,11.2,0,0,0,.85-1.13V110.88l.17-.49V130l.13-.2V108.42c-.71,2.6-1.8,6.34-3.17,10.13v14.22l.21,0A2.5,2.5,0,0,0,175.85,132.47Z"
          transform="translate(-18.21)"/>
    <path class="cls-1" d="M174.83,133.36a3,3,0,0,1-.83,0V134l.83.61Z" transform="translate(-18.21)"/>
    <path class="cls-1" d="M176,135.47l.84.64v-3.76a4.58,4.58,0,0,1-.84.64Z" transform="translate(-18.21)"/>
    <path class="cls-1" d="M177,136.24l.85.64v-5.71a9.26,9.26,0,0,1-.85,1Z" transform="translate(-18.21)"/>
    <path class="cls-1" d="M178.05,137l.13.1v-6.34l-.13.18Z" transform="translate(-18.21)"/>
    <path class="cls-1" d="M174.83,132.8V119.06c-.27.72-.54,1.44-.83,2.15v11.56A2.76,2.76,0,0,0,174.83,132.8Z"
          transform="translate(-18.21)"/>
    <path class="cls-1" d="M175.85,133.08a2.66,2.66,0,0,1-.49.19,2.93,2.93,0,0,1-.35.05v1.4l.84.61Z"
          transform="translate(-18.21)"/>
    <path class="cls-1" d="M170.75,131.19q-.4-.43-.8-.94v.89l.8.55Z" transform="translate(-18.21)"/>
    <path class="cls-1" d="M163.61,118.55l-.76-1.83v9.79l.76.48Z" transform="translate(-18.21)"/>
    <path class="cls-1" d="M161.57,113.48c-.25-.65-.5-1.31-.75-2v13.77l.75.45Z" transform="translate(-18.21)"/>
    <path class="cls-1" d="M169.73,131v-1l-.15-.19c-.19.25-.37.48-.56.71Z" transform="translate(-18.21)"/>
    <path class="cls-1" d="M160.55,110.76c-.25-.67-.49-1.36-.74-2.05v16l.74.44Z" transform="translate(-18.21)"/>
    <path class="cls-1" d="M157.48,102l-.72-2.21V122.9l.72.41Z" transform="translate(-18.21)"/>
    <path class="cls-1" d="M159.53,107.93l-.74-2.12v18.25l.74.44Z" transform="translate(-18.21)"/>
    <path class="cls-1" d="M158.5,105l-.73-2.17v20.64l.73.43Z" transform="translate(-18.21)"/>
    <path class="cls-1" d="M162.59,116.08c-.25-.62-.5-1.26-.76-1.92v11.71l.76.47Z"
          transform="translate(-18.21)"/>
    <path class="cls-1" d="M164.63,120.88c-.25-.56-.51-1.14-.77-1.74v8l.77.48Z" transform="translate(-18.21)"/>
    <path class="cls-1" d="M168.71,130v-1.4c-.26-.4-.52-.81-.79-1.26v2.47l.62.41Z"
          transform="translate(-18.21)"/>
    <path class="cls-1" d="M168.93,128.88v.78c.09-.12.19-.24.28-.37Z" transform="translate(-18.21)"/>
    <path class="cls-1" d="M167.69,126.91q-.39-.67-.79-1.4v3.59l.79.52Z" transform="translate(-18.21)"/>
    <path class="cls-1" d="M165.65,123.05c-.25-.53-.51-1.07-.77-1.63v6.36l.77.5Z"
          transform="translate(-18.21)"/>
    <path class="cls-1" d="M166.67,125.07c-.26-.49-.52-1-.78-1.53v4.89l.78.51Z" transform="translate(-18.21)"/>
    <path class="cls-1" d="M171.77,126.16c-.26.51-.54,1-.81,1.47v3.06a10.52,10.52,0,0,0,.81.83Z"
          transform="translate(-18.21)"/>
    <path class="cls-1" d="M118.74,27.48H119l-.07-.25Z" transform="translate(-18.21)"/>
    <path class="cls-1" d="M119.66,26.16v0Z" transform="translate(-18.21)"/>
    <path class="cls-1" d="M121.66,23.25c-.5.74-1,1.5-1.56,2.27v1.92l1.56,0Z" transform="translate(-18.21)"/>
    <polygon class="cls-1" points="99.9 79.23 101.45 79.19 101.45 58.94 99.9 59.02 99.9 79.23"/>
    <path class="cls-1" d="M120.1,50.34l1.56-.08V36.44l-.56-1.88-1,0Z" transform="translate(-18.21)"/>
    <polygon class="cls-1" points="99.9 50.44 101.45 50.36 101.45 34.61 99.9 34.66 99.9 50.44"/>
    <path class="cls-1" d="M118.11,104.14l1.55.72V87.77l-1.55,0Z" transform="translate(-18.21)"/>
    <path class="cls-1" d="M140.14,90V38.42l-.62-2.56V88.36l.1.28Z" transform="translate(-18.21)"/>
    <polygon class="cls-1"
             points="97.91 49.7 98.85 50.49 99.45 50.46 99.45 34.68 98.08 34.73 97.91 34.94 97.91 49.7"/>
    <path class="cls-1" d="M117.66,26.42V22.95c-.56-1.9-1.08-3.68-1.54-5.29v9.86l0,0,.75,0Z"
          transform="translate(-18.21)"/>
    <path class="cls-1" d="M118.31,130.21l5-5.85-2.38-2.5-4-1.24.16,9.59Z" transform="translate(-18.21)"/>
    <path class="cls-1" d="M125.66,17.22l-1.58,2.42v7.71l1.58,0Z" transform="translate(-18.21)"/>
    <path class="cls-1" d="M125.66,34.4l-1.58.05V41q.78,2.56,1.58,5.19Z" transform="translate(-18.21)"/>
    <path class="cls-1" d="M117.66,103.93V87.82h-.14l-1.09,1,.24,14.64Z" transform="translate(-18.21)"/>
    <polygon class="cls-1"
             points="97.91 69.58 98.05 78.46 98.85 79.25 99.45 79.24 99.45 59.04 99.15 59.06 97.91 60.41 97.91 69.58"/>
    <path class="cls-1" d="M115.66,27.11v-11l-.43-1.5.2,12.32Z" transform="translate(-18.21)"/>
    <polygon class="cls-1" points="97.45 35.48 97.36 35.6 97.45 41.28 97.45 35.48"/>
    <polygon class="cls-1"
             points="99.5 136.1 98.99 136.12 99.17 147.35 100.49 147.35 102.67 144.79 102.67 139.42 99.5 136.1"/>
    <polygon class="cls-1" points="101.55 149.18 102.67 149.18 102.67 147.86 101.55 149.18"/>
    <polygon class="cls-1"
             points="104.86 131.89 111.55 131.89 111.55 131.13 106.47 125.8 101.28 131.89 104.32 131.89 104.58 129.47 104.86 131.89"/>
    <polygon class="cls-1"
             points="104.11 133.88 100.99 133.88 100.99 134.77 102.85 136.73 103.81 136.73 104.11 133.88"/>
    <polygon class="cls-1"
             points="106.31 136.73 106.31 140.35 106.38 140.43 111.55 134.35 111.55 133.88 105.08 133.88 105.41 136.73 106.31 136.73"/>
    <path class="cls-1" d="M120.1,105.06l1.56.72V87.72l-1.56,0Z" transform="translate(-18.21)"/>
    <path class="cls-1" d="M123.66,87.67l-1.57,0V106l1.57.73Z" transform="translate(-18.21)"/>
    <path class="cls-1" d="M123.66,20.28l-1.57,2.34V27.4l1.57,0Z" transform="translate(-18.21)"/>
    <polygon class="cls-1" points="101.89 79.18 103.45 79.15 103.45 58.83 101.89 58.91 101.89 79.18"/>
    <polygon class="cls-1" points="105.45 58.73 103.88 58.81 103.88 79.14 105.45 79.1 105.45 58.73"/>
    <path class="cls-1" d="M123.66,43.06l-1.57-5.19V50.24l1.57-.07Z" transform="translate(-18.21)"/>
    <path class="cls-1" d="M123.66,34.47l-1.54.05,1.54,5.1Z" transform="translate(-18.21)"/>
    <path class="cls-1" d="M118.11,25.79l.27-.38-.27-.92Z" transform="translate(-18.21)"/>
    <polygon class="cls-1"
             points="107.76 141.88 112.83 147.19 114.07 147.19 113.96 136.08 112.65 136.13 107.76 141.88"/>
    <path class="cls-1" d="M137.08,113V84.55l-.6-1.71V98.4l.35,14.44Z" transform="translate(-18.21)"/>
    <path class="cls-1" d="M136.06,78.61V21.38c-.63-2.65-1.18-5-1.63-6.94l1.56,64Z"
          transform="translate(-18.21)"/>
    <polygon class="cls-1" points="112.77 14.38 111.84 13.36 111.84 26.67 112.88 25.71 112.77 14.38"/>
    <path class="cls-1" d="M131.6,77.77l-.1-9.67c-.48-1.49-1-3-1.46-4.51V78.95h0Z"
          transform="translate(-18.21)"/>
    <polygon class="cls-1" points="112.98 35.54 111.84 34.71 111.84 49.58 113.1 48.32 112.98 35.54"/>
    <path class="cls-1" d="M131.43,60.6,130,59.3v1c.47,1.49.95,3,1.42,4.46Z" transform="translate(-18.21)"/>
    <path class="cls-1" d="M137.08,25.69l-.6-2.54V79.82l.6,1.74Z" transform="translate(-18.21)"/>
    <path class="cls-1" d="M139.12,34.21l-.62-2.56V85.57l.62,1.69Z" transform="translate(-18.21)"/>
    <path class="cls-1" d="M139.12,90.14,138.69,89l-.18-.49v25.15l.62.29Z" transform="translate(-18.21)"/>
    <path class="cls-1" d="M131.71,88.72,130,87.77v21.9l1.87.87Z" transform="translate(-18.21)"/>
    <path class="cls-1" d="M140.14,92.83l-.62-1.63v22.91l.62.29Z" transform="translate(-18.21)"/>
    <path class="cls-1" d="M138.1,30l-.61-2.55V82.73l.61,1.72Z" transform="translate(-18.21)"/>
    <path class="cls-1" d="M138.1,87.39l-.61-1.68v27.45l.61.29Z" transform="translate(-18.21)"/>
    <path class="cls-1" d="M126.07,107.82l1.59.74v-21l-1.59,0Z" transform="translate(-18.21)"/>
    <path class="cls-1" d="M126.07,27.31l1.59,0V14.09l-1.59,2.5Z" transform="translate(-18.21)"/>
    <path class="cls-1"
          d="M126.82,12.63l-10.37-.25-.57.85c.82,2.87,1.93,6.67,3.23,11.11C122.24,19.81,124.86,15.76,126.82,12.63Z"
          transform="translate(-18.21)"/>
    <path class="cls-1" d="M129.66,62.36l-1.23-3.87-.37,0V79l1.6,0Z" transform="translate(-18.21)"/>
    <path class="cls-1" d="M129.66,87.55l-.05,0-1.54,0v21.19l1.6.74Z" transform="translate(-18.21)"/>
    <polygon class="cls-1" points="107.45 58.63 105.87 58.71 105.87 79.09 107.45 79.05 107.45 58.63"/>
    <path class="cls-1" d="M126,124.28l5.29,5.54.85,0,0-4.34-5.55-1.8Z" transform="translate(-18.21)"/>
    <path class="cls-1" d="M124.08,106.9l1.58.73v-20l-1.58,0Z" transform="translate(-18.21)"/>
    <path class="cls-1" d="M127.66,34.33l-1.59.06V47.54l.76,2.47.83,0Z" transform="translate(-18.21)"/>
    <polygon class="cls-1" points="107.86 79.04 109.45 79 109.45 58.52 107.86 58.6 107.86 79.04"/>
    <path class="cls-1" d="M125.66,49.6q-.8-2.6-1.58-5.15v5.7l1.58-.08Z" transform="translate(-18.21)"/>
    <polygon class="cls-1"
             points="111.45 34.42 111.24 34.27 109.85 34.32 109.85 49.96 111.45 49.88 111.45 34.42"/>
    <path class="cls-1" d="M129.66,27V12.92l-.21-.23-.91,0-.48.77V27.26l1.39,0Z" transform="translate(-18.21)"/>
    <path class="cls-1" d="M129.66,59.07v-.14l-.06-.06Z" transform="translate(-18.21)"/>
    <path class="cls-1" d="M181,139.33l.47.38v-5.19H181Z" transform="translate(-18.21)"/>
    <path class="cls-1" d="M185.16,151l-2.34-1.64-1.53,1.8h3.87Z" transform="translate(-18.21)"/>
    <path class="cls-1" d="M182,123.61h-.27c.09.65.18,1.32.27,2Z" transform="translate(-18.21)"/>
    <path class="cls-1" d="M181.49,124.47c0-.15,0-.31-.06-.46-.13.35-.27.69-.41,1v6.25h.47Z"
          transform="translate(-18.21)"/>
    <path class="cls-1" d="M180.47,120.46l.49,0c-.18-1.41-.34-2.77-.49-4.06Z" transform="translate(-18.21)"/>
    <polygon class="cls-1" points="111.98 149.18 106.47 143.4 106.31 143.59 106.31 149.18 111.98 149.18"/>
    <path class="cls-1" d="M180.47,138.89l.47.38v-4.74h-.4l-.07.07Z" transform="translate(-18.21)"/>
    <path class="cls-1" d="M180.47,125.16c.2-.49.4-1,.59-1.49l-.58,0,0,0Z" transform="translate(-18.21)"/>
    <path class="cls-1" d="M180.47,131.31h.47v-6.06c-.15.39-.31.76-.47,1.13Z" transform="translate(-18.21)"/>
    <path class="cls-1" d="M183.12,119q-.21.69-.43,1.38l.43,0Z" transform="translate(-18.21)"/>
    <path class="cls-1" d="M182.11,131.27h.35c-.12-.79-.24-1.59-.35-2.39Z" transform="translate(-18.21)"/>
    <path class="cls-1" d="M182.11,140.2l.47.38v-6.09h-.47Z" transform="translate(-18.21)"/>
    <path class="cls-1" d="M180,111.74l-.22-2.07,0,1.9Z" transform="translate(-18.21)"/>
    <path class="cls-1" d="M182.58,123.59l-.47,0v2.54c.15,1.09.31,2.18.47,3.28Z" transform="translate(-18.21)"/>
    <path class="cls-1" d="M182,128.37q-.24-1.69-.47-3.36v6.27H182Z" transform="translate(-18.21)"/>
    <path class="cls-1" d="M181.56,139.76l.47.38V134.5h-.47Z" transform="translate(-18.21)"/>
    <path class="cls-1" d="M184.83,142.2l.06.29.41.35v-8.31l-.19-.11h-.28Z" transform="translate(-18.21)"/>
    <polygon class="cls-1" points="167.17 131.12 167.65 130.75 167.59 124.28 167.17 123.88 167.17 131.12"/>
    <polygon class="cls-1" points="167.17 120.02 167.54 119.65 167.5 114.83 167.17 114.59 167.17 120.02"/>
    <path class="cls-1" d="M185.37,142.91l.61.52-.09-8.55-.52-.3Z" transform="translate(-18.21)"/>
    <path class="cls-1" d="M182.65,140.64l.47.39v-5.7c0-.28-.1-.56-.15-.85h-.32Z"
          transform="translate(-18.21)"/>
    <path class="cls-1"
          d="M184.8,111.7c.31-1.19.59-2.33.84-3.38v-1.47l-.58-.63-4.9-.12-.35.53c.1,1,.29,2.84.54,5.18Z"
          transform="translate(-18.21)"/>
    <path class="cls-1" d="M185.37,111.4l.29-.27,0-1.58-.28,1.16Z" transform="translate(-18.21)"/>
    <polygon class="cls-1"
             points="166.62 131.2 167.07 131.19 167.09 131.18 167.09 123.81 166.73 123.46 166.62 123.47 166.62 131.2"/>
    <path class="cls-1" d="M184.29,139.58q.23,1.18.47,2.28v-7.43h-.47Z" transform="translate(-18.21)"/>
    <path class="cls-1" d="M184.76,114.36h-.32l-.15.56v5.35l.47,0Z" transform="translate(-18.21)"/>
    <path class="cls-1" d="M184.29,142l.14.12-.14-.67Z" transform="translate(-18.21)"/>
    <path class="cls-1" d="M185.3,111l-.15.6.15-.14Z" transform="translate(-18.21)"/>
    <polygon class="cls-1" points="166.08 131.22 166.55 131.21 166.55 123.47 166.08 123.5 166.08 131.22"/>
    <polygon class="cls-1"
             points="166.62 114.36 166.62 120.25 166.96 120.23 167.09 120.1 167.09 114.53 166.84 114.35 166.62 114.36"/>
    <path class="cls-1" d="M190.63,139.81q-.24-1.2-.47-2.47v9.79l.47.43Z" transform="translate(-18.21)"/>
    <path class="cls-1" d="M189.55,134.1h.06c-.18-1.09-.36-2.2-.53-3.32v15.36l.47.42Z"
          transform="translate(-18.21)"/>
    <path class="cls-1" d="M189,130.29c-.16-1.07-.32-2.15-.47-3.23v18.59l.47.42Z"
          transform="translate(-18.21)"/>
    <path class="cls-1" d="M190.09,136.93c-.16-.89-.32-1.8-.47-2.73v12.43l.47.43Z"
          transform="translate(-18.21)"/>
    <path class="cls-1" d="M187.91,145.1V122.47c-.28-2.16-.53-4.24-.76-6.15l.7,28.73Z"
          transform="translate(-18.21)"/>
    <path class="cls-1" d="M183.12,123.56l-.47,0v6.35c.06.44.13.88.2,1.32h.27Z" transform="translate(-18.21)"/>
    <path class="cls-1" d="M188.46,126.53c-.16-1.17-.32-2.34-.47-3.49v22.13l.47.42Z"
          transform="translate(-18.21)"/>
    <path class="cls-1" d="M188.09,154.77h2.22l-2.26-1.69Z" transform="translate(-18.21)"/>
    <path class="cls-1" d="M191.18,142.7h.07q-.28-1.21-.54-2.52v7.45l.47.44Z" transform="translate(-18.21)"/>
    <path class="cls-1" d="M191.8,144.94v3.7l1,.91v-1.48C192.43,147.19,192.11,146.13,191.8,144.94Z"
          transform="translate(-18.21)"/>
    <path class="cls-1" d="M82.8,189.57A19.24,19.24,0,0,0,87,187.16H81.1C80.91,188.74,81.15,190.12,82.8,189.57Z"
          transform="translate(-18.21)"/>
    <path class="cls-1" d="M191.72,144.66c-.16-.62-.32-1.26-.47-1.94v5.42l.47.44Z"
          transform="translate(-18.21)"/>
    <path class="cls-1" d="M180.4,125.33v-1.54l-.43.47,0,2C180.14,126,180.27,125.65,180.4,125.33Z"
          transform="translate(-18.21)"/>
    <polygon class="cls-1" points="165.55 154.89 167.89 154.78 167.87 152.73 167.37 152.75 165.55 154.89"/>
    <path class="cls-1" d="M183.67,134.46h-.31c.1.6.2,1.2.31,1.79Z" transform="translate(-18.21)"/>
    <path class="cls-1"
          d="M181.35,120.42l.89,0c.66-2,1.28-4,1.83-6l-3.43.12C180.85,116.31,181.09,118.31,181.35,120.42Z"
          transform="translate(-18.21)"/>
    <path class="cls-1" d="M183.2,141.09l.47.39v-3.11c-.16-.85-.32-1.72-.47-2.61Z"
          transform="translate(-18.21)"/>
    <path class="cls-1" d="M180.4,116.36h.07l-.21-1.84h-.17l-.27.33.09,5.22.48.4h0Z"
          transform="translate(-18.21)"/>
    <path class="cls-1" d="M184.21,115.2q-.22.83-.47,1.68v3.42l.47,0Z" transform="translate(-18.21)"/>
    <polygon class="cls-1" points="165.46 123.53 164.99 123.55 164.99 131.24 165.46 131.23 165.46 123.53"/>
    <path class="cls-1" d="M183.67,117.14q-.23.8-.48,1.61h0v1.58l.47,0Z" transform="translate(-18.21)"/>
    <path class="cls-1" d="M180.85,150.52l1.36-1.59-1.86-1.26,0,2.85Z" transform="translate(-18.21)"/>
    <path class="cls-1" d="M180.4,138.83v-4.15l-.26.24.06,3.75Z" transform="translate(-18.21)"/>
    <path class="cls-1" d="M180.38,131.31h0v-4.77c-.13.3-.25.6-.38.88l.06,3.59Z" transform="translate(-18.21)"/>
    <path class="cls-1" d="M183.74,141.54l.47.39v-.84c-.16-.75-.32-1.53-.47-2.33Z"
          transform="translate(-18.21)"/>
    <polygon class="cls-1" points="166 123.5 165.53 123.53 165.53 131.23 166 131.22 166 123.5"/>
    <path class="cls-1" d="M184.21,134.45h-.47v2.22c.15.87.31,1.71.47,2.53Z" transform="translate(-18.21)"/>
    <path class="cls-1" d="M65.66,57.39l-1.29,1v9.13l1.29.1Z" transform="translate(-18.21)"/>
    <polygon class="cls-1" points="25.45 160.24 26.4 160.69 26.28 156.91 25.45 160.24"/>
    <path class="cls-1" d="M63.66,67.86v-9l-1.28.95V69.94l.51,0Z" transform="translate(-18.21)"/>
    <path class="cls-1" d="M61.66,70V60.38l-1.27.91V72l.06-2Z" transform="translate(-18.21)"/>
    <path class="cls-1" d="M40.7,158.83l.07,0-.07-.31Z" transform="translate(-18.21)"/>
    <path class="cls-1" d="M40.7,159.9v3.66l1,.28v-.23c-.18-1.1-.41-2.29-.68-3.55Z"
          transform="translate(-18.21)"/>
    <path class="cls-1" d="M67.66,67.89V55.83l-1.3,1V67.67l1.28.1Z" transform="translate(-18.21)"/>
    <path class="cls-1" d="M73.66,74.83l-1.33,1v7.44l1.33.6Z" transform="translate(-18.21)"/>
    <path class="cls-1" d="M71.66,52.57l-1.32,1.1V75.4l1.32-.95Z" transform="translate(-18.21)"/>
    <path class="cls-1" d="M73.66,50.86,72.33,52V74l1.33-1Z" transform="translate(-18.21)"/>
    <path class="cls-1" d="M69.66,74.36V54.22l-1.31,1.06v16l.51,2.48Z" transform="translate(-18.21)"/>
    <path class="cls-1" d="M71.66,82.93V76.28l-1.32.93v2.14l.07,3Z" transform="translate(-18.21)"/>
    <path class="cls-1" d="M41.72,156.38v-4.27l-1,.46C41.09,153.89,41.42,155.16,41.72,156.38Z"
          transform="translate(-18.21)"/>
    <path class="cls-1" d="M59.66,61.81l-1.26.88V74.76l1.26.44Z" transform="translate(-18.21)"/>
    <path class="cls-1" d="M40.25,125.44l1.46.72v-3.38l-.36-1.05Z" transform="translate(-18.21)"/>
    <path class="cls-1" d="M36.64,123.65,39.38,125l1.45-4.85-.19-.54-3.47,2.8Z" transform="translate(-18.21)"/>
    <path class="cls-1" d="M40.51,114.69l1,2.95,0,0,.14-.46v-2.68l-.85-.59Z" transform="translate(-18.21)"/>
    <polygon class="cls-1" points="23.51 113.29 23.51 111.91 23.05 112.97 23.51 113.29"/>
    <path class="cls-1" d="M40,113.29l0,.07,0,0Z" transform="translate(-18.21)"/>
    <path class="cls-1" d="M43.43,161.2l-.36,1.45c.1.57.18,1.11.26,1.64l1.42.39-.09-2.9Z"
          transform="translate(-18.21)"/>
    <polygon class="cls-1"
             points="19.27 134.75 22.42 136.65 23.51 133.38 23.51 131.75 19.43 134.22 19.27 134.75"/>
    <polygon class="cls-1" points="23.51 137.31 23.51 136.43 23.27 137.16 23.51 137.31"/>
    <path class="cls-1" d="M38,120.51l2.3-1.86-.67-1.92Z" transform="translate(-18.21)"/>
    <polygon class="cls-1" points="20.97 144.05 23.51 142.55 23.51 138.44 22.95 138.11 20.97 144.05"/>
    <polygon class="cls-1" points="22.5 150.83 22.5 151.53 23.31 151.14 22.5 150.83"/>
    <polygon class="cls-1" points="19.84 132.85 23.51 130.63 23.51 127.25 21.77 126.38 19.84 132.85"/>
    <path class="cls-1" d="M75.66,73.34l-1.34,1v9.79l1.34.61Z" transform="translate(-18.21)"/>
    <path class="cls-1" d="M93.66,57.69l-1.43,1.4v33.2l1.43.65Z" transform="translate(-18.21)"/>
    <path class="cls-1" d="M91.66,32.84l-1.42,1.6V58.94l1.42-1.37Z" transform="translate(-18.21)"/>
    <path class="cls-1" d="M93.66,30.53l-1.43,1.65V57l1.43-1.42Z" transform="translate(-18.21)"/>
    <path class="cls-1" d="M95.66,55.68l-1.44,1.45V93.19l1.44.65Z" transform="translate(-18.21)"/>
    <path class="cls-1" d="M91.66,59.64,90.24,61V91.38l1.42.65Z" transform="translate(-18.21)"/>
    <path class="cls-1" d="M89.66,35.09l-1.41,1.55V60.82l1.41-1.32Z" transform="translate(-18.21)"/>
    <path class="cls-1" d="M97.66,51.43V25.73L96.21,27.5V53l.42-.44Z" transform="translate(-18.21)"/>
    <path class="cls-1" d="M99.66,23.25,98.2,25.06V50.84l1.45-1.6Z" transform="translate(-18.21)"/>
    <path class="cls-1" d="M99.66,51.43c-.48.53-1,1.06-1.45,1.58V95l1.45.66Z" transform="translate(-18.21)"/>
    <path class="cls-1" d="M95.66,28.16l-1.44,1.7V55l1.44-1.48Z" transform="translate(-18.21)"/>
    <path class="cls-1" d="M89.66,61.54l-1.41,1.3V90.47l1.41.64Z" transform="translate(-18.21)"/>
    <path class="cls-1" d="M97.66,53.61l-1.45,1.5v39l1.45.66Z" transform="translate(-18.21)"/>
    <path class="cls-1" d="M81.66,68.57,80.29,69.7V86.85l1.37.62Z" transform="translate(-18.21)"/>
    <path class="cls-1" d="M79.66,45.41,78.3,46.69V69.4l1.36-1.1Z" transform="translate(-18.21)"/>
    <path class="cls-1" d="M81.66,43.47,80.29,44.8v23l1.37-1.14Z" transform="translate(-18.21)"/>
    <path class="cls-1" d="M79.66,70.21,78.3,71.29V85.94l1.36.62Z" transform="translate(-18.21)"/>
    <path class="cls-1" d="M75.66,49.11l-1.34,1.18V72.49l1.34-1Z" transform="translate(-18.21)"/>
    <path class="cls-1" d="M77.66,47.28l-1.35,1.23V71l1.35-1.06Z" transform="translate(-18.21)"/>
    <path class="cls-1" d="M77.66,71.8l-1.35,1V85l1.35.61Z" transform="translate(-18.21)"/>
    <path class="cls-1" d="M101.66,49.23c-.48.54-1,1.08-1.46,1.62V95.92l1.46.67Z"
          transform="translate(-18.21)"/>
    <path class="cls-1" d="M85.66,39.4l-1.39,1.44V64.4l1.39-1.22Z" transform="translate(-18.21)"/>
    <path class="cls-1" d="M83.66,66.89l-1.38,1.17v19.7l1.38.63Z" transform="translate(-18.21)"/>
    <path class="cls-1" d="M87.66,63.37l-1.4,1.26V89.56l1.4.64Z" transform="translate(-18.21)"/>
    <path class="cls-1" d="M87.66,37.27l-1.4,1.49V62.64l1.4-1.27Z" transform="translate(-18.21)"/>
    <path class="cls-1" d="M83.66,41.47l-1.38,1.39V66.12l1.38-1.18Z" transform="translate(-18.21)"/>
    <path class="cls-1" d="M85.66,65.16l-1.39,1.21V88.66l1.39.63Z" transform="translate(-18.21)"/>
    <polygon class="cls-1" points="25.27 128.12 24.48 127.72 24.48 130.04 24.66 129.93 25.27 128.12"/>
    <polygon class="cls-1" points="25.41 130.73 24.48 133.53 24.48 137.9 25.67 138.62 25.41 130.73"/>
    <path class="cls-1" d="M42.69,125.66v1l.39.19Z" transform="translate(-18.21)"/>
    <polygon class="cls-1" points="25.71 139.78 24.48 139.03 24.48 141.97 25.76 141.22 25.71 139.78"/>
    <path class="cls-1" d="M48.56,113.21v.48l.67.22-.67,2V118l2.7,1.88V112.3s-.2-.32-.55-.82Z"
          transform="translate(-18.21)"/>
    <polygon class="cls-1" points="26.09 151.17 26.08 150.91 25.77 151.05 26.09 151.17"/>
    <path class="cls-1" d="M34.51,109.46l-.46.65v4.25l1.59-4.12Z" transform="translate(-18.21)"/>
    <path class="cls-1" d="M37,109.36l-.2.53.53.37Z" transform="translate(-18.21)"/>
    <polygon class="cls-1"
             points="26.05 149.85 25.8 142.32 24.48 143.1 24.48 150.56 24.52 150.57 26.05 149.85"/>
    <path class="cls-1" d="M44.35,125.5l1.78-5.35-.3-2.82-1.27-.88L42.69,118v3c.51,1.48,1,3,1.53,4.55Z"
          transform="translate(-18.21)"/>
    <path class="cls-1" d="M36.52,108l-.26-.71c-.38.42-.77.9-1.17,1.42l.91.63Z" transform="translate(-18.21)"/>
    <polygon class="cls-1"
             points="26.16 153.36 26.12 152.22 24.56 151.62 24.48 151.66 24.48 159.78 24.57 159.82 26.16 153.36"/>
    <path class="cls-1"
          d="M40.45,112.41l1.27-2.94v-4.72a5.84,5.84,0,0,0-3,.5l-.14.08-.73,1.9c.49,1.35,1,2.86,1.62,4.49Z"
          transform="translate(-18.21)"/>
    <path class="cls-1" d="M53.66,65.85l-1.23.79v6l1.23.43Z" transform="translate(-18.21)"/>
    <path class="cls-1" d="M36.38,121.81l2.79-6.44-1.26-3.56-1.45-1L34,117v5.33l1,.5Z"
          transform="translate(-18.21)"/>
    <path class="cls-1" d="M51.66,67.11l-1.23.76V72l1.23.43Z" transform="translate(-18.21)"/>
    <path class="cls-1" d="M55.66,64.55l-1.24.82v8l1.24.44Z" transform="translate(-18.21)"/>
    <polygon class="cls-1" points="24.48 115.14 24.48 116.72 25.53 115.87 24.48 115.14"/>
    <path class="cls-1" d="M47.66,69.53l-1.57.9,1.57.55Z" transform="translate(-18.21)"/>
    <path class="cls-1" d="M49.66,68.34l-1.21.72v2.19l1.21.43Z" transform="translate(-18.21)"/>
    <path class="cls-1" d="M57.66,63.2,56.4,64v10l1.25.44Z" transform="translate(-18.21)"/>
    <path class="cls-1" d="M46.7,113.47l.89-.72v-4.88a15.85,15.85,0,0,0-2-1.6l.64,5.87Z"
          transform="translate(-18.21)"/>
    <path class="cls-1" d="M42.69,106.63v.61l.12-.28Z" transform="translate(-18.21)"/>
    <path class="cls-1" d="M45.46,114.47c-.77-2.21-1.5-4.29-2.18-6.18l-.6,1.38V114l1.83,1.27Z"
          transform="translate(-18.21)"/>
    <path class="cls-1" d="M44.57,105.65l-.11-.06-.3.69.69,1.92Z" transform="translate(-18.21)"/>
    <polygon class="cls-1" points="27.48 116.05 27.43 115.57 27.14 115.81 27.48 116.05"/>
    <path class="cls-1" d="M51.26,127v-1l-.28.17Z" transform="translate(-18.21)"/>
    <polygon class="cls-1" points="27.56 151.73 29.39 152.43 29.39 149.35 27.98 150.01 27.56 151.73"/>
    <path class="cls-1" d="M47.55,115.9l0-.14V114l-.55.45Z" transform="translate(-18.21)"/>
    <polygon class="cls-1" points="29.39 148.28 29.39 144.35 28.28 148.8 29.39 148.28"/>
    <path class="cls-1" d="M45.82,129.28l-.3.18c.71,2.2,1.41,4.41,2.08,6.6v-2.4l-.4-3.7Z"
          transform="translate(-18.21)"/>
    <path class="cls-1" d="M47.12,120.25l.48,4.42v-4l-.32-.94Z" transform="translate(-18.21)"/>
    <polygon class="cls-1" points="27.51 164.95 28 165.09 29.39 164.13 29.39 163.18 27.42 162.25 27.51 164.95"/>
    <polygon class="cls-1"
             points="27.13 153.47 27.38 161.16 29.39 162.11 29.39 153.47 27.32 152.68 27.13 153.47"/>
    <polygon class="cls-1" points="29.02 141.78 27.87 141.09 26.74 141.75 27 149.41 27.16 149.33 29.02 141.78"/>
    <polygon class="cls-1" points="28.83 128.54 28.59 128.68 28.86 128.82 28.83 128.54"/>
    <path class="cls-1" d="M44.79,127.23l.18.55.81.4,1.15-.7-.54-5Z" transform="translate(-18.21)"/>
    <polygon class="cls-1" points="26.7 140.37 26.71 140.66 26.94 140.52 26.7 140.37"/>
    <path class="cls-1" d="M47.31,140.36l-.28.17.41.25Z" transform="translate(-18.21)"/>
    <path class="cls-1" d="M48.56,126.49l.79-.48-.79-2.42Z" transform="translate(-18.21)"/>
    <polygon class="cls-1" points="15.84 123.45 15.84 123.69 16.03 123.55 15.84 123.45"/>
    <path class="cls-1" d="M48.56,129.55l2.29,1.13c-.39-1.24-.79-2.49-1.19-3.73l-1.1.66Z"
          transform="translate(-18.21)"/>
    <path class="cls-1" d="M47,139.4c-.76-2.57-1.57-5.2-2.41-7.83l.25,7.65,1.22.74Z"
          transform="translate(-18.21)"/>
    <path class="cls-1" d="M50.67,125.21l.59-.35v-3.77l-2.54-1.77C49.37,121.25,50,123.22,50.67,125.21Z"
          transform="translate(-18.21)"/>
    <polygon class="cls-1" points="16.98 124.02 15.84 124.94 15.84 127.19 17.18 124.11 16.98 124.02"/>
    <path class="cls-1" d="M48.56,130.63v3l.5,4.59,2.2-1.31V132l0-.06Z" transform="translate(-18.21)"/>
    <path class="cls-1" d="M50.65,146.84l.61-.29v-2.33l-1.56-.95Q50.2,145.1,50.65,146.84Z"
          transform="translate(-18.21)"/>
    <path class="cls-1" d="M48.56,152.8l2.12.81c-.31-1.59-.71-3.33-1.16-5.17l-1,.45Z"
          transform="translate(-18.21)"/>
    <path class="cls-1" d="M48.56,147.82l.71-.33q-.34-1.32-.71-2.7Z" transform="translate(-18.21)"/>
    <path class="cls-1" d="M48.56,153.84v8.73l.75.36,1.95-1.36v-4.46q-.15-1.12-.37-2.38Z"
          transform="translate(-18.21)"/>
    <path class="cls-1" d="M51.26,149.32v-1.71l-.37.18C51,148.31,51.14,148.82,51.26,149.32Z"
          transform="translate(-18.21)"/>
    <path class="cls-1" d="M49.25,140l-.47.05c.18.64.37,1.27.54,1.9l1.94,1.18V138l-2.09,1.24Z"
          transform="translate(-18.21)"/>
    <path class="cls-1" d="M48.56,112l1.58-1.27c-.42-.55-1-1.2-1.58-1.86Z" transform="translate(-18.21)"/>
    <polygon class="cls-1" points="5.74 143.21 6.58 143.25 6.58 141.99 6.09 142.29 5.74 143.21"/>
    <polygon class="cls-1"
             points="102.67 151.17 100.84 151.17 100.84 152.55 99.25 152.55 99.28 154.47 102.67 154.47 102.67 151.17"/>
    <polygon class="cls-1" points="13.58 132.43 10.6 130.62 7.55 138.51 7.55 140.28 11.11 138.13 13.58 132.43"/>
    <path class="cls-1" d="M40.7,149.8l1,.39v-6.52l-3,1.78v0c.1.33.19.65.29,1l1.71.12Z"
          transform="translate(-18.21)"/>
    <polygon class="cls-1"
             points="110.86 153.72 110.86 158.03 112.07 157.78 112.07 154.63 114.14 154.63 114.12 152.55 112.31 152.55 112.31 151.17 106.31 151.17 106.31 153.72 110.86 153.72"/>
    <path class="cls-1" d="M37.24,146.33h.16l0-.09Z" transform="translate(-18.21)"/>
    <path class="cls-1" d="M37.2,135.7l-.75,2.51c.61,1.89,1.2,3.78,1.78,5.66l2.09-6.27Z"
          transform="translate(-18.21)"/>
    <path class="cls-1" d="M30.93,121.91l.1.28.08-.19Z" transform="translate(-18.21)"/>
    <path class="cls-1" d="M30.31,126.71l.55-.44-.18-.52Z" transform="translate(-18.21)"/>
    <path class="cls-1" d="M29.16,129.7l3,1.83.28-.64c-.42-1.24-.84-2.46-1.25-3.66l-1.58,1.28Z"
          transform="translate(-18.21)"/>
    <polygon class="cls-1" points="9.57 130 7.55 131.63 7.55 135.82 9.76 130.11 9.57 130"/>
    <path class="cls-1" d="M176.08,155.24v-2.58h2.11v-6.41l-2.26-1.45v10.45Z" transform="translate(-18.21)"/>
    <polygon class="cls-1" points="7.55 128.77 7.55 130.39 8.7 129.47 7.55 128.77"/>
    <path class="cls-1" d="M28.81,127.93l1.38-3.58L29,121l-.92-.45c-.81,1.6-1.59,3.2-2.32,4.75v2.39l1.95,1.18Z"
          transform="translate(-18.21)"/>
    <polygon class="cls-1" points="14.88 121.9 14.88 119.55 14.11 121.52 14.88 121.9"/>
    <path class="cls-1" d="M31.52,123.59l.59,1.67,1-.79V123L32,122.42Z" transform="translate(-18.21)"/>
    <polygon class="cls-1" points="12.54 137.26 14.88 135.85 14.88 133.21 14.41 132.93 12.54 137.26"/>
    <path class="cls-1" d="M33.08,128.09v-2.38l-.64.52Z" transform="translate(-18.21)"/>
    <path class="cls-1" d="M30.47,120.6l1,.49,1.63-4.22v-5.3c-1.2,1.88-2.42,4-3.61,6.26Z"
          transform="translate(-18.21)"/>
    <path class="cls-1" d="M34.24,136.28l-.19.11v6.48l1.11-3.74C34.86,138.18,34.55,137.23,34.24,136.28Z"
          transform="translate(-18.21)"/>
    <polygon class="cls-1" points="7.55 141.41 7.55 143.29 8.85 143.35 10.45 139.65 7.55 141.41"/>
    <path class="cls-1" d="M22.11,133.35l2.69-2.17v-3l-.31-.19C23.55,130,22.74,131.88,22.11,133.35Z"
          transform="translate(-18.21)"/>
    <path class="cls-1"
          d="M140.29,148.71h3.94V134.46h.67v-.76h1v-1h.58v1h1v.76h1.1v21.42l2.73-3.29v-15.1h5.46V142h.55l1.21-6.16L160,142h4.43v8.68l1.21.52V147.8h.54v-5.09l2.22,5.09h1.19v5.13l2.12.91v-11.5h.24a142.58,142.58,0,0,0-15.69-8.16c-4.53-2-11.28-4.43-19.05-7l.67,27.49h2.44Z"
          transform="translate(-18.21)"/>
    <path class="cls-1" d="M20.66,136.78v5.34l1.25.48,1.61-1,1.28-3.31v-5.91l-3.49,2.82Z"
          transform="translate(-18.21)"/>
    <path class="cls-1" d="M101.66,20.7l-1.46,1.87V48.65L101.66,47Z" transform="translate(-18.21)"/>
    <polygon class="cls-1" points="9.88 143.4 14.88 143.63 14.88 136.98 11.88 138.79 9.88 143.4"/>
    <path class="cls-1" d="M34.59,144.44l1.47,1.47,1-.61c-.45-1.5-.92-3-1.4-4.53Z"
          transform="translate(-18.21)"/>
    <path class="cls-1" d="M109.66,9.83,108.15,12v27.2l1.5-1.91Z" transform="translate(-18.21)"/>
    <path class="cls-1" d="M111.24,7.53l-1.1,1.6V36.62l1.1-1.42Z" transform="translate(-18.21)"/>
    <path class="cls-1"
          d="M72.07,156l6.33,1.43v-3.81h5.68v3.54l2.67-.5v-16.9H91.3v12h1.52v-5.91h1.3v-1.22h1.75v1.22h1v6.34h.85v4.23L98.88,158V135.52h1.2v-1.09H102v-2.91h1.17v2.91h1v1.09H106v4.1h2.73v21l.84,0,.58-1.61,1.07-.46V118.85C93.66,113.46,76.89,108.66,71,107Z"
          transform="translate(-18.21)"/>
    <path class="cls-1" d="M111.24,37.64,110.14,39v61.45l1.1.5Z" transform="translate(-18.21)"/>
    <path class="cls-1" d="M36.2,134l.62-.37,2.28-7.64-2.84-1.41L34,129.63v1.31l.73,2.17Z"
          transform="translate(-18.21)"/>
    <path class="cls-1" d="M35.26,134.53h0v0Z" transform="translate(-18.21)"/>
    <path class="cls-1" d="M35.56,135.48l.36,1.11.42-1.4-.15-.09Z" transform="translate(-18.21)"/>
    <path class="cls-1" d="M109.66,39.64c-.5.63-1,1.27-1.5,1.9v58l1.5.69Z" transform="translate(-18.21)"/>
    <path class="cls-1" d="M28.53,119.63h0Z" transform="translate(-18.21)"/>
    <path class="cls-1" d="M103.66,18.09,102.18,20V46.38l1.47-1.73Z" transform="translate(-18.21)"/>
    <path class="cls-1" d="M103.66,46.93l-1.47,1.7v48.2l1.47.67Z" transform="translate(-18.21)"/>
    <polygon class="cls-1"
             points="164.84 154.2 165.01 154.37 166.96 152.08 166.96 151.9 162.98 151.9 162.98 152.24 163.37 152.65 164.84 152.65 164.84 154.2"/>
    <path class="cls-1" d="M107.66,12.66l-1.49,2.06V41.64l1.49-1.85Z" transform="translate(-18.21)"/>
    <path class="cls-1" d="M105.66,15.41l-1.48,2V44l1.48-1.79Z" transform="translate(-18.21)"/>
    <path class="cls-1" d="M107.66,42.15c-.49.6-1,1.2-1.49,1.81V98.65l1.49.68Z" transform="translate(-18.21)"/>
    <path class="cls-1" d="M105.66,44.57l-1.48,1.76V97.74l1.48.68Z" transform="translate(-18.21)"/>
    <path d="M199.43,150.86a4.22,4.22,0,0,0,.53-1l.35.12a4.41,4.41,0,0,1-.89,1.45V153l1.5-.35.93-.21v-7.71H205V129.3H204v3.38h-1.89v-.73h-.58V129.3h-1v2.65h-1.75V129.3h-1v20.93h1.67Z"
          transform="translate(-18.21)"/>
    <polygon points="190.78 146.62 190.78 150.84 192.75 150.38 192.75 147.73 190.78 146.62"/>
    <polygon
            points="197.6 150.3 200.32 151.66 201.49 152.44 201.49 143.01 204.58 143.01 204.58 136.12 203.37 136.12 203.37 139.16 198.36 139.16 198.36 136.12 197.45 136.12 197.45 147.65 197.6 147.65 197.6 150.3"/>
    <polygon points="215.5 150.36 215.5 136.58 213.07 136.58 213.07 151.83 215.5 150.36"/>
    <polygon points="223.74 148.41 228.24 150.73 228.24 144.01 225.05 144.01 225.05 148.41 223.74 148.41"/>
    <polygon points="222.02 147.51 222.02 144.01 220.5 144.01 220.5 147.32 221.03 147 222.02 147.51"/>
    <polygon
            points="229.75 151.52 231.27 152.3 231.27 145.37 234 145.37 234 129.75 232.82 129.75 233.06 130.64 229.13 130.49 229.19 129.75 228.24 129.75 228.24 144.01 229.75 144.01 229.75 151.52"/>
    <polygon points="229.75 151.52 229.75 144.01 228.24 144.01 228.24 150.73 229.75 151.52"/>
    <rect x="222.02" y="140.67" width="3.03" height="3.34"/>
    <polygon points="223.74 148.41 225.05 148.41 225.05 144.01 222.02 144.01 222.02 147.51 223.74 148.41"/>
    <polygon
            points="211.25 136.58 213.07 136.58 213.07 134.15 211.89 134.15 212.11 134.71 210.22 135 210.47 134.15 209.43 134.15 209.43 154.04 211.25 152.94 211.25 136.58"/>
    <polygon points="211.25 152.94 213.07 151.83 213.07 136.58 211.25 136.58 211.25 152.94"/>
    <polygon
            points="203.37 134.15 202.51 134.15 202.51 135 199.31 135 199.31 134.15 198.36 134.15 198.36 136.12 203.37 136.12 203.37 134.15"/>
    <rect x="198.36" y="136.12" width="5.01" height="3.03"/>
    <polygon
            points="193.35 148.07 193.35 150.24 196.18 149.59 197.45 150.23 197.45 147.65 193.92 147.65 193.92 148.39 193.35 148.07"/>
    <polygon points="192.75 150.38 193.35 150.24 193.35 148.07 192.75 147.73 192.75 150.38"/>
    <polygon points="197.6 150.3 197.6 147.65 197.45 147.65 197.45 150.23 197.6 150.3"/>
    <polygon
            points="204.58 154.5 206.53 155.8 206.85 155.61 206.85 151.44 205.56 151.44 205.56 154.5 204.58 154.5"/>
    <polygon
            points="235.97 154.73 235.97 151.29 238.85 151.29 238.85 145.37 234 145.37 234 153.71 235.97 154.73"/>
    <polygon points="231.27 152.3 234 153.71 234 145.37 231.27 145.37 231.27 152.3"/>
    <polygon points="237.03 155.23 247.95 160.33 247.95 151.29 238.85 151.29 238.85 155.23 237.03 155.23"/>
    <polygon
            points="235.97 154.73 236.04 154.77 237.03 155.23 238.85 155.23 238.85 151.29 235.97 151.29 235.97 154.73"/>
    <polygon
            points="189.56 151.12 189.56 145.94 189.27 145.77 189.27 144.77 186.83 144.77 186.83 151.75 189.56 151.12"/>
    <polygon points="183.65 152.48 186.83 151.75 186.83 144.77 183.65 144.77 183.65 152.48"/>
    <polygon points="190.78 146.62 189.56 145.94 189.56 151.12 190.78 150.84 190.78 146.62"/>
    <path d="M196.4,152.15v1l.5.5.87-.2v-1.12A3.06,3.06,0,0,1,196.4,152.15Z" transform="translate(-18.21)"/>
    <path d="M197.76,151.95v-1.72H196.4v1.53A2.73,2.73,0,0,0,197.76,151.95Z" transform="translate(-18.21)"/>
    <path d="M198,151.9a2.62,2.62,0,0,0,1.39-1v-.63h-1.67v1.72Z" transform="translate(-18.21)"/>
    <path d="M197.76,152.32v1.12l1.67-.39v-1.61a2.79,2.79,0,0,1-1.29.81A2.53,2.53,0,0,1,197.76,152.32Z"
          transform="translate(-18.21)"/>
    <path d="M196.4,150.23v-9.1h-3.64V147a11.23,11.23,0,0,0,1.45,3.24Z" transform="translate(-18.21)"/>
    <path d="M193.28,149.88l.34.11a12,12,0,0,1-.86-1.92v1.48l.47.45Z" transform="translate(-18.21)"/>
    <path d="M193.63,150l-.09.22h.24Z" transform="translate(-18.21)"/>
    <path d="M194.5,150.54a6.61,6.61,0,0,0,1.9,1.22v-1.53h-2.19A2.26,2.26,0,0,0,194.5,150.54Z"
          transform="translate(-18.21)"/>
    <path d="M196.4,153.14v-1a6.7,6.7,0,0,1-2.14-1.33,2.93,2.93,0,0,1-.49-.59h-.24l0,0C194.58,151.31,195.53,152.25,196.4,153.14Z"
          transform="translate(-18.21)"/>
    <polygon points="164.84 152.65 163.37 152.65 164.84 154.2 164.84 152.65"/>
    <polygon points="164.51 154.94 162.42 152.74 162.22 152.75 162.26 155.04 164.51 154.94"/>
    <polygon points="157.87 155.24 159.98 155.14 159.98 152.65 157.87 152.65 157.87 155.24"/>
    <path d="M171.68,153.84l3.37,1.44.88,0V144.79c-1.29-.82-2.63-1.63-4-2.45h-.24Z"
          transform="translate(-18.21)"/>
    <polygon points="150.16 147.8 150.41 148.39 148.89 151.88 151.35 152.93 151.35 147.8 150.16 147.8"/>
    <polygon points="147.94 147.8 147.4 147.8 147.4 151.24 147.94 151.47 147.94 147.8"/>
    <path d="M160,142l.22,1-3.2,1,.39-2h-.55v4.1c.28-.31.49-.55.63-.69,1.55-1.55,3.11,3.62,3.11,3.62l3.85,1.65V142Z"
          transform="translate(-18.21)"/>
    <path d="M155.91,142h.91v-4.55h-5.46v15.1c1.71-2.05,3.37-4,4.55-5.4Z" transform="translate(-18.21)"/>
    <path d="M155.91,147.18l.91-1V142h-.91Z" transform="translate(-18.21)"/>
    <path d="M147.52,134.46v1.86H144.9v-1.86h-.67v14.25h1.37v10.83l3-3.67V134.46Z"
          transform="translate(-18.21)"/>
    <path d="M141.35,160.91l2.64.59.24-.29V148.71h-3.94v5.92h1.06Z" transform="translate(-18.21)"/>
    <path d="M145.59,159.54V148.71h-1.37V161.2Z" transform="translate(-18.21)"/>
    <polygon
            points="106.31 153.72 106.31 157.07 107.95 158.16 109.27 158.36 110.86 158.03 110.86 153.72 106.31 153.72"/>
    <polygon points="112.07 157.78 112.92 157.6 114.15 155.15 114.14 154.63 112.07 154.63 112.07 157.78"/>
    <polygon points="120.88 157.91 122.08 158.75 122.08 154.63 119.64 154.63 119.66 155.31 120.88 157.91"/>
    <polygon
            points="122.46 160.76 123.14 160.91 123.14 154.63 122.08 154.63 122.08 158.75 122.41 158.98 122.46 160.76"/>
    <polygon points="106.31 143.59 102.67 147.86 102.67 149.18 106.31 149.18 106.31 143.59"/>
    <polygon points="103.81 136.73 102.85 136.73 103.72 137.64 103.81 136.73"/>
    <polygon points="105.41 136.73 105.6 138.35 103.9 137.83 106.31 140.35 106.31 136.73 105.41 136.73"/>
    <polygon
            points="102.97 154.47 102.97 157.43 104.19 157.61 104.2 157.6 106.15 157 106.15 153.72 106.31 153.72 106.31 151.17 102.67 151.17 102.67 154.47 102.97 154.47"/>
    <polygon points="102.67 139.42 102.67 144.79 105.08 141.95 102.67 139.42"/>
    <polygon points="106.31 157.07 106.31 153.72 106.15 153.72 106.15 157 106.19 156.99 106.31 157.07"/>
    <polygon
            points="100.22 158.21 102.49 157.35 102.67 157.38 102.67 154.47 99.28 154.47 99.31 155.77 100.22 158.21"/>
    <polygon points="102.97 154.47 102.67 154.47 102.67 157.38 102.97 157.43 102.97 154.47"/>
    <polygon points="87.81 139.61 87.81 160.75 90.53 160.63 90.53 139.61 87.81 139.61"/>
    <polygon
            points="86.14 160.83 86.14 139.61 87.81 139.61 87.81 135.52 85.95 135.52 85.95 136.75 81.88 136.75 81.88 135.52 80.68 135.52 80.68 157.98 82.82 160.98 86.14 160.83"/>
    <polygon points="86.14 160.83 87.81 160.75 87.81 139.61 86.14 139.61 86.14 160.83"/>
    <polygon
            points="75.82 154.38 76.93 153.98 76.93 152.17 78.7 152.17 78.7 145.83 77.66 145.83 77.66 146.65 75.91 146.65 75.91 145.83 74.61 145.83 74.61 151.74 75.82 151.74 75.82 154.38"/>
    <polygon
            points="71.73 155.84 71.73 151.74 73.09 151.74 73.09 139.76 68.54 139.76 68.54 156.67 70.39 156.32 71.73 155.84"/>
    <polygon points="74.61 154.81 74.61 151.74 73.09 151.74 73.09 155.35 74.61 154.81"/>
    <polygon points="75.82 154.38 75.82 151.74 74.61 151.74 74.61 154.81 75.82 154.38"/>
    <polygon points="71.73 155.84 73.09 155.35 73.09 151.74 71.73 151.74 71.73 155.84"/>
    <polygon points="230.01 119.29 229.19 129.75 232.82 129.75 230.01 119.29"/>
    <polygon points="233.06 130.64 232.82 129.75 229.19 129.75 229.13 130.49 233.06 130.64"/>
    <polygon points="211.09 132.09 210.47 134.15 211.89 134.15 211.09 132.09"/>
    <polygon points="212.11 134.71 211.89 134.15 210.47 134.15 210.22 135 212.11 134.71"/>
    <polygon
            points="189.56 138.09 193.35 138.09 193.35 147.65 193.92 147.65 193.92 137.77 191.45 134.28 191.45 130.2 189.27 125.11 189.27 144.77 189.56 144.77 189.56 138.09"/>
    <polygon
            points="190.78 146.62 192.75 147.73 192.75 147.65 193.35 147.65 193.35 138.09 189.56 138.09 189.56 144.77 190.78 144.77 190.78 146.62"/>
    <polygon points="193.35 148.07 193.92 148.39 193.92 147.65 193.35 147.65 193.35 148.07"/>
    <polygon points="192.75 147.73 193.35 148.07 193.35 147.65 192.75 147.65 192.75 147.73"/>
    <polygon points="189.56 145.94 189.56 144.77 189.27 144.77 189.27 145.77 189.56 145.94"/>
    <polygon points="190.78 144.77 189.56 144.77 189.56 145.94 190.78 146.62 190.78 144.77"/>
    <polygon points="140.37 135.88 139.16 142.04 141.76 142.04 140.37 135.88"/>
    <polygon points="141.97 143.01 141.76 142.04 139.16 142.04 138.77 144.03 141.97 143.01"/>
    <polygon points="147.94 142.72 147.94 147.8 150.16 147.8 147.94 142.72"/>
    <polygon points="148.89 151.88 150.41 148.39 150.16 147.8 147.94 147.8 147.94 151.47 148.89 151.88"/>
    <polygon points="105.41 136.73 105.08 133.88 104.11 133.88 103.81 136.73 105.41 136.73"/>
    <polygon points="104.58 129.47 104.32 131.89 104.86 131.89 104.58 129.47"/>
    <polygon points="105.41 136.73 103.81 136.73 103.72 137.64 103.9 137.83 105.6 138.35 105.41 136.73"/>
    <rect x="126.7" y="133.69" width="1.02" height="0.76"/>
    <rect x="128.3" y="133.69" width="1.02" height="0.76"/>
    <polygon
            points="129.31 136.31 129.31 134.46 128.3 134.46 128.3 134.57 127.72 134.57 127.72 134.46 126.69 134.46 126.69 136.31 129.31 136.31"/>
    <rect x="127.71" y="132.68" width="0.58" height="1.02"/>
    <rect x="127.71" y="133.69" width="0.58" height="0.76"/>
    <rect x="127.71" y="134.46" width="0.58" height="0.11"/>
    <rect x="81.88" y="134.42" width="1.89" height="1.09"/>
    <rect x="84.93" y="134.42" width="1.02" height="1.09"/>
    <polygon
            points="85.95 136.75 85.95 135.52 84.94 135.52 84.94 136.02 83.77 136.02 83.77 135.52 81.88 135.52 81.88 136.75 85.95 136.75"/>
    <rect x="83.77" y="131.51" width="1.17" height="2.91"/>
    <rect x="83.77" y="134.42" width="1.17" height="1.09"/>
    <rect x="83.77" y="135.52" width="1.17" height="0.51"/>
    <rect x="75.91" y="144.61" width="1.75" height="1.22"/>
    <rect x="75.91" y="145.83" width="1.75" height="0.82"/>
    <polygon points="78.7 152.17 78.7 155.22 79.55 156.4 79.55 152.17 78.7 152.17"/>
    <polygon points="76.93 153.98 77.64 153.73 78.7 155.22 78.7 152.17 76.93 152.17 76.93 153.98"/>
    <polygon points="60.2 153.63 60.2 157.44 62.11 157.87 65.87 157.17 65.87 153.63 60.2 153.63"/>
    <rect x="199.31" y="133.4" width="3.2" height="0.75"/>
    <rect x="199.31" y="134.15" width="3.2" height="0.85"/>
    <rect x="204.58" y="143.01" width="0.99" height="8.43"/>
    <polygon
            points="201.49 152.44 203.82 153.99 203.82 151.44 204.58 151.44 204.58 143.01 201.49 143.01 201.49 152.44"/>
    <polygon points="204.58 154.5 204.58 154.5 205.56 154.5 205.56 151.44 204.58 151.44 204.58 154.5"/>
    <polygon points="204.58 151.44 203.82 151.44 203.82 153.99 204.58 154.5 204.58 151.44"/>
    <rect x="184.46" y="125.25" width="1.31" height="4.04"/>
    <polygon
            points="184.47 131.95 183.88 131.95 183.88 132.68 185.78 132.68 185.78 129.3 184.47 129.3 184.47 131.95"/>
    <rect x="180.54" y="123.8" width="1.75" height="5.5"/>
    <rect x="180.54" y="129.3" width="1.75" height="2.65"/>
    <polygon
            points="183.88 125.25 184.47 125.25 184.47 121.91 183.3 121.91 183.3 129.3 183.88 129.3 183.88 125.25"/>
    <rect x="183.3" y="129.3" width="0.58" height="2.65"/>
    <rect x="183.88" y="125.25" width="0.58" height="4.04"/>
    <rect x="183.88" y="129.3" width="0.58" height="2.65"/>
    <polygon
            points="95.94 169.12 156.76 171.1 125.36 173.51 192.56 172.86 162.69 170.88 243.49 170.22 119.44 169.12 95.94 169.12"/>
    <polygon points="114.61 171.98 51.37 170.66 46.35 170.94 41.81 171.34 114.61 171.98"/>
    <path d="M84.51,176.81l-12.74-2.2,42.16-.22-47.21-1.1,2.64,2-17.61.5.26.29Z" transform="translate(-18.21)"/>
    <polygon points="131.29 180.1 158.74 177.69 73.77 178.56 131.29 180.1"/>
    <polygon points="182.45 178.56 207.92 177.03 165.99 176.37 182.45 178.56"/>
    <path d="M81.47,185.29a14.43,14.43,0,0,0-.36,1.85H87c1.59-1,3.15-1.72,5.05-.66.36.2.74.43,1.13.68l71.05.17Z"
          transform="translate(-18.21)"/>
    <path d="M0,192.65" transform="translate(-18.21)"/>
    <path d="M18.21,192.65h82.28a79.53,79.53,0,0,0-7.32-5.47l-6.18,0a19.24,19.24,0,0,1-4.17,2.41c-1.66.55-1.9-.84-1.7-2.43h-6l.88-2,5.52.14c.27-1,.57-1.87.57-1.87l-10.76-4.61-7.69,3.84-8.45-1.92A20.19,20.19,0,0,0,52,176.06l-5.71-.13,5.44-.16a16.85,16.85,0,0,0-1.22-1.19c-3.07-2.69-10.38-1.15-10.38-1.15l-.43-.33L60,171.34l-2.08,0,6.61-.37,14.55-1.26.09-3.06,12.5-.09-.2,2.4,67.79-1.23-.1-1.68,120.42.58-13.45-6.28v1.58h-12v-6.67h-2v2.27h-5.76v-4.85h-7.73v-5.33l-5,3v9h-4.25v-2.58h-1.82V154l-2.58,1.57v1.6h-2.28v3.94h-7.13v-7.58H211V152.2h-2v5.31h-7.13v-.15h-2.43v1.52h-7.28v-8.64h.61v-.67l-1-.91v-3.7c.31,1.19.63,2.25,1,3.14V147c-2.48-7.76-4.66-25.45-5.71-35l-.22-8.87-.29-.52-.17-1.21-.52.23-.06.75-.58,1H183l-.17-.52h-.52l-.23.58H180l-.69-.35-.23-1.33h-.35l-.12.86-.4.29v4.29a113.48,113.48,0,0,1-6.37,17.54l-.05.09h0c-.27.54-.54,1.07-.81,1.58v-.1l-.21.38v.11c-.27.48-.54.93-.8,1.36v-.08l-.22.36v.06l-.2.31a40.56,40.56,0,0,1-2.63-4.64V124l-.23-.54v.3c-.26-.53-.52-1.09-.78-1.66v-.45l-.24-.56v.48q-.38-.85-.77-1.77v-.51l-.25-.58v.51q-.38-.91-.77-1.87v-.43l-.25-.59v.4q-.37-1-.76-2v-.23l-.26-.61V114q-3.76-10-8.28-25.15c-7.36-24.53-17.72-69.06-20-78.85l-.13-5.44-.76-1.38L133,0l-1.37.61-.15,2-1.53,2.6h-5.81l-.46-1.38h-1.38l-.61,1.53H116l-1.84-.92L113.54.92h-.92l-.31,2.29L111.24,4V5.19l-.16-.1c-.15.23-14.86,22.93-34,40.71a170.34,170.34,0,0,1-32.86,24L36.63,67.1l-17.2-7.74L18.5,59h0m169.59,95.79,0-1.69,2.26,1.69Zm3.16-12.05c.15.68.31,1.33.47,1.94v3.92l-.47-.44Zm-.54-2.54q.27,1.32.54,2.52h-.07v5.36l-.47-.44Zm-.54-2.84q.23,1.27.47,2.47v7.75l-.47-.43Zm-.54-3.13c.15.92.31,1.84.47,2.73v10.13l-.47-.43Zm-.54-3.43c.17,1.12.35,2.23.53,3.32h-.06v12.47l-.47-.42Zm-.54-3.72c.15,1.07.31,2.15.47,3.23v15.79l-.47-.42Zm-.54-4c.15,1.15.31,2.31.47,3.49v19.06l-.47-.42Zm-.07-.57V145.1l-.05-.05-.7-28.73C187.38,118.24,187.64,120.32,187.91,122.47Zm-1.82,32.31-2.33.11,1.82-2.14.49,0Zm-5.69-31v1.54c-.13.32-.27.64-.4,1l0-2Zm-.5-3.72-.09-5.22.27-.33h.17l.21,1.84h-.07v4.11h0Zm.5,6.47v4.77h0l-.3-.3-.06-3.59C180.15,127.13,180.27,126.83,180.4,126.53Zm0,8.14v4.15l-.2-.16-.06-3.75Zm1.8,14.25-1.36,1.59h-.46l0-2.85Zm1.54-12.24v-2.22h.47v4.76C184.05,138.39,183.89,137.55,183.74,136.68Zm.47,4.41v.84l-.47-.39v-2.79C183.89,139.56,184.05,140.34,184.21,141.09Zm-.47-9.86v-7.7l.47,0v7.72Zm0-10.93v-3.42q.24-.85.47-1.68v5.08Zm-1.5.07-.89,0c-.26-2.1-.5-4.1-.71-5.91l3.43-.12C183.52,116.35,182.9,118.4,182.24,120.38Zm1.12,14.09h.31v1.79C183.56,135.67,183.46,135.07,183.36,134.47Zm.31,3.9v3.11l-.47-.39v-5.33C183.35,136.65,183.51,137.52,183.67,138.37Zm-.47-7.13v-7.69l.47,0v7.7Zm0-10.91v-1.58h0q.25-.81.48-1.61v3.17Zm-.35,10.92c-.07-.44-.13-.88-.2-1.32v-6.35l.47,0v7.69Zm.27,4.08V141l-.47-.39v-6.16H183C183,134.77,183.07,135,183.12,135.33Zm-.43-15q.22-.69.43-1.38v1.36Zm-.11,14.13v6.09l-.47-.38v-5.7Zm-.47-3.22v-2.39c.12.8.23,1.59.35,2.39Zm0-5.12v-2.54l.47,0v5.84C182.42,128.33,182.26,127.24,182.11,126.15Zm-.54,5.13V125q.23,1.68.47,3.36v2.9Zm.47,3.22v5.64l-.47-.38v-5.25Zm-.27-10.87H182v2C181.94,124.95,181.85,124.28,181.76,123.63Zm-.74,7.67V125c.14-.34.27-.68.41-1,0,.15,0,.31.06.46v6.81Zm.47,3.22v5.19l-.47-.38v-4.8ZM181,120.44l-.49,0v-4.08C180.63,117.67,180.79,119,181,120.44Zm-.47,3.26.58,0c-.19.51-.39,1-.59,1.49v-1.45Zm.46,1.54v6.06h-.47v-4.94C180.64,126,180.79,125.62,180.95,125.23Zm-.4,9.31h.4v4.74l-.47-.38v-4.28Zm2.28,14.81,2.34,1.64v.16H181.3Zm1.93-25.88v7.73h-.47V123.5Zm-.47-3.2v-5.35l.15-.56h.32v5.89Zm.47,14.16v7.43q-.24-1.1-.47-2.28v-5.14Zm-.33,7.68-.14-.12v-.55Zm.87-27.57v5.56l-.14.14-.33,0v-5.89H185Zm-.15-2.93.15-.6v.46Zm-.22,11.86.37.35v7.37l0,0h-.45v-7.73Zm.17,11,.19.11v8.31l-.41-.35-.06-.29v-7.77Zm.88,9-.61-.52v-8.33l.52.3Zm-.12-12.68-.49.37v-7.24l.42.4Zm-.11-11.1-.38.38v-5.43l.33.24Zm-.08-8.52-.29.27v-.7l.28-1.16Zm-5.52-5,4.9.12.58.63v1.47c-.25,1-.53,2.18-.84,3.38l-4.46.1c-.26-2.34-.44-4.16-.54-5.18Zm-.19,5.64-.19-.17,0-1.9ZM175,118.55c1.37-3.78,2.46-7.53,3.17-10.13v21.41l-.13.2V110.39l-.17.49v19.41a11.2,11.2,0,0,1-.85,1.13V113.24l-.17.45v17.92a5.09,5.09,0,0,1-.84.75V115.82l-.18.43v16.22a2.5,2.5,0,0,1-.62.28l-.21,0Zm3.17,12.21v6.34l-.13-.1v-6.07Zm-.29.41v5.71l-.85-.64v-4.06A9.26,9.26,0,0,0,177.89,131.17Zm-1,1.18v3.76l-.84-.64V133A4.58,4.58,0,0,0,176.87,132.35Zm-1.86,1a2.93,2.93,0,0,0,.35-.05,2.66,2.66,0,0,0,.49-.19v2.26l-.84-.61Zm-1-12.12c.29-.71.56-1.43.83-2.15V132.8a2.76,2.76,0,0,1-.83,0Zm0,12.11a3,3,0,0,0,.83,0v1.24L174,134Zm-1-9.71c.28-.63.56-1.27.82-1.92v11a3.75,3.75,0,0,1-.82-.33Zm0,9.34a4,4,0,0,0,.82.31v.58l-.82-.58Zm-1-7.19c.28-.55.55-1.13.82-1.71v8.24a6,6,0,0,1-.82-.58Zm0,6.56a6.17,6.17,0,0,0,.82.53v.26l-.82-.58Zm-1-4.7c.27-.47.55-1,.81-1.47v5.36a10.52,10.52,0,0,1-.81-.83Zm0,3.78a10.16,10.16,0,0,0,.81.75v.23l-.81-.56Zm-1-2.16c.27-.4.54-.82.8-1.26v2.46c-.27-.31-.53-.65-.8-1Zm0,1q.41.51.8.94v.5l-.8-.55Zm-.37-.46.15.19v1l-.71-.49C169.2,130.27,169.39,130,169.57,129.79Zm-.64-.9.28.41c-.09.13-.19.24-.28.37Zm-1-1.59c.27.45.53.86.79,1.26V130l-.17.22-.62-.41Zm-1-1.79q.4.73.79,1.4v2.71l-.79-.52Zm-1-2c.26.53.52,1,.78,1.53v3.87l-.78-.51Zm-1-2.12c.26.57.52,1.11.77,1.63v5.22l-.77-.5Zm-1-2.28c.26.6.51,1.18.77,1.74v6.75l-.77-.48Zm-1-2.42.76,1.83V127l-.76-.48Zm-1-2.55c.25.65.51,1.3.76,1.92v10.27l-.76-.47Zm-1-2.67c.25.68.5,1.34.75,2v12.23l-.75-.45Zm-1-2.79c.25.7.5,1.39.74,2.05v14.34l-.74-.44Zm-1-2.89.74,2.12V124.5l-.74-.44Zm-1-3,.73,2.17v18.9l-.73-.43Zm-1-3.08.72,2.21V123.3l-.72-.41Zm-1-3.17.72,2.25v23.9l-.72-.4Zm-1-3.25.71,2.29v26.54l-.71-.4Zm-1-3.33.71,2.32v29.26l-.42-.23-.29-.52Zm-1-3.41.7,2.37v31.32l-.7-1.28Zm0,33.88.15.26-.15-.08Zm-1-37.4.69,2.42V118.4l-.69-1.34Zm0,35.6.69,1.24v.57l-.69-.37Zm-1-39.21.69,2.46v34.51l-.69-1.38Zm0,37.32.69,1.29v1.87l-.69-.36Zm-1-41,.68,2.49v36.11l-.68-1.42Zm0,39.05.68,1.33v3.26l-.68-.35Zm-1-42.82.68,2.52v37.72l-.68-1.46Zm0,40.77.68,1.37v4.75l-.68-.34Zm-1-44.6.67,2.54V110l-.67-1.49Zm0,42.47.67,1.41v6.32l-.67-.34Zm-1-46.35.66,2.55v40.91l-.66-1.53Zm0,44.16.66,1.45v8l-.66-.33Zm-1-48.09.66,2.55v42.48l-.66-1.55Zm0,45.82.66,1.48v9.69l-.66-.32Zm-1-49.81.65,2.56v44l-.65-1.57Zm0,47.47.65,1.51v11.5l-.65-.32Zm-1-51.5.65,2.57V100.5l-.65-1.59Zm0,49.1.65,1.54v13.38l-.65-.31Zm-1-53.16.64,2.57V98l-.64-1.61Zm0,50.7.64,1.56v15.33l-.64-.31Zm-1-54.8.63,2.57V95.37l-.63-1.63Zm0,52.27.63,1.58v17.35l-.63-.3Zm-1-56.41.63,2.56V92.72l-.63-1.65Zm0,53.82.63,1.6v19.43l-.63-.3Zm-1-58,.62,2.56V90l-.52-1.39-.1-.28Zm0,55.34.62,1.63v21.58l-.62-.29Zm-1-59.55.62,2.56V87.27l-.62-1.69Zm0,56.83.18.49.44,1.16v23.79l-.62-.29Zm-1-61.07L138.1,30V84.45l-.61-1.72Zm0,58.29.61,1.68v26.06l-.61-.29Zm-1-62.56.6,2.54V81.56l-.6-1.74Zm0,59.7.6,1.71V113l-.25-.12-.35-14.44Zm-.42-61.47V78.61l-.07-.2-1.56-64C134.89,16.38,135.43,18.73,136.06,21.38Zm-3.78,125.81H131L126,141.88l4.89-5.74,1.31-.05ZM130,13.36l.93,1,.11,11.34-1,1Zm0,21.35,1.14.83.13,12.78L130,49.58Zm0,24.59,1.38,1.3,0,4.16c-.47-1.48-.95-3-1.42-4.46Zm0,4.29c.48,1.51,1,3,1.46,4.51l.1,9.67-1.54,1.18h0Zm0,24.19,1.66.95.21,21.82-1.87-.87Zm2,37.66,0,4.34-.85,0L126,124.28l.55-.64Zm-4.41-66.92V79l-1.59,0V58.6Zm-1.59-11V34.39l1.59-.06V50l-.83,0Zm1.59,40v21l-1.59-.74V87.61Zm2-28.5-.06-.2.06.06Zm-1.6-45.62.48-.77.91,0,.21.23V27l-.21.19-1.39,0Zm0,20.87,1.39,0,.21.15V49.88l-1.6.08Zm0,24.18.37,0,1.23,3.87V79l-1.6,0Zm0,29.06,1.54,0,.05,0v21.94l-1.6-.74Zm-.4-60.29-1.59,0V16.58l1.59-2.5ZM116.44,12.39l10.37.25c-2,3.13-4.57,7.18-7.71,11.71-1.3-4.44-2.41-8.24-3.23-11.11Zm7.64,66.7V58.71l1.58-.08V79.05Zm1.58,8.53v20l-1.58-.73V87.66Zm-1.58-37.47v-5.7q.78,2.55,1.58,5.15v.47Zm0-9.13V34.46l1.58-.05V46.21Q124.85,43.58,124.08,41Zm0-13.67V19.64l1.58-2.42V27.32Zm-7.79,7.37,1.37,0V50.46l-.6,0-.94-.78V34.93Zm-.17-7.21V17.66c.47,1.61,1,3.38,1.54,5.29v3.48l-.77,1.09-.75,0Zm1.24,31.54.3,0v20.2h-.6l-.79-.79-.14-8.88V60.4Zm.15,28.77h.14v16.11l-1-.46-.24-14.64Zm3.4,34,2.38,2.5-5,5.85H117.1l-.16-9.59Zm-1.25-87.25V50.36l-1.55.08V34.66Zm-1.55-8.82V24.48l.27.92Zm.63,1.69.18-.25.07.25Zm.91-1.3v0Zm0,32.76V79.19l-1.55,0V59Zm0,28.83v17.08l-1.55-.72V87.81Zm1.44-53.21.56,1.88V50.27l-1.56.08V34.59Zm-1-7.12V25.53c.54-.77,1.05-1.53,1.56-2.27v4.15Zm1.56,31.39V79.15l-1.56,0V58.91Zm0,28.89v18.06l-1.56-.72V87.76Zm.43,18.26V87.71l1.57,0v19Zm0-26.84V58.81l1.57-.08V79.1Zm0-28.89V37.87l1.57,5.19v7.11Zm0-15.72,1.54-.05v5.16Zm0-7.12V22.62l1.57-2.34v7.09Zm-6.43-11.32v11l-.23-.21-.2-12.32Zm0,19.41v5.8l-.09-5.69Zm-1.76,119h3.6l0-1.92H119v-1.38h1.83v-2h-1.12l1.12-1.32v-3.07l-2.17,2.55h-1.33l-.18-11.22.51,0,3.16,3.32v-2.69h.19l-1.87-2v-.9h3.13l.21-2h-3l5.18-6.09,5.08,5.33v.76h-6.69l.23,2h6.46v.48l-5.17,6.07-.07-.08v3.23l.16-.19,5.51,5.78h-5.67v2h6v1.38h1.81l0,2.08h5.5l-.67-27.49c7.78,2.62,14.53,5.07,19.05,7a142.58,142.58,0,0,1,15.69,8.16h4v2.45l2.26,1.45v6.41h3.4l-.4-.41v-.34h4v.18l-1.95,2.29-.16-.17v6h-7v-5h-.15v4.69h-4.25v-6.09l-2.12-.91v2.6h-3.94v-4.29l-1.21-.52v3.9h-7.58v1.67h-5.46v-3.71l-2.73,3.29v6.34h-3v.45h-5.31V161.6h-10v-3.82l-1.21.25v3.72h-4.7v-1.06h-3.18v1.37H113.9Zm-2.66,4.05-1.07.46-.58,1.61-.84,0v3.85h-4.4v-1.82H98.88V158l-1.13-1.58v1.44H95.14v-.34H94v.76H91.3v1.37H86.75v-3l-2.67.5v2.28H78.4v-2L72.07,156,71,107c5.93,1.69,22.7,6.49,40.28,11.88Zm-1.1-149.4,1.1-1.6V35.2l-1.1,1.42Zm0,29.9,1.1-1.39V101l-1.1-.5Zm-2-27.06,1.5-2.13V37.25l-1.5,1.91Zm0,29.58c.51-.64,1-1.27,1.5-1.9v60.61l-1.5-.69Zm-2-26.82,1.49-2.06V39.79l-1.49,1.85Zm0,29.24c.5-.6,1-1.2,1.49-1.81V99.34l-1.49-.68Zm-2-26.56,1.48-2V42.26L104.17,44Zm0,28.93,1.48-1.76V98.42l-1.48-.68Zm-2-26.32,1.47-1.93V44.65l-1.47,1.73Zm0,28.61,1.47-1.7V97.5l-1.47-.67Zm-2-26.05,1.46-1.87V47l-1.46,1.66Zm0,28.28c.49-.54,1-1.07,1.46-1.62V96.59l-1.46-.67Zm-2-25.79,1.45-1.82v26l-1.45,1.6Zm0,28c.49-.52,1-1.05,1.45-1.58V95.67L98.2,95Zm-2-25.52,1.45-1.76V51.43l-1,1.1-.42.44Zm0,27.61,1.45-1.5V94.76l-1.45-.66Zm-2-25.24,1.44-1.7V53.54L94.22,55Zm0,27.26,1.44-1.45V93.85l-1.44-.65Zm-2-24.95,1.43-1.65V55.59L92.23,57Zm0,26.91,1.43-1.4V92.93l-1.43-.65Zm-2-24.65,1.42-1.6V57.57l-1.42,1.37Zm0,26.56,1.42-1.35V92l-1.42-.65Zm-2-24.36,1.41-1.55V59.5l-1.41,1.32Zm0,26.21,1.41-1.3V91.11l-1.41-.64Zm-2-24.07,1.4-1.49v24.1l-1.4,1.27Zm0,25.87,1.4-1.26V90.2l-1.4-.64Zm-2-23.79,1.39-1.44V63.18L84.27,64.4Zm0,25.53,1.39-1.21V89.29l-1.39-.63Zm-2-23.52,1.38-1.39V64.93l-1.38,1.18Zm0,25.2,1.38-1.17V88.38l-1.38-.63Zm-2-23.25,1.37-1.33V66.64l-1.37,1.14Zm0,24.89,1.37-1.12v18.9l-1.37-.62Zm-2-23,1.36-1.28V68.3L78.3,69.4Zm0,24.6,1.36-1.08V86.56l-1.36-.62Zm-2-22.78,1.35-1.23V69.91L76.31,71Zm0,24.33,1.35-1V85.65L76.31,85Zm-2-22.56,1.34-1.18V71.47l-1.34,1Zm0,24.06,1.34-1V84.75l-1.34-.61ZM72.33,52l1.33-1.14V73l-1.33,1Zm0,23.8,1.33-1v9l-1.33-.6Zm-2-22.13,1.32-1.1V74.45l-1.32.95Zm0,23.55,1.32-.93v6.65l-1.25-.57-.07-3Zm-2-21.93,1.31-1.06V74.36l-.8-.62-.51-2.48Zm-2,1.57,1.3-1V67.89l0-.12-1.28-.1Zm-2,1.52,1.29-1V67.61l-1.29-.1Zm-2,1.48,1.28-.95v9l-.77,2-.51,0Zm-2,1.44,1.27-.91V70l-1.22.08-.06,2Zm-2,1.4,1.26-.88V75.2l-1.26-.44ZM41.72,163.84l-1-.28V159.9l.34.16c.27,1.26.5,2.45.68,3.55Zm-1-5v-.27l.07.31Zm1-2.45c-.3-1.23-.63-2.5-1-3.8l1-.46Zm-1-4.85v-.7l.82.31Zm1-9-2.54,1.5,2-5.95.56.34Zm0-5.23-.24-.15.24-.73Zm0-3.93-1.09,3.27-3.15-1.91.15-.52,4.08-2.47Zm0-2.75L38,132.85,40,126.38l1.75.86Zm-1.42-12L38,120.51l1.64-3.78ZM40,113.29l0,0,0,0Zm.62,6.33.19.54L39.38,125l-2.74-1.36.54-1.24Zm1.08,6.55-1.46-.72,1.11-3.71.36,1.05Zm0-9-.14.46,0,0-1-2.95.35-.82.85.59Zm0-3.86-.46-.32.46-1.07Zm1.61,51c-.08-.53-.16-1.07-.26-1.64l.36-1.45,1.22.58.09,2.9Zm.34-4,.82-3.33.13,3.78Zm1-28.67c.84,2.63,1.66,5.27,2.41,7.83l-.94.56-1.22-.74Zm1.16-3.39-.81-.4-.18-.55,1.59-4.78.54,5Zm1.26.36,0,.28-.27-.13Zm.27,11.82.12.41-.41-.25Zm-2.4,0,.24.15-.23.14Zm0,1.38,1.13-.67,1.15.7-1.87,7.55-.16.08Zm2.64,22.37-1.38,1-.49-.14-.09-2.71,2,.93Zm0-2-2-1-.25-7.69.2-.79,2.06.79Zm0-9.68-1.83-.7.43-1.73,1.4-.66Zm0-4.15-1.1.52,1.1-4.45Zm0-12.22c-.67-2.19-1.37-4.4-2.08-6.6l.3-.18,1.37.68.4,3.7Zm0-11.39-.48-4.42.16-.48.32.94Zm0-8.9,0,.14L47,114.44l.55-.45Zm3.67,45.81-1.95,1.36-.75-.36v-8.73l2.33.89q.23,1.26.37,2.38Zm-1.75-13.13c.46,1.84.85,3.58,1.16,5.17l-2.12-.81v-3.91Zm-1-.62v-3q.38,1.37.71,2.7Zm2.7,1.5c-.12-.5-.24-1-.37-1.53l.37-.18Zm0-2.77-.61.29q-.45-1.73-.95-3.56l1.56.95Zm0-3.46-1.94-1.18c-.18-.63-.36-1.26-.54-1.9l.47-.05-.08-.71L51.26,138Zm0-6.2-2.2,1.31-.5-4.59v-3L51.24,132l0,.06ZM49.66,127c.4,1.24.8,2.49,1.19,3.73l-2.29-1.13v-1.93Zm-1.1-.46v-2.9l.79,2.42Zm2.7.54-.28-.88.28-.17Zm0-2.18-.59.35c-.65-2-1.31-4-2-5.88l2.54,1.77Zm0-4.94L48.56,118v-2.13l.67-2-.67-.22v-.48l2.15-1.74c.35.5.55.82.55.82ZM56.4,64l1.25-.85V74.5l-1.25-.44Zm-2,1.32,1.24-.82v9.25l-1.24-.44Zm-2,1.28,1.23-.79v7.24l-1.23-.43Zm-2,1.24,1.23-.76v5.27L50.43,72ZM48.56,112v-3.13c.62.66,1.15,1.31,1.58,1.86Zm-.12-42.91,1.21-.72v3.34l-1.21-.43Zm-.79.46V71l-1.57-.55Zm-.06,38.35v4.88l-.89.72-.46-1.32-.64-5.87A15.85,15.85,0,0,1,47.59,107.87Zm-1.9,8.18-.34-.24.29-.24Zm-1.24-10.46.11.06.27,2.55-.69-1.92Zm-1.77,1,.12.33-.12.28Zm0,3,.6-1.38c.68,1.89,1.41,4,2.18,6.18l-.94.76L42.69,114Zm0,5.47,1,.73-1,.85Zm0,2.82,1.87-1.52,1.27.88.3,2.82-1.78,5.35h-.13c-.51-1.54-1-3.06-1.53-4.55Zm1.61,33.21-.31-.12.31-.14Zm-1.61-25.51.39,1.18-.39-.19Zm0,2.06.79.39-.61,1.82-.18.11Zm0,5.81.93-2.8.26,7.89-1.19-.72Zm0,5.5,1.23.75,0,1.44-1.28.76Zm0,4.07,1.32-.78.25,7.54-1.52.72,0,0Zm0,8.56.08,0,1.56.6,0,1.14-1.6,6.45-.09,0Zm-4.11-46.32.14-.08a5.84,5.84,0,0,1,3-.5v4.72l-1.27,2.94-1-.69c-.58-1.63-1.13-3.14-1.62-4.49Zm-1.55,4,.32.89-.53-.37Zm-.76-2.09.26.71L36,109.32l-.91-.63C35.49,108.17,35.88,107.69,36.26,107.27ZM34,110.11l.46-.65,1.13.79L34,114.37ZM34,117l2.41-6.23,1.45,1,1.26,3.56-2.79,6.44-1.31,1.06-1-.5Zm0,6.4.19.09-.19.15Zm0,1.48,1.14-.92.19.1L34,127.19Zm0,4.69,2.2-5.08,2.84,1.41-2.28,7.64-.62.37-1.42-.86L34,130.93Zm2.29,5.56-.42,1.4-.36-1.11.63-.38Zm-1.08-.65h0v0Zm-6.74-14.9v0h0Zm-2.77,5.63c.73-1.55,1.51-3.15,2.32-4.75L29,121l1.19,3.39-1.38,3.58-1.11.89-1.95-1.18Zm5.44,2c.41,1.19.83,2.41,1.25,3.66l-.28.64-3-1.83.46-1.19Zm-.88-.53.37-1,.18.52Zm.61-4.8.17.09-.08.19Zm-5.17,6.87,1.15.69-1.15.93Zm0,2.86,2-1.64.18.11-2.21,5.71Zm0,6.87,3-7.89,3,1.81-2.46,5.7-3.56,2.15Zm-1,4.74-.85,0,.35-.92.49-.3Zm0-4.92-1.28,3.31-1.61,1-1.25-.48v-5.34l.64-1.54,3.49-2.82Zm0-7.15-2.69,2.17c.63-1.46,1.44-3.31,2.38-5.34l.31.19Zm1,12.12V141.4l2.9-1.75-1.6,3.7Zm7.32.34-5-.23,2-4.61,3-1.81Zm0-7.78-2.34,1.41,1.88-4.33.46.28Zm0-7.75-.64-1.86.64-.52Zm0-3.62-1,.79-.59-1.67.45-1.17,1.11.55Zm0-2.58-.76-.38.76-2Zm0-5-1.63,4.22-1-.49-1-2.78c1.19-2.23,2.41-4.38,3.61-6.26Zm1,19.52.19-.11c.31.95.62,1.9.92,2.85L34,142.87Zm2,9.51-1.47-1.47,1.1-3.67c.48,1.52.95,3,1.4,4.53Zm1.18.42.14-.08,0,.09Zm-.79-8.12.75-2.51,3.12,1.89-2.09,6.27C37.65,142,37.05,140.09,36.45,138.21Zm2.26,7.26v0l3-1.78v6.52l-1-.39v-3.22L39,146.45C38.9,146.12,38.81,145.8,38.71,145.47Z"
          transform="translate(-18.21)"/>
    <path d="M200.32,150l-.35-.12a4.22,4.22,0,0,1-.53,1v.59A4.41,4.41,0,0,0,200.32,150Z"
          transform="translate(-18.21)"/>
    <polygon points="182.72 152.7 181.22 153.05 181.22 157.35 183.65 157.35 183.65 152.48 182.72 152.7"/>
    <polygon points="190.78 150.84 190.78 152.2 192.75 152.2 192.75 150.38 190.78 150.84"/>
    <polygon
            points="203.82 154.5 201.49 154.5 201.49 152.44 200.32 151.66 197.6 150.3 197.6 153.56 197.45 153.56 197.45 161.15 204.58 161.15 204.58 157.2 203.82 157.2 203.82 154.5"/>
    <polygon
            points="213.07 156.75 211.25 156.75 211.25 159.33 215.5 159.33 215.5 150.36 213.07 151.83 213.07 156.75"/>
    <polygon
            points="228.24 152.65 228.24 150.73 223.74 148.41 222.02 148.41 222.02 147.51 221.03 147 220.5 147.32 220.5 152.65 228.24 152.65"/>
    <polygon
            points="231.27 152.3 229.75 151.52 229.75 152.65 228.24 152.65 228.24 157.51 234 157.51 234 155.23 231.27 155.23 231.27 152.3"/>
    <polygon points="229.75 151.52 228.24 150.73 228.24 152.65 229.75 152.65 229.75 151.52"/>
    <polygon points="222.02 148.41 223.74 148.41 222.02 147.51 222.02 148.41"/>
    <polygon points="211.25 156.75 211.25 152.94 209.43 154.04 209.43 156.75 211.25 156.75"/>
    <polygon points="213.07 151.83 211.25 152.94 211.25 156.75 213.07 156.75 213.07 151.83"/>
    <polygon
            points="196.18 149.59 193.35 150.24 193.35 152.2 192.75 152.2 192.75 153.56 197.45 153.56 197.45 150.23 196.18 149.59"/>
    <polygon points="193.35 150.24 192.75 150.38 192.75 152.2 193.35 152.2 193.35 150.24"/>
    <polygon points="197.6 150.3 197.45 150.23 197.45 153.56 197.6 153.56 197.6 150.3"/>
    <polygon
            points="204.58 154.5 204.58 154.5 204.58 157.2 206.85 157.2 206.85 155.61 206.53 155.8 204.58 154.5"/>
    <rect x="203.82" y="154.5" width="0.76" height="2.7"/>
    <polygon points="234 153.71 234 155.23 235.97 155.23 235.97 154.73 234 153.71"/>
    <polygon points="231.27 152.3 231.27 155.23 234 155.23 234 153.71 231.27 152.3"/>
    <polygon points="235.97 155.23 235.97 161.9 247.95 161.9 247.95 160.33 237.03 155.23 235.97 155.23"/>
    <polygon points="236.04 154.77 235.97 154.73 235.97 155.23 237.03 155.23 236.04 154.77"/>
    <polygon
            points="189.56 151.12 186.83 151.75 186.83 157.35 183.65 157.35 183.65 157.51 190.78 157.51 190.78 152.2 189.56 152.2 189.56 151.12"/>
    <polygon points="186.83 151.75 183.65 152.48 183.65 157.35 186.83 157.35 186.83 151.75"/>
    <polygon points="189.56 151.12 189.56 152.2 190.78 152.2 190.78 150.84 189.56 151.12"/>
    <path d="M197.76,152.32v-.38a2.73,2.73,0,0,1-1.37-.19v.39A3.06,3.06,0,0,0,197.76,152.32Z"
          transform="translate(-18.21)"/>
    <path d="M197.76,153.44l-.87.2-.5-.5v3h-3.64v-5.91h-.61v8.64h7.28v-1.52h-1.67Z"
          transform="translate(-18.21)"/>
    <polygon points="179.56 153.44 179.56 157.35 181.22 157.35 181.22 153.05 179.56 153.44"/>
    <path d="M198.14,152.26a2.79,2.79,0,0,0,1.29-.81v-.59a2.62,2.62,0,0,1-1.39,1l-.27,0v.38A2.53,2.53,0,0,0,198.14,152.26Z"
          transform="translate(-18.21)"/>
    <path d="M193.62,150l-.34-.11,0,.12-.47-.45v.67h.78l.09-.22.15.22h.44a11.23,11.23,0,0,1-1.45-3.24v1.09A12,12,0,0,0,193.62,150Z"
          transform="translate(-18.21)"/>
    <path d="M196.4,156.14v-3c-.87-.89-1.81-1.84-2.88-2.87l0,0h-.78v5.91Z" transform="translate(-18.21)"/>
    <path d="M196.4,152.15v-.39a6.61,6.61,0,0,1-1.9-1.22,2.26,2.26,0,0,1-.29-.31h-.44a2.93,2.93,0,0,0,.49.59A6.7,6.7,0,0,0,196.4,152.15Z"
          transform="translate(-18.21)"/>
    <path d="M176.08,155.24v5h7v-6l-1.47-1.54h-3.4v2.49Zm4.55-2.5,2.1,2.2-2.25.1,0-2.29Z"
          transform="translate(-18.21)"/>
    <polygon points="153.47 153.84 153.47 159.93 157.72 159.93 157.72 155.25 156.84 155.28 153.47 153.84"/>
    <path d="M175.92,142.34h-4c1.37.82,2.71,1.64,4,2.45Z" transform="translate(-18.21)"/>
    <polygon
            points="147.94 154.06 147.94 151.47 147.4 151.24 147.4 155.53 151.35 155.53 151.35 152.93 148.89 151.88 147.94 154.06"/>
    <path d="M157.45,145.45c-.14.14-.35.37-.63.69v8.49h7.58v-3.9l-3.85-1.65S159,143.9,157.45,145.45Z"
          transform="translate(-18.21)"/>
    <path d="M155.91,147.18c-1.18,1.37-2.84,3.35-4.55,5.4v3.71h5.46v-1.67h-.91Z" transform="translate(-18.21)"/>
    <path d="M155.91,147.18v7.44h.91v-8.49Z" transform="translate(-18.21)"/>
    <path d="M145.59,162.21h3v-6.34l-3,3.67Z" transform="translate(-18.21)"/>
    <path d="M144.23,161.2l-.24.29-2.64-.59v.69h-1.06v1.06h5.31v-.45h-1.37Z" transform="translate(-18.21)"/>
    <path d="M144.23,161.2v1h1.37v-2.66Z" transform="translate(-18.21)"/>
    <polygon
            points="107.95 158.16 106.31 157.07 106.31 160.69 106.15 160.69 106.15 161.75 110.86 161.75 110.86 158.03 109.27 158.36 107.95 158.16"/>
    <polygon
            points="112.92 157.6 112.07 157.78 112.07 161.6 122.08 161.6 122.08 158.75 120.88 157.91 119.66 155.31 119.64 154.63 114.14 154.63 114.15 155.15 112.92 157.6"/>
    <polygon
            points="123.14 160.91 122.46 160.76 122.41 158.98 122.08 158.75 122.08 161.6 123.14 161.6 123.14 160.91"/>
    <polygon
            points="106.31 140.35 103.9 137.83 103.7 137.77 103.72 137.64 102.85 136.73 102.67 136.73 102.67 139.42 105.08 141.95 102.67 144.79 102.67 147.86 106.31 143.59 106.31 140.35"/>
    <polygon
            points="104.2 157.6 104.19 157.61 102.97 157.43 102.97 160.69 106.15 160.69 106.15 157 104.2 157.6"/>
    <rect x="102.67" y="149.18" width="3.64" height="1.99"/>
    <polygon points="106.31 157.07 106.19 156.99 106.15 157 106.15 160.69 106.31 160.69 106.31 157.07"/>
    <polygon
            points="102.97 160.69 102.67 160.69 102.67 157.38 102.49 157.35 100.22 158.21 99.31 155.77 99.28 154.47 95.69 154.47 95.69 162.06 102.97 162.06 102.97 160.69"/>
    <polygon points="102.67 157.38 102.67 160.69 102.97 160.69 102.97 157.43 102.67 157.38"/>
    <polygon
            points="87.81 162.66 86.14 162.66 86.14 164.48 90.53 164.48 90.53 160.63 87.81 160.75 87.81 162.66"/>
    <polygon points="82.82 160.98 80.68 157.98 80.68 162.66 86.14 162.66 86.14 160.83 82.82 160.98"/>
    <polygon points="87.81 160.75 86.14 160.83 86.14 162.66 87.81 162.66 87.81 160.75"/>
    <polygon points="75.82 154.38 75.82 157.51 76.93 157.51 76.93 153.98 75.82 154.38"/>
    <polygon
            points="71.73 155.84 70.39 156.32 68.54 156.67 68.54 159.63 73.09 159.63 73.09 158.26 71.73 158.26 71.73 155.84"/>
    <polygon
            points="74.61 154.81 73.09 155.35 73.09 158.26 75.82 158.26 75.82 157.51 74.61 157.51 74.61 154.81"/>
    <polygon points="74.61 154.81 74.61 157.51 75.82 157.51 75.82 154.38 74.61 154.81"/>
    <polygon points="71.73 155.84 71.73 158.26 73.09 158.26 73.09 155.35 71.73 155.84"/>
    <polygon points="147.94 154.06 148.89 151.88 147.94 151.47 147.94 154.06"/>
    <polygon points="104.86 131.89 104.32 131.89 104.11 133.88 105.08 133.88 104.86 131.89"/>
    <polygon points="103.7 137.77 103.9 137.83 103.72 137.64 103.7 137.77"/>
    <polygon points="78.7 157.51 76.93 157.51 76.93 157.85 79.55 157.85 79.55 156.4 78.7 155.22 78.7 157.51"/>
    <polygon points="78.7 155.22 77.64 153.73 76.93 153.98 76.93 157.51 78.7 157.51 78.7 155.22"/>
    <polygon points="60.2 157.44 60.2 159.45 65.87 159.45 65.87 157.17 62.11 157.87 60.2 157.44"/>
    <polygon points="203.82 154.5 203.82 153.99 201.49 152.44 201.49 154.5 203.82 154.5"/>
    <polygon points="204.58 154.5 204.58 154.5 204.58 154.5 204.58 154.5"/>
    <polygon points="204.58 154.5 204.58 154.5 203.82 153.99 203.82 154.5 204.58 154.5"/>
    <polygon points="41.81 171.34 46.35 170.94 39.73 171.32 41.81 171.34"/>
    <path d="M52,176.06l-.26-.29-5.44.16Z" transform="translate(-18.21)"/>
    <path d="M75.06,187.13h6a14.43,14.43,0,0,1,.36-1.85l-5.52-.14Z" transform="translate(-18.21)"/>
    <path d="M87,187.16l6.18,0c-.39-.24-.77-.47-1.13-.68C90.12,185.44,88.57,186.13,87,187.16Z"
          transform="translate(-18.21)"/>
</svg>