<svg xmlns="http://www.w3.org/2000/svg" style="display:none">
  <symbol id="_9" viewBox="0 0 132.55 172.84">
    <path d="M62.3,142.23q11.47,0,16.65-9.11t5.17-30q-4.28,4.05-12.6,7A52.53,52.53,0,0,1,54,113q-23.62,0-37.8-12.83T2,61.57Q2,35.81,17.08,20.92T58.25,6.11q35.1,0,48.15,22.95a86.56,86.56,0,0,1,9,26,183.49,183.49,0,0,1,2.7,33.3,273.89,273.89,0,0,1-1.5,31.15,100.89,100.89,0,0,1-5.4,23.06,46.81,46.81,0,0,1-10.46,17.21q-13.5,14-40.84,14T19.6,159.33q-13-14.4-13.5-36H41.83Q44.52,142.23,62.3,142.23ZM38.9,59.54a23.61,23.61,0,0,0,5.29,15.52q5.28,6.41,15.52,6.41t15.75-5.74Q81,70,81,59.53t-5.62-16.2q-5.63-5.74-15.52-5.74T44.41,44A23,23,0,0,0,38.9,59.54Z" transform="translate(-1 -4.11)"/>
  </symbol>

  <symbol id="_8" viewBox="0 0 132.55 172.84">
    <path d="M5.85,49.11q0-18.45,14.85-31.73T62.75,4.11q27.22,0,42,13.39t14.7,31.84q0,23.4-20.93,35.1,25,12.15,25,40.72,0,23.63-17.32,37.69t-43.35,14.1q-26,0-43.43-14.17T2,125.16Q2,96.59,27,84.44,5.85,72.74,5.85,49.11Zm79,73.84q0-9.67-5.74-15.75t-16.42-6.08q-10.69,0-17.1,5.85t-6.41,15.86q0,10,6.19,16.31t17.1,6.3q10.91,0,16.65-6.41T84.85,122.95Zm-2.7-68.17q0-8.78-5.29-14T63,35.61q-8.55,0-14.06,5.17T43.4,54.85Q43.4,63.74,49,69a19.29,19.29,0,0,0,13.72,5.29,19.08,19.08,0,0,0,13.73-5.36q5.62-5.44,5.62-14.21Z" transform="translate(-1 -4.11)"/>
  </symbol>

  <symbol id="_7" viewBox="0 0 132.55 172.84">
    <path d="M3,10.11H111.44V38.46L52.94,172.33H11.32L72.77,41.61H3Z" transform="translate(-1 -4.11)"/>
  </symbol>

  <symbol id="_6" viewBox="0 0 132.55 172.84">
    <path d="M61.18,38.61q-24.75,0-25,42.3A31.73,31.73,0,0,1,51.06,70.56,55.87,55.87,0,0,1,70,67.19q22.5,0,36.34,13.95t13.84,39.15q0,25.2-14.85,40T65,175.18q-32.85,0-47.92-20T2,91.93Q2,7.11,61.85,7.11,86.6,7.11,100,20.5t15.86,33.41H80.08Q76.93,38.61,61.18,38.61Zm21.55,83.25a24.69,24.69,0,0,0-5.51-16.31q-5.52-6.63-16-6.64t-16.31,5.85q-5.85,5.85-5.85,16.31t6.67,16.65a23.16,23.16,0,0,0,16.42,6.19q9.79,0,15.19-6.19T82.73,121.86Z" transform="translate(-1 -4.11)"/>
  </symbol>

  <symbol id="_5" viewBox="0 0 132.55 172.84">
    <path d="M5.82,9.11h102.6V42.86H40.7v28.8q10.13-9,25.76-9T92.9,67.72q10.8,5.05,16.42,13.39a62.22,62.22,0,0,1,11,35.33q0,26.32-15.52,41.74t-42.51,15.4q-27,0-42.64-12.94A47.84,47.84,0,0,1,2,127.23H40a16.14,16.14,0,0,0,7,10.69q5.85,4.17,15.75,4.16t15.19-6.64q5.29-6.67,5.29-17.67t-5.51-17.1Q72.19,94.6,63,94.59T48.91,98.53a16.27,16.27,0,0,0-6,9.79H5.82Z" transform="translate(-1 -4.11)"/>
  </symbol>

  <symbol id="_4" viewBox="0 0 132.55 172.84">
    <path d="M77.61,172.11V142.86H2V111.81l71.1-101.7h43v99.45h18.45v33.3H116.08v29.25Zm2.7-62.55V53.76l-35.55,55.8Z" transform="translate(-1 -4.11)"/>
  </symbol>

  <symbol id="_3" viewBox="0 0 132.55 172.84">
    <path d="M59.15,40q-15.53,0-17.1,16.65H4.7Q4.7,33,19.89,20T60.28,7.11q25.2,0,39.15,12.37t14,31.5q0,15.08-7.31,24.52t-15,12.6V89q25.2,9.68,25.2,38.93,0,22-14.74,34.76T60.84,175.41q-26,0-42.41-13.27T2,122.54H39.35q.22,9.9,5.63,15.64t15,5.74q9.56,0,14.4-5.17T79.22,124q0-9.56-6.75-14.29t-22-4.72h-7.2V73.7h7.2q25.65,0,25.65-18,0-7.2-4.61-11.47T59.15,40Z" transform="translate(-1 -4.11)"/>
  </symbol>

  <symbol id="_2" viewBox="0 0 132.55 172.84">
    <path d="M2.44,171.11V142.55q6.08-5.4,17.1-14.85t17.13-14.75q6.07-5.28,14.17-13.27A113.13,113.13,0,0,0,63,86.06Q73.54,71.44,73.55,60.64q0-19.09-16.88-19.09-8.1,0-12.83,5.74t-4.72,16.5H2q0-27,15.64-40.84t41-13.84q25.42,0,39.6,14.51a48.26,48.26,0,0,1,14.17,35q0,15.53-6.75,27.23-4,6.75-7,11.47A74.82,74.82,0,0,1,89,109q-6.75,7-9.9,10.13t-11.59,10.8q-8.44,7.65-10.69,9.9h58.5v31.28Z" transform="translate(-1 -4.11)"/>
  </symbol>

  <symbol id="_1" viewBox="0 0 132.55 172.84">
    <path d="M28.22,169.86v-124H1V10.11H68V169.86Z" transform="translate(-1 -4.11)"/>
  </symbol>

  <symbol id="_0" viewBox="0 0 64.24 163.45">
    <path d="M71.5,9.51v36h2.38l.86.08.66.09.72.12.71.13.77.18.49.12.55.16,1.07.34.77.27,1.22.5.81.38.75.39.75.4.63.38.7.46L86,50l.85.67.86.76.73.73.6.64.56.67.63.82.53.84.64,1.15.6,1.19.33.72.45,1,.29.74.28.77.43,1.3.38,1.33.36,1.53L95,66.72l.45,2.21.35,2,.28,2,.22,1.86.16,1.78.14,2,.11,2,.08,2,.06,2.24V97.57l-.08,2.28-.1,2.05-.14,2.23-.2,1.87-.23,2.06-.29,2.1-.29,1.68L95.1,114l-.43,1.92-.46,1.93-.19.72-.12.42-.12.39-.16.51-.19.58-.18.51-.24.62-.24.6-.22.51-.24.53-.24.51-.25.49-.35.68-.43.8-.41.69-.33.55-.31.42-.41.54-.44.54-.35.4-.35.38-.32.33-.36.35-.43.39-.35.31-.44.37-.39.31-.39.29-.36.26-.41.28-.41.26-.38.23-1,.54-1.2.64-1,.41-.81.31-.8.28-.8.25-1,.27-1.2.25-.8.13-1,.14-.8.06-1,.06h-.57l-.1,36h2.42l1.39-.05,1.62-.09,2.52-.21,2.38-.28,2.31-.33,2.84-.53,1.79-.39,1.41-.36,2.09-.59,1-.31L96,168l1.82-.69,1.69-.71,1-.49,2.84-1.4,3.65-2.17,2.47-1.75,2.87-2.38,2.93-2.86,3-3.46,2.24-3.16,1.91-3.16,1.86-3.4,1.75-3.62,1.65-3.87,1-2.68,1.15-3.51.91-3.22.88-3.72.69-3.42.58-3.33.4-2.68.71-5.23.31-3.47.22-3.62.11-2.84.09-2.32V85.91L134.61,83l-.19-3.15-.19-2.65L134,74.6l-.34-2.82-.32-2.41L133,67l-.44-2.55-.46-2.53-.51-2.41-.71-3L130.21,54l-.75-2.45-1-2.85-1-2.59-.93-2.24-1.1-2.47-1-2.14-1.31-2.48-1.14-2-1.22-2-1.33-1.92-1.27-1.68L117,27.75l-1.29-1.48-1.58-1.65-1.31-1.21-1.33-1.18-1.28-1-1.92-1.44-1.8-1.21-1.9-1.17-1.73-.94-2.06-1-1.6-.72-2-.84-1.85-.68-2-.67L91.66,12l-2-.51-1.39-.29-1.39-.28-1.59-.31L83.9,10.4l-1.74-.25L80.68,10,79,9.81l-2.52-.17-2.81-.11Z" transform="translate(-71.5 -9.51)"/>
  </symbol>
</svg>
