<svg xmlns="http://www.w3.org/2000/svg">
    <symbol id="index_bg_1" viewBox="0 0 23.05 24.74">
        <g>
            <polygon
                    points="10.18 15.21 13.67 18.71 11.53 20.86 15.05 24.38 15 24.43 11.42 20.86 13.57 18.71 10.18 15.32 8.69 16.8 7.39 15.5 7.45 15.45 8.69 16.7 10.18 15.21"/>
            <circle cx="15.02" cy="24.41" r="0.2" transform="translate(-12.86 17.77) rotate(-44.99)"/>
            <circle cx="11.49" cy="20.87" r="0.2" transform="translate(-11.39 14.24) rotate(-45)"/>
            <circle cx="7.44" cy="15.49" r="0.16" transform="translate(-8.77 9.76) rotate(-44.89)"/>
            <circle cx="13.64" cy="18.73" r="0.2" transform="translate(-9.25 15.13) rotate(-45)"/>
            <circle cx="10.16" cy="15.25" r="0.2" transform="translate(-7.81 11.65) rotate(-45)"/>
            <circle cx="8.69" cy="16.71" r="0.12" transform="translate(-9.29 11.09) rotate(-45.17)"/>
        </g>
        <g>
            <polygon
                    points="3.73 6.82 7.23 10.32 5.08 12.47 8.6 15.99 8.55 16.04 4.97 12.46 7.12 10.32 3.73 6.93 2.24 8.41 0.94 7.11 1 7.06 2.24 8.3 3.73 6.82"/>
            <circle cx="8.58" cy="16.02" r="0.2" transform="translate(-8.8 10.73) rotate(-44.9)"/>
            <circle cx="5.04" cy="12.48" r="0.2" transform="translate(-7.35 7.22) rotate(-45)"/>
            <circle cx="0.99" cy="7.1" r="0.16" transform="translate(-4.74 2.79) rotate(-45.12)"/>
            <circle cx="7.19" cy="10.34" r="0.2" transform="translate(-5.2 8.11) rotate(-45)"/>
            <circle cx="3.71" cy="6.86" r="0.2" transform="translate(-3.76 4.63) rotate(-45)"/>
            <circle cx="2.24" cy="8.32" r="0.12" transform="translate(-5.24 4.04) rotate(-45.16)"/>
        </g>
        <g>
            <polygon
                    points="10.4 10.39 13.9 13.89 11.76 16.03 15.28 19.56 15.23 19.61 11.65 16.03 13.8 13.89 10.4 10.5 8.92 11.98 7.62 10.68 7.68 10.63 8.92 11.87 10.4 10.39"/>
            <circle cx="15.25" cy="19.58" r="0.2" transform="translate(-9.38 16.52) rotate(-45)"/>
            <circle cx="11.72" cy="16.05" r="0.2" transform="translate(-7.92 12.99) rotate(-45)"/>
            <circle cx="7.67" cy="10.67" r="0.16" transform="translate(-5.3 8.55) rotate(-45)"/>
            <circle cx="13.87" cy="13.91" r="0.2" transform="translate(-5.77 13.88) rotate(-45)"/>
            <circle cx="10.39" cy="10.43" r="0.2" transform="translate(-4.33 10.4) rotate(-45)"/>
            <circle cx="8.92" cy="11.89" r="0.13" transform="translate(-5.8 9.79) rotate(-44.99)"/>
        </g>
        <g>
            <polygon
                    points="22.59 16.91 22.64 16.96 21.4 18.2 22.88 19.69 19.39 23.19 17.24 21.04 13.72 24.57 13.66 24.51 17.24 20.93 19.39 23.08 22.78 19.69 21.29 18.21 22.59 16.91"/>
            <circle cx="13.69" cy="24.54" r="0.2" transform="translate(-13.34 16.87) rotate(-45)"/>
            <circle cx="17.22" cy="21" r="0.2" transform="translate(-9.81 18.38) rotate(-45.1)"/>
            <circle cx="22.6" cy="16.95" r="0.16" transform="translate(-5.37 20.95) rotate(-45)"/>
            <circle cx="19.37" cy="23.15" r="0.2" transform="translate(-10.7 20.48) rotate(-45)"/>
            <circle cx="22.85" cy="19.67" r="0.2" transform="translate(-7.22 21.87) rotate(-44.9)"/>
            <circle cx="21.38" cy="18.21" r="0.12" transform="translate(-6.61 20.45) rotate(-45)"/>
        </g>
        <g>
            <polygon
                    points="11.36 5.67 11.41 5.73 10.17 6.97 11.65 8.46 8.15 11.95 6.01 9.81 2.48 13.33 2.43 13.28 6.01 9.7 8.15 11.85 11.54 8.46 10.06 6.97 11.36 5.67"/>
            <circle cx="2.46" cy="13.3" r="0.2" transform="translate(-8.69 5.64) rotate(-45.01)"/>
            <circle cx="5.99" cy="9.77" r="0.2" transform="translate(-5.16 7.1) rotate(-45)"/>
            <circle cx="11.37" cy="5.72" r="0.16" transform="translate(-0.7 9.76) rotate(-45.25)"/>
            <circle cx="8.14" cy="11.92" r="0.2" transform="translate(-6.04 9.24) rotate(-45)"/>
            <circle cx="11.62" cy="8.44" r="0.2" transform="translate(-2.56 10.69) rotate(-45.01)"/>
            <circle cx="10.15" cy="6.97" r="0.12" transform="translate(-1.96 9.18) rotate(-44.84)"/>
        </g>
        <g>
            <polygon
                    points="17.93 7.53 17.98 7.58 16.74 8.83 18.22 10.31 14.72 13.81 12.58 11.66 9.05 15.18 9 15.13 12.58 11.55 14.72 13.7 18.11 10.31 16.63 8.83 17.93 7.53"/>
            <circle cx="9.03" cy="15.16" r="0.2" transform="translate(-8.07 10.82) rotate(-45)"/>
            <circle cx="12.52" cy="11.59" r="0.2" transform="translate(-4.53 12.25) rotate(-45)"/>
            <circle cx="17.94" cy="7.57" r="0.16" transform="translate(-0.1 14.91) rotate(-45.01)"/>
            <circle cx="14.71" cy="13.77" r="0.2" transform="translate(-5.43 14.43) rotate(-45)"/>
            <circle cx="18.19" cy="10.29" r="0.2" transform="translate(-1.95 15.88) rotate(-45.01)"/>
            <circle cx="16.72" cy="8.83" r="0.12" transform="translate(-1.36 14.36) rotate(-44.84)"/>
        </g>
        <g>
            <polygon
                    points="9.18 1.02 9.23 1.07 7.98 2.32 9.47 3.8 5.97 7.3 3.82 5.15 0.3 8.68 0.25 8.62 3.82 5.04 5.97 7.19 9.36 3.8 7.88 2.32 9.18 1.02"/>
            <circle cx="0.27" cy="8.65" r="0.2" transform="translate(-6.04 2.73) rotate(-45)"/>
            <circle cx="3.81" cy="5.12" r="0.2" transform="translate(-2.5 4.19) rotate(-45.01)"/>
            <circle cx="9.19" cy="1.06" r="0.16" transform="translate(1.93 6.8) rotate(-44.94)"/>
            <circle cx="5.95" cy="7.26" r="0.2" transform="translate(-3.39 6.34) rotate(-45.01)"/>
            <circle cx="9.43" cy="3.78" r="0.2" transform="translate(0.08 7.76) rotate(-44.9)"/>
            <circle cx="7.97" cy="2.32" r="0.12" transform="translate(0.69 6.31) rotate(-44.99)"/>
        </g>
        <g>
            <polygon
                    points="16.12 0.12 16.17 0.17 14.93 1.42 16.41 2.9 12.91 6.4 10.77 4.25 7.24 7.78 7.19 7.72 10.77 4.14 12.91 6.29 16.3 2.9 14.82 1.42 16.12 0.12"/>
            <circle cx="7.22" cy="7.75" r="0.2" transform="translate(-3.37 7.39) rotate(-45.1)"/>
            <circle cx="10.75" cy="4.22" r="0.2" transform="translate(0.17 8.84) rotate(-45)"/>
            <circle cx="16.13" cy="0.16" r="0.16" transform="translate(4.61 11.45) rotate(-45)"/>
            <circle cx="12.9" cy="6.36" r="0.2" transform="translate(-0.72 10.98) rotate(-45)"/>
            <circle cx="16.38" cy="2.88" r="0.2" transform="translate(2.75 12.41) rotate(-44.95)"/>
            <circle cx="14.91" cy="1.42" r="0.13" transform="translate(3.34 10.93) rotate(-44.84)"/>
        </g>
        <g>
            <polygon
                    points="15.81 7.93 15.83 7.95 15.27 8.52 15.94 9.19 14.36 10.77 13.39 9.8 11.8 11.39 11.77 11.36 13.39 9.75 14.36 10.72 15.89 9.19 15.22 8.52 15.81 7.93"/>
            <circle cx="11.78" cy="11.38" r="0.09" transform="translate(-4.59 11.6) rotate(-44.78)"/>
            <circle cx="13.38" cy="9.78" r="0.09" transform="translate(-3 12.32) rotate(-44.99)"/>
            <circle cx="15.81" cy="7.95" r="0.07" transform="translate(-0.99 13.51) rotate(-45.02)"/>
            <circle cx="14.35" cy="10.75" r="0.09" transform="translate(-3.4 13.3) rotate(-45.01)"/>
            <circle cx="15.92" cy="9.18" r="0.09" transform="translate(-1.82 13.95) rotate(-45.02)"/>
            <circle cx="15.26" cy="8.52" r="0.06" transform="translate(-1.55 13.29) rotate(-45.01)"/>
        </g>
        <g>
            <polygon
                    points="9.7 4.39 9.68 4.36 10.24 3.8 9.57 3.13 11.15 1.55 12.12 2.52 13.71 0.93 13.73 0.95 12.12 2.57 11.15 1.6 9.62 3.13 10.29 3.8 9.7 4.39"/>
            <circle cx="13.72" cy="0.94" r="0.09" transform="translate(3.34 9.96) rotate(-44.89)"/>
            <circle cx="12.13" cy="2.54" r="0.09" transform="translate(1.76 9.32) rotate(-45.01)"/>
            <circle cx="9.69" cy="4.37" r="0.07" transform="translate(-0.25 8.13) rotate(-44.99)"/>
            <circle cx="11.16" cy="1.57" r="0.09" transform="translate(2.16 8.35) rotate(-45)"/>
            <circle cx="9.58" cy="3.14" r="0.09" transform="translate(0.59 7.69) rotate(-44.99)"/>
            <circle cx="10.25" cy="3.8" r="0.06" transform="translate(0.31 8.36) rotate(-45.01)"/>
        </g>
        <g>
            <polygon
                    points="15.04 22.55 15 22.52 15.89 21.63 14.83 20.57 17.32 18.07 18.86 19.61 21.37 17.09 21.41 17.13 18.86 19.68 17.32 18.15 14.9 20.57 15.96 21.63 15.04 22.55"/>
            <circle cx="21.39" cy="17.11" r="0.14" transform="translate(-5.84 20.07) rotate(-44.86)"/>
            <circle cx="18.87" cy="19.63" r="0.14" transform="translate(-8.35 19.09) rotate(-45)"/>
            <circle cx="15.03" cy="22.52" r="0.12" transform="translate(-11.51 17.15) rotate(-44.83)"/>
            <circle cx="17.34" cy="18.1" r="0.14" transform="translate(-7.72 17.56) rotate(-45.01)"/>
            <circle cx="14.85" cy="20.58" r="0.14" transform="translate(-10.2 16.54) rotate(-45.01)"/>
            <circle cx="15.9" cy="21.63" r="0.09" transform="translate(-10.64 17.58) rotate(-45)"/>
        </g>
        <g>
            <polygon
                    points="15.02 10.43 15.05 10.39 15.94 11.28 17 10.22 19.5 12.71 17.96 14.24 20.48 16.76 20.44 16.8 17.89 14.24 19.42 12.71 17 10.29 15.94 11.35 15.02 10.43"/>
            <circle cx="20.47" cy="16.81" r="0.14" transform="translate(-5.89 19.39) rotate(-45)"/>
            <circle cx="17.94" cy="14.26" r="0.14" transform="translate(-4.83 16.8) rotate(-44.86)"/>
            <circle cx="15.05" cy="10.42" r="0.12" transform="translate(-2.97 13.64) rotate(-44.84)"/>
            <circle cx="19.47" cy="12.73" r="0.14" transform="translate(-3.3 17.49) rotate(-45)"/>
            <circle cx="16.99" cy="10.24" r="0.14" transform="translate(-2.27 15.01) rotate(-45.01)"/>
            <circle cx="15.94" cy="11.29" r="0.09" transform="translate(-3.3 14.65) rotate(-45.22)"/>
        </g>
        <g>
            <polygon
                    points="12.39 2.82 12.43 2.78 13.32 3.67 14.38 2.61 16.87 5.11 15.34 6.64 17.85 9.15 17.82 9.19 15.27 6.64 16.8 5.11 14.38 2.69 13.32 3.75 12.39 2.82"/>
            <circle cx="17.84" cy="9.17" r="0.14" transform="translate(-1.26 15.3) rotate(-45.01)"/>
            <circle cx="15.32" cy="6.65" r="0.14" transform="translate(-0.22 12.78) rotate(-45)"/>
            <circle cx="12.42" cy="2.82" r="0.12" transform="translate(1.65 9.61) rotate(-45.01)"/>
            <circle cx="16.85" cy="5.12" r="0.14" transform="translate(1.29 13.38) rotate(-44.87)"/>
            <circle cx="14.36" cy="2.64" r="0.14" transform="translate(2.34 10.93) rotate(-45)"/>
            <circle cx="13.32" cy="3.68" r="0.09" transform="translate(1.27 10.45) rotate(-44.79)"/>
        </g>
        <g>
            <polygon
                    points="0.71 11.22 0.74 11.18 1.63 12.07 2.69 11.01 5.19 13.51 3.65 15.04 6.17 17.55 6.13 17.59 3.58 15.04 5.11 13.51 2.69 11.09 1.63 12.15 0.71 11.22"/>
            <circle cx="6.15" cy="17.57" r="0.14" transform="translate(-10.62 9.5) rotate(-45.01)"/>
            <circle cx="3.63" cy="15.05" r="0.14" transform="translate(-9.58 6.98) rotate(-45.01)"/>
            <circle cx="0.74" cy="11.21" r="0.12" transform="translate(-7.74 3.83) rotate(-45.17)"/>
            <circle cx="5.2" cy="13.49" r="0.14" transform="translate(-8.01 7.59) rotate(-44.86)"/>
            <circle cx="2.68" cy="11.04" r="0.14" transform="translate(-7.03 5.15) rotate(-45.14)"/>
            <circle cx="1.63" cy="12.08" r="0.09" transform="translate(-8.04 4.66) rotate(-44.77)"/>
        </g>
        <g>
            <polygon
                    points="16.95 19.84 16.96 19.83 17.34 20.2 17.79 19.75 18.86 20.82 18.21 21.47 19.28 22.54 19.26 22.56 18.17 21.47 18.82 20.82 17.79 19.79 17.34 20.24 16.95 19.84"/>
            <circle cx="19.27" cy="22.55" r="0.06" transform="translate(-10.3 20.25) rotate(-45.03)"/>
            <circle cx="18.19" cy="21.48" r="0.06" transform="translate(-9.86 19.17) rotate(-45.03)"/>
            <circle cx="16.96" cy="19.84" r="0.05" transform="translate(-9.06 17.8) rotate(-44.98)"/>
            <circle cx="18.85" cy="20.82" r="0.06" transform="translate(-9.21 19.57) rotate(-45.3)"/>
            <circle cx="17.79" cy="19.77" r="0.06" transform="translate(-8.76 18.22) rotate(-44.67)"/>
            <circle cx="17.34" cy="20.21" r="0.04" transform="translate(-9.23 18.44) rotate(-45.55)"/>
        </g>
        <g>
            <polygon
                    points="13.38 14.61 13.39 14.6 13.77 14.98 14.22 14.53 15.29 15.59 14.63 16.24 15.7 17.31 15.69 17.33 14.6 16.24 15.25 15.59 14.22 14.56 13.77 15.01 13.38 14.61"/>
            <circle cx="15.7" cy="17.32" r="0.06" transform="translate(-7.65 16.17) rotate(-45)"/>
            <circle cx="14.62" cy="16.25" r="0.06" transform="translate(-7.21 15.1) rotate(-45)"/>
            <circle cx="13.39" cy="14.61" r="0.05" transform="translate(-6.42 13.89) rotate(-45.41)"/>
            <circle cx="15.27" cy="15.59" r="0.06" transform="translate(-6.55 15.37) rotate(-45.01)"/>
            <circle cx="14.22" cy="14.54" r="0.06" transform="translate(-6.12 14.31) rotate(-45)"/>
            <circle cx="13.77" cy="14.98" r="0.04" transform="translate(-6.56 14.11) rotate(-44.95)"/>
        </g>
        <g>
            <polygon
                    points="6.02 11.75 6.04 11.74 6.47 12.17 6.99 11.65 8.2 12.87 7.46 13.62 8.68 14.84 8.66 14.86 7.42 13.62 8.17 12.87 6.99 11.69 6.47 12.21 6.02 11.75"/>
            <circle cx="8.67" cy="14.85" r="0.07" transform="translate(-7.96 10.48) rotate(-45.01)"/>
            <circle cx="7.44" cy="13.62" r="0.07" transform="translate(-7.43 9.18) rotate(-44.72)"/>
            <circle cx="6.03" cy="11.75" r="0.06" transform="translate(-6.54 7.71) rotate(-45)"/>
            <circle cx="8.19" cy="12.88" r="0.07" transform="translate(-6.7 9.56) rotate(-44.99)"/>
            <circle cx="6.98" cy="11.66" r="0.07" transform="translate(-6.2 8.35) rotate(-45.01)"/>
            <circle cx="6.47" cy="12.18" r="0.04" transform="translate(-6.71 8.14) rotate(-45.01)"/>
        </g>
        <g>
            <polygon
                    points="18.9 15.7 18.92 15.72 18.49 16.14 19 16.65 17.8 17.84 17.07 17.11 15.87 18.31 15.85 18.3 17.07 17.07 17.8 17.81 18.96 16.65 18.45 16.14 18.9 15.7"/>
            <circle cx="15.86" cy="18.3" r="0.07" transform="translate(-8.3 16.58) rotate(-45.01)"/>
            <circle cx="17.06" cy="17.1" r="0.07" transform="translate(-7.09 16.95) rotate(-44.71)"/>
            <circle cx="18.9" cy="15.71" r="0.06" transform="translate(-5.57 17.97) rotate(-45)"/>
            <circle cx="17.8" cy="17.83" r="0.07" transform="translate(-7.4 17.94) rotate(-45.3)"/>
            <circle cx="18.99" cy="16.64" r="0.07" transform="translate(-6.21 18.3) rotate(-45)"/>
            <circle cx="18.49" cy="16.14" r="0.04" transform="translate(-5.99 17.98) rotate(-45.43)"/>
        </g>
        <g>
            <polygon
                    points="12.46 9.88 12.44 9.86 12.86 9.44 12.36 8.93 13.55 7.73 14.28 8.47 15.49 7.26 15.5 7.28 14.28 8.5 13.55 7.77 12.39 8.93 12.9 9.44 12.46 9.88"/>
            <circle cx="15.5" cy="7.27" r="0.07" transform="translate(-0.6 13.09) rotate(-45.01)"/>
            <circle cx="14.29" cy="8.48" r="0.07" transform="translate(-1.83 12.51) rotate(-44.71)"/>
            <circle cx="12.45" cy="9.86" r="0.06" transform="translate(-3.33 11.69) rotate(-44.99)"/>
            <circle cx="13.56" cy="7.75" r="0.07" transform="translate(-1.51 11.86) rotate(-45.01)"/>
            <circle cx="12.37" cy="8.93" r="0.07" transform="translate(-2.71 11.28) rotate(-44.71)"/>
            <circle cx="12.87" cy="9.44" r="0.04" transform="translate(-2.88 11.98) rotate(-45.44)"/>
        </g>
        <g>
            <polygon
                    points="2.61 10.7 2.6 10.69 2.93 10.36 2.54 9.96 3.47 9.03 4.04 9.6 4.98 8.66 5 8.67 4.04 9.63 3.47 9.06 2.56 9.96 2.96 10.36 2.61 10.7"/>
            <circle cx="4.99" cy="8.67" r="0.05" transform="translate(-4.67 6.07) rotate(-45)"/>
            <circle cx="4.05" cy="9.61" r="0.05" transform="translate(-5.58 5.61) rotate(-44.62)"/>
            <circle cx="2.61" cy="10.69" r="0.04" transform="translate(-6.79 4.97) rotate(-44.98)"/>
            <circle cx="3.47" cy="9.04" r="0.05" transform="translate(-5.37 5.1) rotate(-45)"/>
            <circle cx="2.55" cy="9.96" r="0.05" transform="translate(-6.3 4.72) rotate(-45.01)"/>
            <circle cx="2.94" cy="10.35" r="0.03" transform="translate(-6.46 5.11) rotate(-45.02)"/>
        </g>
        <g>
            <polygon
                    points="9.36 18.58 9.35 18.57 9.68 18.23 9.28 17.84 10.22 16.9 10.79 17.48 11.73 16.54 11.74 16.55 10.79 17.51 10.22 16.93 9.31 17.84 9.71 18.23 9.36 18.58"/>
            <circle cx="11.74" cy="16.54" r="0.05" transform="translate(-8.28 13.28) rotate(-45.38)"/>
            <circle cx="10.79" cy="17.49" r="0.05" transform="translate(-9.2 12.75) rotate(-45)"/>
            <circle cx="9.36" cy="18.57" r="0.04" transform="translate(-10.39 12.06) rotate(-45)"/>
            <circle cx="10.22" cy="16.91" r="0.05" transform="translate(-8.97 12.18) rotate(-45)"/>
            <circle cx="9.29" cy="17.84" r="0.05" transform="translate(-9.9 11.8) rotate(-45)"/>
            <circle cx="9.68" cy="18.23" r="0.03" transform="translate(-10.06 12.19) rotate(-45.02)"/>
        </g>
        <g>
            <polygon
                    points="7.58 10.37 7.56 10.36 7.99 9.93 7.48 9.42 8.68 8.23 9.41 8.96 10.61 7.76 10.63 7.78 9.41 9 8.67 8.27 7.52 9.42 8.02 9.93 7.58 10.37"/>
            <circle cx="10.62" cy="7.77" r="0.07" transform="translate(-2.38 9.79) rotate(-45.01)"/>
            <circle cx="9.41" cy="8.97" r="0.07" transform="translate(-3.59 9.22) rotate(-44.71)"/>
            <circle cx="7.58" cy="10.36" r="0.06" transform="translate(-5.09 8.31) rotate(-44.63)"/>
            <circle cx="8.68" cy="8.24" r="0.07" transform="translate(-3.29 8.55) rotate(-45)"/>
            <circle cx="7.49" cy="9.43" r="0.07" transform="translate(-4.47 8.06) rotate(-45.01)"/>
            <circle cx="7.99" cy="9.93" r="0.04" transform="translate(-4.68 8.56) rotate(-44.98)"/>
        </g>
        <g>
            <polygon
                    points="0.22 9.06 0.24 9.04 0.66 9.47 1.17 8.96 2.37 10.15 1.63 10.89 2.84 12.09 2.82 12.11 1.6 10.89 2.33 10.16 1.17 9 0.66 9.51 0.22 9.06"/>
            <circle cx="2.83" cy="12.1" r="0.07" transform="translate(-7.7 5.49) rotate(-44.71)"/>
            <circle cx="1.62" cy="10.89" r="0.07" transform="translate(-7.2 4.29) rotate(-44.73)"/>
            <circle cx="0.23" cy="9.06" r="0.05" transform="translate(-6.38 2.86) rotate(-45.36)"/>
            <circle cx="2.35" cy="10.16" r="0.07" transform="translate(-6.5 4.64) rotate(-44.99)"/>
            <circle cx="1.16" cy="8.97" r="0.07" transform="translate(-6 3.45) rotate(-45)"/>
            <circle cx="0.66" cy="9.47" r="0.04" transform="translate(-6.5 3.24) rotate(-44.99)"/>
        </g>
        <g>
            <polygon
                    points="18.45 14.78 18.5 14.83 14.93 18.41 12.78 16.26 9.39 19.65 10.87 21.14 9.57 22.44 9.52 22.38 10.77 21.14 9.28 19.65 12.78 16.16 14.93 18.3 18.45 14.78"/>
            <circle cx="18.48" cy="14.81" r="0.2" transform="translate(-5.06 17.4) rotate(-45)"/>
            <circle cx="14.95" cy="18.34" r="0.2" transform="translate(-8.59 15.98) rotate(-45.11)"/>
            <circle cx="9.57" cy="22.39" r="0.16" transform="translate(-13.01 13.28) rotate(-44.88)"/>
            <circle cx="12.8" cy="16.19" r="0.2" transform="translate(-7.7 13.76) rotate(-44.91)"/>
            <circle cx="9.32" cy="19.67" r="0.2" transform="translate(-11.18 12.35) rotate(-45)"/>
            <circle cx="10.78" cy="21.14" r="0.12" transform="translate(-11.79 13.81) rotate(-44.99)"/>
        </g>
        <rect x="7.43" y="15.26" width="0.04" height="5.12" transform="translate(-10.41 10.49) rotate(-45)"/>
        <circle cx="5.64" cy="16.01" r="0.22" transform="translate(-9.66 8.68) rotate(-45)"/>
        <polygon points="20.5 16.82 20.52 16.84 18.86 18.51 18.89 19.63 18.85 19.63 18.82 18.5 20.5 16.82"/>
        <polygon points="12.94 6.32 13.37 6.76 11.71 8.42 11.69 8.39 13.32 6.76 12.91 6.35 12.94 6.32"/>
        <polygon
                points="17.91 14.23 17.95 14.27 16.56 15.67 14.69 13.79 14.73 13.75 16.56 15.59 17.91 14.23"/>
        <polygon
                points="5.93 7.24 5.97 7.28 5.42 7.84 4.02 6.45 3.67 6.8 3.63 6.76 4.02 6.37 5.41 7.76 5.93 7.24"/>
        <polygon
                points="9.83 6.6 10.18 6.94 10.14 6.98 9.83 6.68 7.97 8.54 7.2 7.77 7.24 7.73 7.97 8.46 9.83 6.6"/>
        <polygon
                points="15.92 11.27 15.96 11.31 14.72 12.55 13.13 10.97 12.52 11.58 12.48 11.54 13.13 10.89 14.72 12.47 15.92 11.27"/>
        <polygon
                points="12.16 9.52 12.48 9.83 12.45 9.86 12.16 9.57 11.07 10.66 11.78 11.38 11.76 11.4 11.02 10.66 12.16 9.52"/>
        <polygon
                points="19.36 23.15 19.39 23.17 18.96 23.6 17.41 22.05 15.04 24.42 15.01 24.39 17.41 22 18.96 23.55 19.36 23.15"/>
        <polygon
                points="11.37 22.07 13.78 24.48 13.76 24.51 11.37 22.12 10.33 23.16 9.56 22.4 9.59 22.37 10.33 23.11 11.37 22.07"/>
        <polygon
                points="7.42 15.47 7.46 15.52 6.83 16.14 5.32 14.64 5.85 14.11 5.21 13.47 5.25 13.43 5.93 14.11 5.4 14.64 6.83 16.06 7.42 15.47"/>
        <polygon
                points="4.44 14.75 5.62 15.93 5.59 15.95 4.44 14.8 4.04 15.2 3.85 15.01 3.66 15.06 3.65 15.02 3.87 14.97 4.04 15.15 4.44 14.75"/>
        <polygon
                points="14.83 20.56 14.86 20.59 13.98 21.47 15.05 22.54 15.02 22.57 13.93 21.47 14.83 20.56"/>
        <polygon
                points="10.52 14.82 11.73 16.04 11.71 16.07 10.52 14.88 10.15 15.24 10.13 15.22 10.52 14.82"/>
        <polygon
                points="0.72 11.2 0.75 11.22 0.05 11.92 1.94 13.8 2.44 13.29 2.47 13.32 1.94 13.85 0 11.92 0.72 11.2"/>
        <polygon points="3.44 4.63 3.86 5.06 3.84 5.09 3.44 4.68 1 7.12 0.98 7.09 3.44 4.63"/>
        <polygon
                points="12.43 2.79 12.46 2.83 12.07 3.22 11.93 3.08 10.77 4.24 10.73 4.2 11.92 3 12.07 3.15 12.43 2.79"/>
        <polygon
                points="19.48 11.06 20.33 11.92 19.52 12.73 19.48 12.69 20.25 11.92 19.48 11.14 19.25 11.36 18.22 10.33 18.26 10.29 19.25 11.29 19.48 11.06"/>
    </symbol>

    <symbol id="index_bg_2" viewBox="0 0 23.05 24.74">
        <g>
            <polygon
                    points="9.73 15.65 12.84 18.76 10.93 20.67 14.06 23.8 14.01 23.85 10.83 20.67 12.74 18.76 9.73 15.75 8.41 17.07 7.25 15.91 7.3 15.87 8.41 16.97 9.73 15.65"/>
            <circle cx="14.04" cy="23.83" r="0.18" transform="translate(-12.74 16.9) rotate(-45)"/>
            <circle cx="10.9" cy="20.69" r="0.18" transform="translate(-11.44 13.76) rotate(-45)"/>
            <circle cx="7.29" cy="15.91" r="0.14" transform="translate(-9.11 9.82) rotate(-45)"/>
            <circle cx="12.8" cy="18.78" r="0.18" transform="translate(-9.53 14.55) rotate(-44.99)"/>
            <circle cx="9.71" cy="15.69" r="0.18" transform="translate(-8.25 11.46) rotate(-45)"/>
            <circle cx="8.41" cy="16.99" r="0.11" transform="translate(-9.55 10.92) rotate(-45.01)"/>
        </g>
        <polygon
                points="4 8.2 7.1 11.31 5.2 13.21 8.33 16.35 8.28 16.39 5.1 13.21 7.01 11.31 4 8.29 2.68 9.61 1.52 8.46 1.57 8.41 2.68 9.52 4 8.2"/>
        <circle cx="8.32" cy="16.37" r="0.18" transform="translate(-9.15 10.71) rotate(-45.11)"/>
        <circle cx="5.17" cy="13.23" r="0.18" transform="translate(-7.84 7.53) rotate(-45)"/>
        <circle cx="1.56" cy="8.45" r="0.14" transform="translate(-5.53 3.6) rotate(-45.14)"/>
        <circle cx="7.07" cy="11.32" r="0.18" transform="translate(-5.93 8.32) rotate(-45.01)"/>
        <circle cx="3.98" cy="8.23" r="0.18" transform="translate(-4.65 5.23) rotate(-45.01)"/>
        <circle cx="2.68" cy="9.53" r="0.11" transform="translate(-5.94 4.66) rotate(-44.82)"/>
        <g>
            <polygon
                    points="9.93 11.37 13.04 14.48 11.13 16.39 14.26 19.52 14.22 19.57 11.04 16.39 12.94 14.48 9.93 11.46 8.61 12.78 7.46 11.63 7.5 11.58 8.61 12.69 9.93 11.37"/>
            <circle cx="14.24" cy="19.54" r="0.18" transform="translate(-9.64 15.74) rotate(-44.88)"/>
            <circle cx="11.1" cy="16.4" r="0.18" transform="translate(-8.35 12.65) rotate(-45.01)"/>
            <circle cx="7.5" cy="11.62" r="0.14" transform="translate(-6.02 8.7) rotate(-45)"/>
            <circle cx="13.01" cy="14.49" r="0.18" transform="translate(-6.44 13.44) rotate(-45)"/>
            <circle cx="9.91" cy="11.4" r="0.18" transform="translate(-5.16 10.32) rotate(-44.9)"/>
            <circle cx="8.61" cy="12.7" r="0.11" transform="translate(-6.47 9.86) rotate(-45.18)"/>
        </g>
        <g>
            <polygon
                    points="20.76 17.16 20.81 17.21 19.7 18.32 21.02 19.63 17.91 22.74 16.01 20.84 12.87 23.97 12.83 23.92 16.01 20.74 17.91 22.65 20.93 19.64 19.61 18.32 20.76 17.16"/>
            <circle cx="12.85" cy="23.94" r="0.18" transform="translate(-13.17 16.1) rotate(-45.01)"/>
            <circle cx="15.99" cy="20.8" r="0.18" transform="translate(-10.03 17.45) rotate(-45.1)"/>
            <circle cx="20.77" cy="17.2" r="0.14" transform="translate(-6.08 19.72) rotate(-45)"/>
            <circle cx="17.9" cy="22.71" r="0.18" transform="translate(-10.82 19.36) rotate(-45.11)"/>
            <circle cx="20.99" cy="19.62" r="0.18" transform="translate(-7.72 20.59) rotate(-45)"/>
            <circle cx="19.69" cy="18.32" r="0.11" transform="translate(-7.19 19.29) rotate(-45)"/>
        </g>
        <g>
            <polygon
                    points="10.78 7.18 10.82 7.22 9.72 8.33 11.04 9.65 7.93 12.76 6.02 10.85 2.89 13.98 2.84 13.94 6.02 10.76 7.93 12.66 10.94 9.65 9.62 8.33 10.78 7.18"/>
            <circle cx="2.87" cy="13.96" r="0.18" transform="translate(-9.03 6.12) rotate(-45)"/>
            <circle cx="6.01" cy="10.82" r="0.18" transform="translate(-5.89 7.42) rotate(-45)"/>
            <circle cx="10.79" cy="7.22" r="0.14" transform="translate(-1.95 9.71) rotate(-44.86)"/>
            <circle cx="7.91" cy="12.73" r="0.18" transform="translate(-6.68 9.32) rotate(-45)"/>
            <circle cx="11.01" cy="9.63" r="0.18" transform="translate(-3.59 10.6) rotate(-44.99)"/>
            <circle cx="9.7" cy="8.33" r="0.11" transform="translate(-3.05 9.34) rotate(-45.17)"/>
        </g>
        <g>
            <polygon
                    points="16.62 8.83 16.66 8.87 15.56 9.98 16.88 11.3 13.77 14.41 11.86 12.5 8.73 15.63 8.68 15.58 11.86 12.4 13.77 14.31 16.78 11.3 15.46 9.98 16.62 8.83"/>
            <circle cx="8.71" cy="15.61" r="0.18" transform="translate(-8.5 10.76) rotate(-45.12)"/>
            <circle cx="11.81" cy="12.43" r="0.18" transform="translate(-5.33 11.99) rotate(-45)"/>
            <circle cx="16.63" cy="8.86" r="0.14" transform="translate(-1.4 14.35) rotate(-45)"/>
            <circle cx="13.75" cy="14.38" r="0.18" transform="translate(-6.14 13.89) rotate(-44.88)"/>
            <circle cx="16.85" cy="11.28" r="0.18" transform="translate(-3.04 15.25) rotate(-45.1)"/>
            <circle cx="15.54" cy="9.98" r="0.11" transform="translate(-2.5 13.92) rotate(-45.01)"/>
        </g>
        <g>
            <polygon
                    points="8.84 3.04 8.89 3.09 7.78 4.2 9.1 5.51 5.99 8.62 4.08 6.71 0.95 9.85 0.9 9.8 4.08 6.62 5.99 8.53 9 5.51 7.69 4.2 8.84 3.04"/>
            <circle cx="0.93" cy="9.82" r="0.18" transform="translate(-6.67 3.53) rotate(-44.99)"/>
            <circle cx="4.07" cy="6.68" r="0.18" transform="translate(-3.54 4.85) rotate(-45.12)"/>
            <circle cx="8.85" cy="3.08" r="0.14" transform="translate(0.41 7.15) rotate(-44.93)"/>
            <circle cx="5.97" cy="8.59" r="0.18" transform="translate(-4.32 6.74) rotate(-45)"/>
            <circle cx="9.07" cy="5.5" r="0.18" transform="translate(-1.24 8) rotate(-44.89)"/>
            <circle cx="7.76" cy="4.2" r="0.11" transform="translate(-0.69 6.72) rotate(-45.01)"/>
        </g>
        <g>
            <polygon
                    points="15.01 2.24 15.06 2.29 13.95 3.4 15.27 4.71 12.16 7.82 10.25 5.91 7.12 9.05 7.07 9 10.25 5.82 12.16 7.73 15.17 4.71 13.85 3.4 15.01 2.24"/>
            <circle cx="7.1" cy="9.02" r="0.18" transform="translate(-4.3 7.68) rotate(-45.12)"/>
            <circle cx="10.24" cy="5.88" r="0.18" transform="translate(-1.17 8.94) rotate(-44.89)"/>
            <circle cx="15.02" cy="2.28" r="0.14" transform="translate(2.8 11.3) rotate(-45.07)"/>
            <circle cx="12.14" cy="7.79" r="0.18" transform="translate(-1.95 10.87) rotate(-45)"/>
            <circle cx="15.24" cy="4.7" r="0.18" transform="translate(1.13 12.12) rotate(-44.88)"/>
            <circle cx="13.93" cy="3.39" r="0.11" transform="translate(1.68 10.84) rotate(-44.99)"/>
        </g>
        <g>
            <polygon
                    points="14.73 9.18 14.75 9.2 14.25 9.7 14.85 10.3 13.44 11.7 12.58 10.84 11.17 12.26 11.15 12.23 12.58 10.8 13.44 11.66 14.81 10.3 14.21 9.7 14.73 9.18"/>
            <circle cx="11.16" cy="12.25" r="0.08" transform="translate(-5.39 11.48) rotate(-45.01)"/>
            <circle cx="12.58" cy="10.83" r="0.08" transform="translate(-3.98 12) rotate(-44.78)"/>
            <circle cx="14.73" cy="9.2" r="0.06" transform="translate(-2.17 13.2) rotate(-45.31)"/>
            <circle cx="13.44" cy="11.69" r="0.08" transform="translate(-4.33 12.93) rotate(-45.01)"/>
            <circle cx="14.83" cy="10.29" r="0.08" transform="translate(-2.92 13.58) rotate(-45.26)"/>
            <circle cx="14.24" cy="9.7" r="0.05" transform="translate(-2.71 12.8) rotate(-44.6)"/>
        </g>
        <g>
            <polygon
                    points="9.3 6.03 9.28 6.01 9.78 5.51 9.19 4.92 10.59 3.51 11.45 4.38 12.87 2.96 12.89 2.98 11.45 4.42 10.59 3.56 9.23 4.92 9.82 5.51 9.3 6.03"/>
            <circle cx="12.88" cy="2.97" r="0.08" transform="translate(1.67 9.98) rotate(-45.01)"/>
            <circle cx="11.46" cy="4.39" r="0.08" transform="translate(0.25 9.39) rotate(-45.01)"/>
            <circle cx="9.3" cy="6.02" r="0.07" transform="translate(-1.53 8.33) rotate(-44.98)"/>
            <circle cx="10.6" cy="3.53" r="0.08" transform="translate(0.61 8.52) rotate(-44.98)"/>
            <circle cx="9.2" cy="4.92" r="0.08" transform="translate(-0.79 7.95) rotate(-45.01)"/>
            <circle cx="9.79" cy="5.51" r="0.05" transform="translate(-1.03 8.54) rotate(-45.02)"/>
        </g>
        <g>
            <polygon
                    points="14.05 22.18 14.01 22.15 14.8 21.36 13.86 20.42 16.08 18.2 17.44 19.56 19.68 17.32 19.71 17.36 17.44 19.63 16.08 18.27 13.93 20.42 14.87 21.36 14.05 22.18"/>
            <circle cx="19.69" cy="17.34" r="0.13" transform="translate(-6.5 19) rotate(-45)"/>
            <circle cx="17.45" cy="19.58" r="0.13" transform="translate(-8.74 18.08) rotate(-45.02)"/>
            <circle cx="14.04" cy="22.15" r="0.1" transform="translate(-11.53 16.33) rotate(-44.8)"/>
            <circle cx="16.09" cy="18.22" r="0.13" transform="translate(-8.17 16.72) rotate(-45)"/>
            <circle cx="13.89" cy="20.43" r="0.13" transform="translate(-10.36 15.73) rotate(-44.84)"/>
            <circle cx="14.82" cy="21.36" r="0.08" transform="translate(-10.74 16.63) rotate(-44.77)"/>
        </g>
        <g>
            <polygon
                    points="14.03 11.4 14.06 11.37 14.85 12.16 15.79 11.22 18.01 13.43 16.65 14.79 18.88 17.03 18.85 17.06 16.58 14.79 17.94 13.43 15.79 11.28 14.85 12.22 14.03 11.4"/>
            <circle cx="18.87" cy="17.07" r="0.13" transform="translate(-6.55 18.34) rotate(-45)"/>
            <circle cx="16.63" cy="14.81" r="0.13" transform="translate(-5.6 16.04) rotate(-44.86)"/>
            <circle cx="14.05" cy="11.4" r="0.1" transform="translate(-3.94 13.28) rotate(-45.01)"/>
            <circle cx="17.99" cy="13.45" r="0.13" transform="translate(-4.25 16.59) rotate(-44.84)"/>
            <circle cx="15.78" cy="11.24" r="0.13" transform="translate(-3.33 14.45) rotate(-45)"/>
            <circle cx="14.85" cy="12.17" r="0.08" transform="translate(-4.26 13.98) rotate(-44.75)"/>
        </g>
        <g>
            <polygon
                    points="11.7 4.64 11.73 4.61 12.52 5.4 13.46 4.46 15.68 6.68 14.32 8.04 16.55 10.27 16.52 10.3 14.25 8.04 15.61 6.68 13.46 4.53 12.52 5.47 11.7 4.64"/>
            <circle cx="16.53" cy="10.29" r="0.13" transform="translate(-2.44 14.65) rotate(-44.84)"/>
            <circle cx="14.29" cy="8.05" r="0.13" transform="translate(-1.5 12.46) rotate(-45)"/>
            <circle cx="11.72" cy="4.64" r="0.1" transform="translate(0.15 9.65) rotate(-45)"/>
            <circle cx="15.65" cy="6.69" r="0.13" transform="translate(-0.14 13.03) rotate(-45)"/>
            <circle cx="13.45" cy="4.48" r="0.13" transform="translate(0.75 10.79) rotate(-44.84)"/>
            <circle cx="12.52" cy="5.41" r="0.08" transform="translate(-0.18 10.38) rotate(-44.75)"/>
        </g>
        <g>
            <polygon
                    points="1.31 12.11 1.34 12.07 2.13 12.86 3.07 11.92 5.29 14.14 3.93 15.5 6.17 17.73 6.13 17.77 3.87 15.5 5.23 14.14 3.08 11.99 2.13 12.93 1.31 12.11"/>
            <circle cx="6.15" cy="17.75" r="0.13" transform="translate(-10.73 9.5) rotate(-44.84)"/>
            <circle cx="3.91" cy="15.51" r="0.13" transform="translate(-9.82 7.31) rotate(-45)"/>
            <circle cx="1.34" cy="12.1" r="0.1" transform="translate(-8.17 4.49) rotate(-45)"/>
            <circle cx="5.3" cy="14.13" r="0.13" transform="translate(-8.44 7.88) rotate(-44.99)"/>
            <circle cx="3.06" cy="11.94" r="0.13" transform="translate(-7.55 5.67) rotate(-45)"/>
            <circle cx="2.13" cy="12.87" r="0.08" transform="translate(-8.48 5.28) rotate(-45.01)"/>
        </g>
        <g>
            <polygon
                    points="15.75 19.77 15.76 19.76 16.1 20.09 16.5 19.69 17.44 20.64 16.86 21.22 17.81 22.17 17.8 22.18 16.83 21.22 17.41 20.64 16.5 19.72 16.1 20.12 15.75 19.77"/>
            <circle cx="17.81" cy="22.18" r="0.05" transform="translate(-10.47 19.09) rotate(-45)"/>
            <circle cx="16.85" cy="21.22" r="0.05" transform="translate(-10.05 17.97) rotate(-44.66)"/>
            <circle cx="15.76" cy="19.77" r="0.04" transform="translate(-9.36 16.92) rotate(-44.97)"/>
            <circle cx="17.43" cy="20.64" r="0.05" transform="translate(-9.49 18.39) rotate(-45.04)"/>
            <circle cx="16.49" cy="19.7" r="0.05" transform="translate(-9.08 17.26) rotate(-44.61)"/>
            <circle cx="16.1" cy="20.1" r="0.03" transform="translate(-9.5 17.26) rotate(-44.98)"/>
        </g>
        <g>
            <polygon
                    points="12.57 15.12 12.58 15.11 12.92 15.45 13.32 15.04 14.27 15.99 13.69 16.57 14.64 17.52 14.62 17.54 13.66 16.57 14.24 15.99 13.32 15.07 12.92 15.47 12.57 15.12"/>
            <circle cx="14.63" cy="17.53" r="0.05" transform="translate(-8.11 15.49) rotate(-45.01)"/>
            <circle cx="13.68" cy="16.58" r="0.05" transform="translate(-7.72 14.53) rotate(-45.02)"/>
            <circle cx="12.58" cy="15.12" r="0.04" transform="translate(-7.01 13.33) rotate(-45)"/>
            <circle cx="14.26" cy="16" r="0.05" transform="translate(-7.13 14.77) rotate(-45.02)"/>
            <circle cx="13.32" cy="15.05" r="0.05" transform="translate(-6.75 13.83) rotate(-45.02)"/>
            <circle cx="12.92" cy="15.45" r="0.03" transform="translate(-7.14 13.66) rotate(-44.98)"/>
        </g>
        <g>
            <polygon
                    points="6.03 12.58 6.05 12.57 6.43 12.95 6.89 12.49 7.97 13.57 7.31 14.23 8.4 15.32 8.38 15.34 7.28 14.24 7.94 13.57 6.89 12.53 6.43 12.98 6.03 12.58"/>
            <circle cx="8.39" cy="15.33" r="0.06" transform="translate(-8.38 10.42) rotate(-45)"/>
            <circle cx="7.3" cy="14.24" r="0.06" transform="translate(-7.93 9.33) rotate(-45)"/>
            <circle cx="6.05" cy="12.58" r="0.05" transform="translate(-7.12 7.96) rotate(-45.01)"/>
            <circle cx="7.96" cy="13.58" r="0.06" transform="translate(-7.27 9.6) rotate(-44.97)"/>
            <circle cx="6.89" cy="12.5" r="0.06" transform="translate(-6.82 8.53) rotate(-45)"/>
            <circle cx="6.43" cy="12.96" r="0.04" transform="translate(-7.28 8.34) rotate(-44.99)"/>
        </g>
        <g>
            <polygon
                    points="17.48 16.09 17.49 16.1 17.12 16.48 17.57 16.93 16.51 17.99 15.85 17.34 14.79 18.41 14.77 18.39 15.85 17.31 16.51 17.96 17.54 16.93 17.08 16.48 17.48 16.09"/>
            <circle cx="14.78" cy="18.4" r="0.06" transform="translate(-8.7 15.98) rotate(-45.35)"/>
            <circle cx="15.85" cy="17.33" r="0.06" transform="translate(-7.61 16.29) rotate(-45.02)"/>
            <circle cx="17.48" cy="16.1" r="0.05" transform="translate(-6.26 17.08) rotate(-45)"/>
            <circle cx="16.5" cy="17.98" r="0.06" transform="translate(-7.88 16.94) rotate(-45.02)"/>
            <circle cx="17.56" cy="16.92" r="0.06" transform="translate(-6.83 17.37) rotate(-45)"/>
            <circle cx="17.11" cy="16.48" r="0.04" transform="translate(-6.64 16.92) rotate(-44.99)"/>
        </g>
        <g>
            <polygon
                    points="11.75 10.92 11.73 10.9 12.11 10.52 11.66 10.07 12.73 9.01 13.38 9.66 14.45 8.59 14.46 8.61 13.38 9.69 12.73 9.04 11.7 10.07 12.15 10.52 11.75 10.92"/>
            <circle cx="14.45" cy="8.6" r="0.06" transform="translate(-1.82 12.83) rotate(-45.32)"/>
            <circle cx="13.38" cy="9.67" r="0.06" transform="translate(-2.92 12.29) rotate(-44.99)"/>
            <circle cx="11.75" cy="10.9" r="0.05" transform="translate(-4.27 11.5) rotate(-45)"/>
            <circle cx="12.73" cy="9.02" r="0.06" transform="translate(-2.63 11.74) rotate(-45.35)"/>
            <circle cx="11.67" cy="10.08" r="0.06" transform="translate(-3.7 11.29) rotate(-45.32)"/>
            <circle cx="12.12" cy="10.52" r="0.04" transform="translate(-3.89 11.65) rotate(-44.99)"/>
        </g>
        <g>
            <polygon
                    points="3.01 11.65 2.99 11.63 3.29 11.34 2.94 10.99 3.77 10.16 4.27 10.67 5.11 9.83 5.12 9.84 4.27 10.69 3.77 10.18 2.96 10.99 3.31 11.34 3.01 11.65"/>
            <circle cx="5.12" cy="9.84" r="0.05" transform="translate(-5.46 6.5) rotate(-45.03)"/>
            <circle cx="4.28" cy="10.67" r="0.05" transform="translate(-6.33 6.23) rotate(-45.42)"/>
            <circle cx="3" cy="11.64" r="0.04" transform="translate(-7.35 5.53) rotate(-44.99)"/>
            <circle cx="3.77" cy="10.17" r="0.05" transform="translate(-6.08 5.64) rotate(-45)"/>
            <circle cx="2.95" cy="10.99" r="0.05" transform="translate(-6.87 5.23) rotate(-44.6)"/>
            <circle cx="3.29" cy="11.34" r="0.03" transform="translate(-6.99 5.54) rotate(-44.38)"/>
        </g>
        <g>
            <polygon
                    points="9 18.65 8.99 18.64 9.29 18.34 8.93 17.99 9.76 17.16 10.27 17.67 11.11 16.83 11.12 16.85 10.27 17.69 9.76 17.19 8.96 17.99 9.31 18.34 9 18.65"/>
            <circle cx="11.11" cy="16.84" r="0.05" transform="translate(-8.65 12.79) rotate(-45)"/>
            <circle cx="10.28" cy="17.68" r="0.05" transform="translate(-9.49 12.44) rotate(-45)"/>
            <circle cx="9" cy="18.64" r="0.04" transform="translate(-10.54 11.82) rotate(-44.99)"/>
            <circle cx="9.77" cy="17.17" r="0.05" transform="translate(-9.28 11.93) rotate(-45)"/>
            <circle cx="8.94" cy="17.99" r="0.05" transform="translate(-10.11 11.61) rotate(-45.04)"/>
            <circle cx="9.29" cy="18.34" r="0.03" transform="translate(-10.25 11.94) rotate(-44.99)"/>
        </g>
        <g>
            <polygon
                    points="7.42 11.36 7.4 11.34 7.78 10.96 7.33 10.51 8.39 9.45 9.04 10.1 10.11 9.03 10.13 9.05 9.04 10.13 8.39 9.48 7.36 10.51 7.81 10.96 7.42 11.36"/>
            <circle cx="10.12" cy="9.04" r="0.06" transform="translate(-3.42 9.88) rotate(-45.32)"/>
            <circle cx="9.05" cy="10.11" r="0.06" transform="translate(-4.49 9.29) rotate(-44.68)"/>
            <circle cx="7.42" cy="11.34" r="0.05" transform="translate(-5.85 8.57) rotate(-45)"/>
            <circle cx="8.4" cy="9.46" r="0.06" transform="translate(-4.23 8.78) rotate(-45.32)"/>
            <circle cx="7.34" cy="10.52" r="0.06" transform="translate(-5.3 8.35) rotate(-45.35)"/>
            <circle cx="7.79" cy="10.96" r="0.04" transform="translate(-5.49 8.83) rotate(-45.47)"/>
        </g>
        <g>
            <polygon
                    points="0.88 10.19 0.9 10.17 1.27 10.55 1.72 10.1 2.79 11.16 2.13 11.81 3.2 12.88 3.19 12.9 2.1 11.81 2.75 11.16 1.72 10.13 1.27 10.58 0.88 10.19"/>
            <circle cx="3.19" cy="12.89" r="0.06" transform="translate(-8.18 6.03) rotate(-44.98)"/>
            <circle cx="2.12" cy="11.82" r="0.06" transform="translate(-7.74 4.96) rotate(-45.01)"/>
            <circle cx="0.89" cy="10.19" r="0.05" transform="translate(-6.94 3.62) rotate(-45.01)"/>
            <circle cx="2.77" cy="11.17" r="0.06" transform="translate(-7.12 5.29) rotate(-45.35)"/>
            <circle cx="1.72" cy="10.11" r="0.06" transform="translate(-6.64 4.17) rotate(-44.99)"/>
            <circle cx="1.27" cy="10.56" r="0.04" transform="translate(-7.15 4.07) rotate(-45.54)"/>
        </g>
        <g>
            <polygon
                    points="17.08 15.27 17.13 15.32 13.95 18.5 12.04 16.59 9.03 19.6 10.35 20.92 9.19 22.08 9.15 22.03 10.25 20.92 8.94 19.6 12.04 16.5 13.95 18.4 17.08 15.27"/>
            <circle cx="17.1" cy="15.29" r="0.18" transform="translate(-5.8 16.62) rotate(-45.12)"/>
            <circle cx="13.96" cy="18.43" r="0.18" transform="translate(-8.94 15.27) rotate(-45)"/>
            <circle cx="9.19" cy="22.04" r="0.14" transform="translate(-12.91 13) rotate(-45.13)"/>
            <circle cx="12.06" cy="16.53" r="0.18" transform="translate(-8.15 13.37) rotate(-45)"/>
            <circle cx="8.96" cy="19.62" r="0.18" transform="translate(-11.25 12.09) rotate(-45.01)"/>
            <circle cx="10.27" cy="20.92" r="0.11" transform="translate(-11.81 13.46) rotate(-45.19)"/>
        </g>
        <rect x="7.29" y="15.69" width="0.03" height="4.55" transform="translate(-10.56 10.43) rotate(-44.99)"/>
        <circle cx="5.7" cy="16.36" r="0.19" transform="translate(-9.89 8.79) rotate(-44.9)"/>
        <polygon points="18.9 17.08 18.93 17.11 17.44 18.59 17.47 19.58 17.43 19.58 17.41 18.57 18.9 17.08"/>
        <polygon points="12.18 7.75 12.57 8.14 11.1 9.62 11.07 9.59 12.52 8.14 12.15 7.78 12.18 7.75"/>
        <polygon points="16.6 14.79 16.64 14.82 15.4 16.06 13.73 14.39 13.77 14.36 15.4 15.99 16.6 14.79"/>
        <polygon points="5.96 8.57 5.99 8.61 5.5 9.1 4.25 7.86 3.94 8.18 3.91 8.14 4.25 7.79 5.5 9.03 5.96 8.57"/>
        <polygon points="9.42 8 9.73 8.31 9.69 8.34 9.42 8.07 7.76 9.72 7.08 9.04 7.11 9 7.76 9.65 9.42 8"/>
        <polygon
                points="14.83 12.15 14.87 12.19 13.76 13.29 12.35 11.88 11.81 12.43 11.77 12.39 12.36 11.81 13.76 13.22 14.83 12.15"/>
        <polygon
                points="11.49 10.59 11.78 10.88 11.75 10.9 11.49 10.64 10.52 11.61 11.16 12.25 11.13 12.27 10.47 11.61 11.49 10.59"/>
        <polygon
                points="17.89 22.71 17.92 22.73 17.54 23.11 16.15 21.73 14.05 23.84 14.02 23.81 16.15 21.68 17.54 23.06 17.89 22.71"/>
        <polygon
                points="10.79 21.75 12.93 23.89 12.91 23.91 10.79 21.79 9.86 22.72 9.18 22.04 9.21 22.02 9.86 22.67 10.79 21.75"/>
        <polygon
                points="7.27 15.89 7.31 15.92 6.75 16.48 5.41 15.14 5.88 14.67 5.32 14.11 5.35 14.07 5.96 14.67 5.48 15.14 6.75 16.41 7.27 15.89"/>
        <polygon
                points="4.63 15.24 5.68 16.29 5.65 16.32 4.63 15.29 4.27 15.64 4.11 15.48 3.94 15.52 3.93 15.48 4.12 15.44 4.27 15.6 4.63 15.24"/>
        <polygon points="13.87 20.41 13.89 20.43 13.11 21.21 14.06 22.17 14.04 22.19 13.06 21.21 13.87 20.41"/>
        <polygon points="10.03 15.31 11.11 16.39 11.09 16.41 10.03 15.36 9.71 15.68 9.68 15.66 10.03 15.31"/>
        <polygon
                points="1.32 12.09 1.35 12.11 0.73 12.73 2.4 14.4 2.85 13.95 2.88 13.97 2.4 14.45 0.68 12.73 1.32 12.09"/>
        <polygon points="3.74 6.25 4.12 6.63 4.09 6.66 3.74 6.3 1.57 8.46 1.55 8.44 3.74 6.25"/>
        <polygon
                points="11.72 4.61 11.76 4.65 11.41 5 11.28 4.87 10.25 5.9 10.22 5.87 11.28 4.8 11.41 4.93 11.72 4.61"/>
        <polygon
                points="17.99 11.97 18.75 12.73 18.03 13.45 17.99 13.41 18.68 12.73 17.99 12.04 17.8 12.24 16.88 11.32 16.91 11.28 17.79 12.17 17.99 11.97"/>
        <path d="M7,8a.32.32,0,1,1,0-.45A.32.32,0,0,1,7,8Zm-.42-.42a.28.28,0,1,0,.39,0A.28.28,0,0,0,6.55,7.56Z"/>
        <path
                d="M4.2,8.46A.32.32,0,1,1,4.2,8,.32.32,0,0,1,4.2,8.46ZM3.77,8a.28.28,0,1,0,.39,0A.28.28,0,0,0,3.77,8Z"/>
        <path
                d="M1.16,10a.32.32,0,1,1,0-.46A.32.32,0,0,1,1.16,10ZM.74,9.61a.28.28,0,1,0,.39,0A.28.28,0,0,0,.74,9.61Z"/>
        <path
                d="M1.79,8.69a.32.32,0,1,1,0-.46A.32.32,0,0,1,1.79,8.69Zm-.42-.42a.28.28,0,1,0,.39,0A.28.28,0,0,0,1.37,8.27Z"/>
        <path d="M8,4.42A.32.32,0,1,1,8,4,.32.32,0,0,1,8,4.42ZM7.59,4A.28.28,0,1,0,8,4,.28.28,0,0,0,7.59,4Z"/>
        <path
                d="M13.09,3.2a.32.32,0,1,1,0-.46A.32.32,0,0,1,13.09,3.2Zm-.42-.42a.28.28,0,1,0,.39,0A.28.28,0,0,0,12.67,2.77Z"/>
        <path
                d="M13.7,4.71a.32.32,0,1,1,0-.46A.32.32,0,0,1,13.7,4.71Zm-.42-.42a.28.28,0,1,0,.39,0A.28.28,0,0,0,13.28,4.29Z"/>
        <path
                d="M12.75,5.62a.32.32,0,1,1,0-.46A.32.32,0,0,1,12.75,5.62Zm-.42-.42a.28.28,0,1,0,.39,0A.28.28,0,0,0,12.33,5.19Z"/>
        <path
                d="M8.11,13.72a.23.23,0,1,1,0-.32A.23.23,0,0,1,8.11,13.72Zm-.3-.3a.2.2,0,1,0,.28,0A.2.2,0,0,0,7.81,13.42Z"/>
        <path
                d="M9.2,10.29a.23.23,0,1,1,0-.32A.23.23,0,0,1,9.2,10.29ZM8.9,10a.2.2,0,1,0,.28,0A.2.2,0,0,0,8.9,10Z"/>
        <path
                d="M7.5,10.66a.23.23,0,0,1-.32-.32.23.23,0,1,1,.32.32Zm-.3-.3a.2.2,0,0,0,0,.28.2.2,0,0,0,.28-.28A.2.2,0,0,0,7.2,10.36Z"/>
        <path
                d="M9.48,6.17a.23.23,0,1,1,0-.32A.23.23,0,0,1,9.48,6.17Zm-.3-.3a.2.2,0,1,0,.28,0A.2.2,0,0,0,9.18,5.87Z"/>
        <path
                d="M4.44,10.85a.23.23,0,1,1,0-.32A.23.23,0,0,1,4.44,10.85Zm-.3-.3a.2.2,0,1,0,.28,0A.2.2,0,0,0,4.14,10.55Z"/>
        <path
                d="M10.79,3.79a.32.32,0,1,1,0-.45A.32.32,0,0,1,10.79,3.79Zm-.42-.42a.28.28,0,1,0,.39,0A.28.28,0,0,0,10.37,3.36Z"/>
        <path
                d="M12.81,11.08a.32.32,0,1,1,0-.46A.32.32,0,0,1,12.81,11.08Zm-.42-.42a.28.28,0,1,0,.39,0A.28.28,0,0,0,12.39,10.65Z"/>
        <path
                d="M13,9.25a.32.32,0,1,1,0-.46A.32.32,0,0,1,13,9.25Zm-.42-.42a.28.28,0,1,0,.39,0A.28.28,0,0,0,12.54,8.83Z"/>
        <path
                d="M3.28,12.19a.32.32,0,1,1,0-.46A.32.32,0,0,1,3.28,12.19Zm-.42-.42a.28.28,0,1,0,.39,0A.28.28,0,0,0,2.85,11.76Z"/>
        <path
                d="M16.25,12.3a.32.32,0,1,1,0-.46A.32.32,0,0,1,16.25,12.3Zm-.42-.42a.28.28,0,1,0,.39,0A.28.28,0,0,0,15.83,11.88Z"/>
        <path
                d="M6.35,18a.32.32,0,1,1,0-.46A.32.32,0,0,1,6.35,18Zm-.42-.42a.28.28,0,1,0,.39,0A.28.28,0,0,0,5.93,17.56Z"/>
        <path
                d="M10.52,21.15a.32.32,0,1,1,0-.46A.32.32,0,0,1,10.52,21.15Zm-.42-.42a.28.28,0,1,0,.39,0A.28.28,0,0,0,10.09,20.73Z"/>
        <path
                d="M14.12,20.69a.32.32,0,1,1,0-.46A.32.32,0,0,1,14.12,20.69Zm-.42-.42a.28.28,0,1,0,.39,0A.28.28,0,0,0,13.7,20.26Z"/>
        <path
                d="M16.32,18.49a.32.32,0,1,1-.46-.46.32.32,0,0,1,.46.46Zm-.42-.42a.28.28,0,1,0,.39,0A.28.28,0,0,0,15.89,18.07Z"/>
        <path
                d="M17.6,14.31a.32.32,0,1,1,0-.46A.32.32,0,0,1,17.6,14.31Zm-.42-.42a.28.28,0,1,0,.39,0A.28.28,0,0,0,17.18,13.89Z"/>
        <path
                d="M12,19.93a.32.32,0,1,1,0-.46A.32.32,0,0,1,12,19.93Zm-.42-.42a.28.28,0,1,0,.39,0A.28.28,0,0,0,11.62,19.51Z"/>
        <path
                d="M13.06,24.15a.32.32,0,1,1,0-.46A.32.32,0,0,1,13.06,24.15Zm-.42-.42a.28.28,0,1,0,.39,0A.28.28,0,0,0,12.64,23.73Z"/>
        <path
                d="M17.67,19.81a.32.32,0,1,1,0-.45A.32.32,0,0,1,17.67,19.81Zm-.42-.42a.28.28,0,1,0,.39,0A.28.28,0,0,0,17.25,19.38Z"/>
        <path
                d="M19.07,17.28a.32.32,0,1,1,0-.46A.32.32,0,0,1,19.07,17.28Zm-.42-.42a.28.28,0,1,0,.39,0A.28.28,0,0,0,18.65,16.86Z"/>
        <path
                d="M19.94,18.56a.32.32,0,1,1,0-.46A.32.32,0,0,1,19.94,18.56Zm-.42-.42a.28.28,0,1,0,.39,0A.28.28,0,0,0,19.51,18.14Z"/>
        <path
                d="M16.2,21a.32.32,0,1,1,0-.45A.32.32,0,0,1,16.2,21Zm-.42-.42a.28.28,0,1,0,.39,0A.28.28,0,0,0,15.78,20.6Z"/>
        <path
                d="M14.26,24.06a.32.32,0,1,1,0-.46A.32.32,0,0,1,14.26,24.06Zm-.42-.42a.28.28,0,1,0,.39,0A.28.28,0,0,0,13.83,23.63Z"/>
        <path
                d="M18.13,23a.32.32,0,1,1,0-.45A.32.32,0,0,1,18.13,23Zm-.42-.42a.28.28,0,1,0,.39,0A.28.28,0,0,0,17.71,22.53Z"/>
        <path
                d="M21.21,19.84a.32.32,0,1,1,0-.45A.32.32,0,0,1,21.21,19.84Zm-.42-.42a.28.28,0,1,0,.39,0A.28.28,0,0,0,20.79,19.42Z"/>
        <path
                d="M21,17.41A.32.32,0,1,1,21,17,.32.32,0,0,1,21,17.41ZM20.59,17A.28.28,0,1,0,21,17,.28.28,0,0,0,20.59,17Z"/>
        <path
                d="M13,19a.32.32,0,1,1,0-.46A.32.32,0,0,1,13,19Zm-.42-.42a.28.28,0,1,0,.39,0A.28.28,0,0,0,12.61,18.58Z"/>
        <path
                d="M9.09,3.31a.32.32,0,1,1,0-.46A.32.32,0,0,1,9.09,3.31Zm-.42-.42a.28.28,0,1,0,.39,0A.28.28,0,0,0,8.66,2.89Z"/>
        <path
                d="M15.48,4.89A.32.32,0,1,1,15,4.44a.32.32,0,0,1,.46.46Zm-.42-.42a.28.28,0,1,0,.39,0A.28.28,0,0,0,15.06,4.47Z"/>
        <path
                d="M12.4,8a.32.32,0,1,1,0-.46A.32.32,0,0,1,12.4,8ZM12,7.57a.28.28,0,1,0,.39,0A.28.28,0,0,0,12,7.57Z"/>
        <path
                d="M9.88,8.55a.32.32,0,1,1,0-.46A.32.32,0,0,1,9.88,8.55Zm-.42-.42a.28.28,0,1,0,.39,0A.28.28,0,0,0,9.46,8.13Z"/>
        <path
                d="M7.33,9.25a.32.32,0,1,1-.45-.46.32.32,0,0,1,.45,0A.32.32,0,0,1,7.33,9.25Zm-.42-.43a.28.28,0,1,0,.39,0A.28.28,0,0,0,6.91,8.82Z"/>
        <path
                d="M12.06,12.65a.32.32,0,1,1,0-.46A.32.32,0,0,1,12.06,12.65Zm-.42-.42a.28.28,0,1,0,.39,0A.28.28,0,0,0,11.63,12.23Z"/>
        <path
                d="M13.21,14.71a.32.32,0,1,1,0-.46A.32.32,0,0,1,13.21,14.71Zm-.42-.42a.28.28,0,1,0,.39,0A.28.28,0,0,0,12.78,14.28Z"/>
        <path
                d="M3.1,14.19a.32.32,0,1,1,0-.46A.32.32,0,0,1,3.1,14.19Zm-.42-.42a.28.28,0,1,0,.39,0A.28.28,0,0,0,2.68,13.76Z"/>
        <path
                d="M5.39,13.45a.32.32,0,1,1,0-.46A.32.32,0,0,1,5.39,13.45ZM5,13a.28.28,0,1,0,.39,0A.28.28,0,0,0,5,13Z"/>
        <path
                d="M8.55,16.6a.32.32,0,1,1,0-.46A.32.32,0,0,1,8.55,16.6Zm-.42-.42a.28.28,0,1,0,.39,0A.28.28,0,0,0,8.12,16.17Z"/>
        <path
                d="M10,15.93a.32.32,0,1,1,0-.46A.32.32,0,0,1,10,15.93Zm-.42-.42a.28.28,0,1,0,.39,0A.28.28,0,0,0,9.53,15.51Z"/>
    </symbol>
</svg>
