<svg xmlns="http://www.w3.org/2000/svg" style="display:none">

    <symbol id="logo" viewBox="0 0 202.87 29.94">
        <path d="M3,3.65a16.4,16.4,0,0,1,5.24.53,9.47,9.47,0,0,1,3.69,1.94A8,8,0,0,1,14.1,9.25a11.17,11.17,0,0,1,.72,4.1A10.92,10.92,0,0,1,13.87,18,7.89,7.89,0,0,1,11,21.33L15.82,32H12.13l-4-9.44a12.79,12.79,0,0,1-1.86.37V32H3Zm3.27,16a6.58,6.58,0,0,0,2.07-.53A4.67,4.67,0,0,0,10,17.88,5.63,5.63,0,0,0,11,16a8.06,8.06,0,0,0,.39-2.62A8.06,8.06,0,0,0,11,10.73,5.63,5.63,0,0,0,10,8.82a4.67,4.67,0,0,0-1.63-1.2,6.58,6.58,0,0,0-2.07-.53Z"
              transform="translate(-2.99 -2.93)"/>
        <path d="M19.51,4h9.42V7.09H22.78V17.85h5.27v3.09H22.78v8h6.15V32H19.51Z"
              transform="translate(-2.99 -2.93)"/>
        <path d="M42.12,18.85h3.27V32.32a12.16,12.16,0,0,1-4.95-.8,10.88,10.88,0,0,1-4.07-2.78A13.55,13.55,0,0,1,33.61,24a19.31,19.31,0,0,1-1-6.56,19.94,19.94,0,0,1,.79-5.87A14,14,0,0,1,35.5,7.28,9.19,9.19,0,0,1,38.57,4.6a7.72,7.72,0,0,1,3.64-.91,7.55,7.55,0,0,1,1.63.18,10.27,10.27,0,0,1,1.7.54L44.05,7.23A4,4,0,0,0,43.18,7a6.11,6.11,0,0,0-.91-.08A4.35,4.35,0,0,0,40,7.62a6.55,6.55,0,0,0-2,2A11.64,11.64,0,0,0,36.54,13,17,17,0,0,0,36,17.52a17.4,17.4,0,0,0,.46,4.16,12.09,12.09,0,0,0,1.27,3.23,8.11,8.11,0,0,0,1.93,2.28,7.05,7.05,0,0,0,2.48,1.28Z"
              transform="translate(-2.99 -2.93)"/>
        <path d="M50.63,4h3.27V32H50.63Z" transform="translate(-2.99 -2.93)"/>
        <path d="M59.87,2.93,68.68,17.6,70.61,21l-.09-3.36V4h3.25V32.6L65,18,63,15,63.14,18V32H59.87Z"
              transform="translate(-2.99 -2.93)"/>
        <path d="M85.36,3.14,93.5,32H90l-1.23-4.66h-6.8L80.74,32H77.22Zm2.58,21.11L86.06,17l-.72-3.34L84.66,17l-1.9,7.22Z"
              transform="translate(-2.99 -2.93)"/>
        <path d="M111.27,18.85h3.27V32.32a12.16,12.16,0,0,1-4.95-.8,10.88,10.88,0,0,1-4.07-2.78,13.55,13.55,0,0,1-2.76-4.7,19.31,19.31,0,0,1-1-6.56,19.94,19.94,0,0,1,.79-5.87,14,14,0,0,1,2.12-4.33,9.19,9.19,0,0,1,3.07-2.68,7.72,7.72,0,0,1,3.64-.91,7.55,7.55,0,0,1,1.63.18,10.27,10.27,0,0,1,1.7.54L113.2,7.23a4,4,0,0,0-.87-.22,6.11,6.11,0,0,0-.91-.08,4.35,4.35,0,0,0-2.29.69,6.55,6.55,0,0,0-2,2A11.64,11.64,0,0,0,105.69,13a17,17,0,0,0-.55,4.56,17.4,17.4,0,0,0,.46,4.16,12.09,12.09,0,0,0,1.27,3.23,8.11,8.11,0,0,0,1.93,2.28,7.05,7.05,0,0,0,2.48,1.28Z"
              transform="translate(-2.99 -2.93)"/>
        <path d="M125.4,3.14,133.54,32H130l-1.23-4.66H122L120.78,32h-3.52ZM128,24.25,126.11,17l-.72-3.34L124.7,17l-1.9,7.22Z"
              transform="translate(-2.99 -2.93)"/>
        <path d="M137,4h3.27V28.94h7.22V32H137Z" transform="translate(-2.99 -2.93)"/>
        <path d="M151,4h3.27V32H151Z" transform="translate(-2.99 -2.93)"/>
        <path d="M160.28,4h9.42V7.09h-6.15V17.85h5.27v3.09h-5.27v8h6.15V32h-9.42Z"
              transform="translate(-2.99 -2.93)"/>
        <path d="M172.34,4h3.52l3.87,15,.74,3.36.77-3.36L185.1,4h3.52l-8.14,28.86Z"
              transform="translate(-2.99 -2.93)"/>
        <path d="M197.72,3.14,205.86,32h-3.52l-1.23-4.66h-6.8L193.1,32h-3.52Zm2.58,21.11L198.42,17l-.72-3.34L197,17l-1.9,7.22Z"
              transform="translate(-2.99 -2.93)"/>
    </symbol>

    <symbol id="nav_btn" viewBox="0 0 92.833 92.833">
        <path d="M89.834,1.75H3c-1.654,0-3,1.346-3,3v13.334c0,1.654,1.346,3,3,3h86.833c1.653,0,3-1.346,3-3V4.75
			C92.834,3.096,91.488,1.75,89.834,1.75z"/>
        <path d="M89.834,36.75H3c-1.654,0-3,1.346-3,3v13.334c0,1.654,1.346,3,3,3h86.833c1.653,0,3-1.346,3-3V39.75
			C92.834,38.096,91.488,36.75,89.834,36.75z"/>
        <path d="M89.834,71.75H3c-1.654,0-3,1.346-3,3v13.334c0,1.654,1.346,3,3,3h86.833c1.653,0,3-1.346,3-3V74.75
			C92.834,73.095,91.488,71.75,89.834,71.75z"/>
    </symbol>

    <symbol id="back" viewBox="0 0 493.36 219.25">
        <path d="M490.5,102.23,380.87,2.3a9.17,9.17,0,0,0-10-1.43,8.29,8.29,0,0,0-5.43,8.28v64H9.14A8.79,8.79,0,0,0,0,82.24v54.82a8.79,8.79,0,0,0,9.14,9.13H365.45v64c0,3.81,1.82,6.57,5.43,8.28a8.91,8.91,0,0,0,10-1.71L490.5,115.63a9.33,9.33,0,0,0,2.85-6.85A9,9,0,0,0,490.5,102.23Z"/>
    </symbol>

    <symbol id="arrow" viewBox="0 0 493.36 219.25">
        <path d="M490.5,102.23,380.87,2.3a9.17,9.17,0,0,0-10-1.43,8.29,8.29,0,0,0-5.43,8.28v64H9.14A8.79,8.79,0,0,0,0,82.24v54.82a8.79,8.79,0,0,0,9.14,9.13H365.45v64c0,3.81,1.82,6.57,5.43,8.28a8.91,8.91,0,0,0,10-1.71L490.5,115.63a9.33,9.33,0,0,0,2.85-6.85A9,9,0,0,0,490.5,102.23Z"/>
    </symbol>

    <symbol id="close" viewBox="0 0 60 60">
        <path d="M0,0v60h60V0H0z M58,58H2V2h56V58z"/>
        <polygon points="16.009,45.405 30.151,31.263 44.293,45.405 45.707,43.991 31.565,29.849 45.707,15.707 44.293,14.293
		30.151,28.435 16.009,14.293 14.595,15.707 28.737,29.849 14.595,43.991 	"/>
    </symbol>

    <symbol id="phone" viewBox="0 0 55 55">
        <rect width="55" height="55" fill="#fff"/>
        <path d="M46.7,38.8l-.19-.58a5.45,5.45,0,0,0-3.33-3.15l-5.09-1.39a5,5,0,0,0-4.36,1.14l-1.84,1.84A19.55,19.55,0,0,1,18.13,22.91L20,21.07a5,5,0,0,0,1.14-4.36l-1.39-5.09a5.44,5.44,0,0,0-3.15-3.33L16,8.09a4.62,4.62,0,0,0-4.31,1L8.93,11.86a5.14,5.14,0,0,0-.81,1.9A32.54,32.54,0,0,0,41,46.67a5.12,5.12,0,0,0,2-.8l2.76-2.76A4.62,4.62,0,0,0,46.7,38.8Z"
              transform="translate(0 0)"/>
    </symbol>

    <symbol id="inbox" viewBox="0 0 55 55">
        <rect y="0" width="55" height="55" fill="#fff"/>
        <path d="M27.5,0C27.5,0,27.5,0,27.5,0 M36.9,12.7l0.2,0.1l1.9,1.9c0.1,0.1,0.1,0.3,0,0.4L27.8,26.4l-0.2,0.1l-0.2-0.1
		l-5.6-5.6l-0.1-0.3l0.1-0.2l1.9-1.9c0.1-0.1,0.3-0.1,0.4,0l3.5,3.5l9.1-9.1L36.9,12.7z M11.7,37.6V22.9c0-0.2,0-0.5,0.1-0.7l0,0
		c0.2-0.5,0.5-0.9,0.9-1.2l13.4-9.7c0.8-0.6,2-0.6,2.8,0l4.9,3.5l-0.9,0.9l-4.7-3.4c-0.4-0.3-0.9-0.3-1.3,0L13.5,22l-0.1,0.1
		l13.8,8.4l-14.6,8.9C12.1,39,11.7,38.3,11.7,37.6z M43.3,37.6c0,1.3-1.1,2.4-2.4,2.4H14.1c-0.3,0-0.6-0.1-0.9-0.2l28.4-17.3
		c0.1-0.1,0.2-0.2,0.1-0.4l0,0L41.5,22h-0.1l-4.8-3.5l0.9-0.9l4.7,3.4c0.4,0.3,0.7,0.7,0.9,1.2l0,0c0.1,0.2,0.1,0.5,0.1,0.7
		C43.2,22.9,43.3,37.6,43.3,37.6z"/>
    </symbol>

    <symbol id="linkedin" viewBox="0 0 455 455">
        <path d="M246.4,204.35v-0.665c-0.136,0.223-0.324,0.446-0.442,0.665H246.4z"/>
        <path d="M0,0v455h455V0H0z M141.522,378.002H74.016V174.906h67.506V378.002z
		 M107.769,147.186h-0.446C84.678,147.186,70,131.585,70,112.085c0-19.928,15.107-35.087,38.211-35.087
		c23.109,0,37.31,15.159,37.752,35.087C145.963,131.585,131.32,147.186,107.769,147.186z M385,378.002h-67.524V269.345
		c0-27.291-9.756-45.92-34.195-45.92c-18.664,0-29.755,12.543-34.641,24.693c-1.776,4.34-2.24,10.373-2.24,16.459v113.426h-67.537
		c0,0,0.905-184.043,0-203.096H246.4v28.779c8.973-13.807,24.986-33.547,60.856-33.547c44.437,0,77.744,29.02,77.744,91.398V378.002
		z"/>
    </symbol>

    <symbol id="github" viewBox="0 0 568.034 568.034">
        <path d="M550.99,0H17.051C8.948,0,2.381,6.567,2.381,14.67v538.694c0,8.104,6.567,14.67,14.67,14.67h177.498v-0.129
			c8.011-0.092,14.149-4.577,14.431-12.166c0.728-19.725,0.214-39.492,0.214-58.562c-14.296,0.667-27.944,2.473-41.438,1.695
			c-29.762-1.714-52.632-14.413-64.493-43.556c-7.026-17.265-17.613-32.032-34.101-41.886c-3.079-1.842-5.771-4.554-8.127-7.308
			c-3.079-3.592-2.503-7.282,2.362-8.268c4.908-0.998,10.27-1.695,15.11-0.79c19.009,3.568,32.154,15.49,42.216,31.347
			c19.896,31.371,50.521,40.974,84.976,26.487c1.921-0.808,4.363-2.766,4.725-4.553c2.778-13.887,7.968-26.549,18.427-37.65
			c-11.628-2.154-22.399-3.739-32.962-6.188c-30.417-7.038-57.742-19.7-77.724-44.848c-16.303-20.514-23.758-44.528-27.185-70.086
			c-5.367-40.031-0.563-77.503,26.928-109.493c1.389-1.616,2.142-4.927,1.524-6.94c-6.885-22.497-5.833-44.805,0.991-67.051
			c3.581-11.683,4.578-12.265,16.5-10.637c0.729,0.098,1.438,0.281,2.161,0.404c23.898,3.954,44.468,15.526,64.731,27.95
			c2.724,1.671,6.873,2.711,9.866,1.983c48.397-11.744,96.702-11.695,145.093,0.043c2.809,0.679,6.561-0.288,9.247-1.695
			c11.016-5.759,21.561-12.454,32.718-17.914c12.98-6.346,26.652-11.12,41.371-10.857c2.576,0.049,6.561,2.509,7.423,4.786
			c8.856,23.464,10.723,47.375,3.666,71.794c-0.753,2.607,0.367,6.322,1.769,8.892c6.965,12.779,16.689,24.572,21.096,38.127
			c13.434,41.316,8.538,82.229-9.749,121.06c-16.757,35.594-47.834,53.63-84.621,62.933c-12.424,3.14-25.153,5.049-38.556,7.681
			c17.564,18.348,20.318,40.74,20.006,64.192c-0.324,24.192-0.238,48.391-0.251,72.589c-0.006,11.72,5.11,18.195,14.039,18.574
			c-0.006,0.037,188.723,0.037,188.723,0.037V14.67C565.653,6.567,559.087,0,550.99,0z"/>
    </symbol>

    <symbol id="fb" viewBox="0 0 455.73 455.73">
        <path d="M0,0v455.73h242.704V279.691h-59.33v-71.864h59.33v-60.353c0-43.893,35.582-79.475,79.475-79.475h62.025v64.622h-44.382
	c-13.947,0-25.254,11.307-25.254,25.254v49.953h68.521l-9.47,71.864h-59.051V455.73H455.73V0H0z"/>
    </symbol>

    <symbol id="inst" viewBox="0 0 455.73 455.73">
        <path d="M227.86,182.55c-24.98,0-45.32,20.33-45.32,45.31c0,24.99,20.34,45.33,45.32,45.33c24.99,0,45.32-20.34,45.32-45.33
	C273.18,202.88,252.85,182.55,227.86,182.55z M227.86,182.55c-24.98,0-45.32,20.33-45.32,45.31c0,24.99,20.34,45.33,45.32,45.33
	c24.99,0,45.32-20.34,45.32-45.33C273.18,202.88,252.85,182.55,227.86,182.55z M303.36,108.66H152.37
	c-24.1,0-43.71,19.61-43.71,43.71v150.99c0,24.1,19.61,43.71,43.71,43.71h150.99c24.1,0,43.71-19.61,43.71-43.71V152.37
	C347.07,128.27,327.46,108.66,303.36,108.66z M227.86,306.35c-43.27,0-78.48-35.21-78.48-78.49c0-43.27,35.21-78.48,78.48-78.48
	c43.28,0,78.49,35.21,78.49,78.48C306.35,271.14,271.14,306.35,227.86,306.35z M308.87,165.61c-10.24,0-18.57-8.33-18.57-18.57
	s8.33-18.57,18.57-18.57s18.57,8.33,18.57,18.57S319.11,165.61,308.87,165.61z M227.86,182.55c-24.98,0-45.32,20.33-45.32,45.31
	c0,24.99,20.34,45.33,45.32,45.33c24.99,0,45.32-20.34,45.32-45.33C273.18,202.88,252.85,182.55,227.86,182.55z M303.36,108.66
	H152.37c-24.1,0-43.71,19.61-43.71,43.71v150.99c0,24.1,19.61,43.71,43.71,43.71h150.99c24.1,0,43.71-19.61,43.71-43.71V152.37
	C347.07,128.27,327.46,108.66,303.36,108.66z M227.86,306.35c-43.27,0-78.48-35.21-78.48-78.49c0-43.27,35.21-78.48,78.48-78.48
	c43.28,0,78.49,35.21,78.49,78.48C306.35,271.14,271.14,306.35,227.86,306.35z M308.87,165.61c-10.24,0-18.57-8.33-18.57-18.57
	s8.33-18.57,18.57-18.57s18.57,8.33,18.57,18.57S319.11,165.61,308.87,165.61z M227.86,182.55c-24.98,0-45.32,20.33-45.32,45.31
	c0,24.99,20.34,45.33,45.32,45.33c24.99,0,45.32-20.34,45.32-45.33C273.18,202.88,252.85,182.55,227.86,182.55z M0,0v455.73h455.73
	V0H0z M380.23,303.36c0,42.39-34.48,76.87-76.87,76.87H152.37c-42.39,0-76.87-34.48-76.87-76.87V152.37
	c0-42.39,34.48-76.87,76.87-76.87h150.99c42.39,0,76.87,34.48,76.87,76.87V303.36z M303.36,108.66H152.37
	c-24.1,0-43.71,19.61-43.71,43.71v150.99c0,24.1,19.61,43.71,43.71,43.71h150.99c24.1,0,43.71-19.61,43.71-43.71V152.37
	C347.07,128.27,327.46,108.66,303.36,108.66z M227.86,306.35c-43.27,0-78.48-35.21-78.48-78.49c0-43.27,35.21-78.48,78.48-78.48
	c43.28,0,78.49,35.21,78.49,78.48C306.35,271.14,271.14,306.35,227.86,306.35z M308.87,165.61c-10.24,0-18.57-8.33-18.57-18.57
	s8.33-18.57,18.57-18.57s18.57,8.33,18.57,18.57S319.11,165.61,308.87,165.61z M227.86,182.55c-24.98,0-45.32,20.33-45.32,45.31
	c0,24.99,20.34,45.33,45.32,45.33c24.99,0,45.32-20.34,45.32-45.33C273.18,202.88,252.85,182.55,227.86,182.55z M227.86,182.55
	c-24.98,0-45.32,20.33-45.32,45.31c0,24.99,20.34,45.33,45.32,45.33c24.99,0,45.32-20.34,45.32-45.33
	C273.18,202.88,252.85,182.55,227.86,182.55z M227.86,182.55c-24.98,0-45.32,20.33-45.32,45.31c0,24.99,20.34,45.33,45.32,45.33
	c24.99,0,45.32-20.34,45.32-45.33C273.18,202.88,252.85,182.55,227.86,182.55z M303.36,108.66H152.37
	c-24.1,0-43.71,19.61-43.71,43.71v150.99c0,24.1,19.61,43.71,43.71,43.71h150.99c24.1,0,43.71-19.61,43.71-43.71V152.37
	C347.07,128.27,327.46,108.66,303.36,108.66z M227.86,306.35c-43.27,0-78.48-35.21-78.48-78.49c0-43.27,35.21-78.48,78.48-78.48
	c43.28,0,78.49,35.21,78.49,78.48C306.35,271.14,271.14,306.35,227.86,306.35z M308.87,165.61c-10.24,0-18.57-8.33-18.57-18.57
	s8.33-18.57,18.57-18.57s18.57,8.33,18.57,18.57S319.11,165.61,308.87,165.61z M227.86,182.55c-24.98,0-45.32,20.33-45.32,45.31
	c0,24.99,20.34,45.33,45.32,45.33c24.99,0,45.32-20.34,45.32-45.33C273.18,202.88,252.85,182.55,227.86,182.55z M227.86,182.55
	c-24.98,0-45.32,20.33-45.32,45.31c0,24.99,20.34,45.33,45.32,45.33c24.99,0,45.32-20.34,45.32-45.33
	C273.18,202.88,252.85,182.55,227.86,182.55z M227.86,182.55c-24.98,0-45.32,20.33-45.32,45.31c0,24.99,20.34,45.33,45.32,45.33
	c24.99,0,45.32-20.34,45.32-45.33C273.18,202.88,252.85,182.55,227.86,182.55z M303.36,108.66H152.37
	c-24.1,0-43.71,19.61-43.71,43.71v150.99c0,24.1,19.61,43.71,43.71,43.71h150.99c24.1,0,43.71-19.61,43.71-43.71V152.37
	C347.07,128.27,327.46,108.66,303.36,108.66z M227.86,306.35c-43.27,0-78.48-35.21-78.48-78.49c0-43.27,35.21-78.48,78.48-78.48
	c43.28,0,78.49,35.21,78.49,78.48C306.35,271.14,271.14,306.35,227.86,306.35z M308.87,165.61c-10.24,0-18.57-8.33-18.57-18.57
	s8.33-18.57,18.57-18.57s18.57,8.33,18.57,18.57S319.11,165.61,308.87,165.61z M227.86,182.55c-24.98,0-45.32,20.33-45.32,45.31
	c0,24.99,20.34,45.33,45.32,45.33c24.99,0,45.32-20.34,45.32-45.33C273.18,202.88,252.85,182.55,227.86,182.55z"/>
    </symbol>

    <symbol id="vk" viewBox="0 0 455 455">
        <path style="fill-rule:evenodd;clip-rule:evenodd;" d="M0,0v455h455V0H0z M341.098,251.727c10.445,10.19,21.49,19.784,30.865,31.049
	c4.142,4.978,8.06,10.113,11.046,15.881c4.239,8.264,0.397,17.318-6.985,17.817l-45.875-0.02
	c-11.841,0.973-21.277-3.801-29.235-11.902c-6.328-6.45-12.243-13.354-18.352-20.023c-2.486-2.746-5.115-5.314-8.239-7.362
	c-6.267-4.061-11.703-2.828-15.285,3.699c-3.643,6.649-4.499,14.031-4.835,21.435c-0.499,10.807-3.76,13.634-14.607,14.154
	c-23.208,1.075-45.218-2.451-65.659-14.134c-18.052-10.307-32.022-24.879-44.184-41.356
	c-23.702-32.124-41.855-67.391-58.154-103.673c-3.684-8.177-0.993-12.559,7.999-12.717c14.99-0.296,29.974-0.26,44.943-0.02
	c6.089,0.102,10.129,3.582,12.458,9.334c8.101,19.906,18.01,38.85,30.448,56.427c3.327,4.677,6.71,9.334,11.504,12.636
	c5.314,3.663,9.375,2.466,11.881-3.485c1.595-3.78,2.293-7.8,2.629-11.841c1.192-13.833,1.335-27.681-0.718-41.473
	c-1.274-8.621-6.149-14.195-14.745-15.825c-4.382-0.836-3.725-2.446-1.615-4.958c3.704-4.315,7.189-7.006,14.093-7.006h51.847
	c8.177,1.595,10.011,5.278,11.122,13.497l0.041,57.619c-0.097,3.184,1.595,12.615,7.306,14.704
	c4.575,1.513,7.622-2.171,10.368-5.075c12.417-13.176,21.277-28.756,29.194-44.877c3.505-7.087,6.532-14.449,9.477-21.817
	c2.17-5.452,5.553-8.137,11.703-8.04l49.916,0.061c1.472,0,2.986,0,4.438,0.239c8.396,1.452,10.705,5.075,8.096,13.293
	c-4.076,12.875-12.06,23.625-19.84,34.391c-8.341,11.525-17.216,22.647-25.495,34.233
	C331.087,237.201,331.683,242.535,341.098,251.727z"/>
    </symbol>

    <symbol id="adluxe" viewBox="0 0 138.49 121.7">
        <path d="M131.74,108.2a6.73,6.73,0,0,0-1.24.12l-9.27-16.05a6.69,6.69,0,0,0,1.64-4.35,6.69,6.69,0,0,0-8-6.63l-9.28-16.08a6.69,6.69,0,0,0,1.64-4.36,6.69,6.69,0,0,0-8-6.62L90,38.16a6.69,6.69,0,0,0,1.64-4.36,6.69,6.69,0,0,0-8-6.62L74.39,11.11A6.69,6.69,0,0,0,76,6.75a6.75,6.75,0,0,0-13.5,0,6.69,6.69,0,0,0,1.64,4.36L54.89,27.17a6.71,6.71,0,0,0-6.34,11L39.27,54.23a6.71,6.71,0,0,0-6.34,11L23.65,81.29a6.71,6.71,0,0,0-6.34,11L8,108.33a6.75,6.75,0,1,0,5,8.88H31.72a6.73,6.73,0,1,0,11.45-6.61l9.27-16.06A6.64,6.64,0,0,0,60,90.17H78.56a6.64,6.64,0,0,0,7.56,4.37l9.27,16.06A6.69,6.69,0,0,0,93.76,115a6.73,6.73,0,0,0,13.08,2.26h18.57a6.74,6.74,0,1,0,6.33-9Zm1.91,5.57,0-.09Zm-.59,3-.07.05Zm-.39.23-.1,0ZM11.9,110.65l9.3-16.1a6.14,6.14,0,0,0,2.46,0l9.27,16.06a6.7,6.7,0,0,0-1.22,2.11H13.09A6.7,6.7,0,0,0,11.9,110.65Zm59-105.48a2.26,2.26,0,0,1,.31.41A2.25,2.25,0,0,0,70.87,5.17ZM69.28,4.5a2.23,2.23,0,0,1,.53.07A2.23,2.23,0,0,0,69.28,4.5Zm.68.12a2.22,2.22,0,0,1,.36.15A2.24,2.24,0,0,0,70,4.62Zm.5.23a2.26,2.26,0,0,1,.38.29A2.25,2.25,0,0,0,70.45,4.84Zm-2.73.28a2.26,2.26,0,0,1,.37-.28A2.25,2.25,0,0,0,67.73,5.13Zm.52-.36a2.22,2.22,0,0,1,.35-.15A2.24,2.24,0,0,0,68.24,4.76Zm.5-.19a2.23,2.23,0,0,1,.53-.07A2.24,2.24,0,0,0,68.74,4.57Zm-1.38,1a2.26,2.26,0,0,1,.3-.39A2.26,2.26,0,0,0,67.37,5.57Zm1.91,7.93a6.72,6.72,0,0,0,1.23-.12l9.27,16.07a6.7,6.7,0,0,0-1.22,2.11H60a6.71,6.71,0,0,0-1.22-2.1L68,13.37A6.72,6.72,0,0,0,69.28,13.5Zm40.51,72.17H91.23A6.71,6.71,0,0,0,90,83.56l9.28-16.08a6.11,6.11,0,0,0,2.44,0L111,83.56A6.71,6.71,0,0,0,109.79,85.67ZM74.39,65.21a6.7,6.7,0,0,0,1.22-2.1H94.18a6.71,6.71,0,0,0,1.22,2.1L86.12,81.3a6.13,6.13,0,0,0-2.45,0ZM54.88,81.29a6.12,6.12,0,0,0-2.45,0L43.15,65.22a6.71,6.71,0,0,0,1.23-2.1H62.94a6.71,6.71,0,0,0,1.22,2.1ZM60,36H78.56a6.7,6.7,0,0,0,1.22,2.1L70.5,54.23a6.12,6.12,0,0,0-2.45,0L58.77,38.15A6.71,6.71,0,0,0,60,36ZM94.17,58.62H75.61a6.7,6.7,0,0,0-1.22-2.11l9.28-16.08a6.1,6.1,0,0,0,2.44,0L95.4,56.5A6.71,6.71,0,0,0,94.17,58.62ZM53.66,40.54a6.72,6.72,0,0,0,1.23-.12L64.17,56.5a6.71,6.71,0,0,0-1.22,2.11H44.38a6.71,6.71,0,0,0-1.23-2.12l9.28-16.08A6.72,6.72,0,0,0,53.66,40.54ZM38,67.61a6.72,6.72,0,0,0,1.21-.12l9.29,16.08a6.71,6.71,0,0,0-1.22,2.1H28.76a6.71,6.71,0,0,0-1.23-2.11l9.28-16.08A6.72,6.72,0,0,0,38,67.61Zm0,40.6a6.72,6.72,0,0,0-1.24.12L27.54,92.28a6.71,6.71,0,0,0,1.22-2.11H47.33a6.71,6.71,0,0,0,1.22,2.1l-9.27,16.05A6.72,6.72,0,0,0,38,108.2ZM58.77,83.56l9.28-16.08a6.12,6.12,0,0,0,2.45,0l9.28,16.08a6.71,6.71,0,0,0-1.22,2.11H60A6.71,6.71,0,0,0,58.77,83.56Zm32.46,6.61h18.56A6.71,6.71,0,0,0,111,92.28l-9.27,16.05a6.17,6.17,0,0,0-2.47,0L90,92.28A6.71,6.71,0,0,0,91.23,90.17ZM99.69,117l-.1,0Zm5.94-6.44,9.27-16.06a6.14,6.14,0,0,0,2.46,0l9.27,16.06a6.7,6.7,0,0,0-1.22,2.11H106.85A6.7,6.7,0,0,0,105.62,110.6ZM4.5,115a2.23,2.23,0,0,1,.61-1.53l-.24.42a2.24,2.24,0,0,0,1.32,3.28A2.25,2.25,0,0,1,4.5,115Zm2.05,2.23-.3,0A2.28,2.28,0,0,0,6.55,117.18Zm126.94-.84c0-.06.09-.11.13-.17Zm.25-.4a2.23,2.23,0,0,0,.11-.27A2.22,2.22,0,0,1,133.75,115.95Zm.18-.48A2.24,2.24,0,0,0,134,115,2.24,2.24,0,0,1,133.92,115.47ZM134,115a2.25,2.25,0,0,0-.07-.55,2.22,2.22,0,0,1,.07.54Zm-.29-1.1a2.22,2.22,0,0,1,.2.49A2.24,2.24,0,0,0,133.69,113.86Z"/>
    </symbol>

    <symbol id="mail" viewBox="0 0 351.33 73.01">
        <path class="cls-1"
              d="M36.73,15.16A21.81,21.81,0,0,1,52,21.75v0a3.16,3.16,0,0,1,3.11-3.39h.46A3.45,3.45,0,0,1,59,21.89v30a2,2,0,0,0,3.27,1.72c4.82-5,10.59-25.49-3-37.38C46.6,5.19,29.6,7,20.56,13.25a29.22,29.22,0,0,0-9.79,35.08c6.51,15,25.15,19.51,36.22,15,5.61-2.26,8.2,5.32,2.37,7.79-8.8,3.75-33.3,3.37-44.74-16.45C-3.1,41.33-2.69,17.77,17.82,5.57,33.5-3.76,54.18-1.17,66.65,11.85c13,13.61,12.28,39.11-.44,49C60.45,65.37,51.9,61,52,54.43l-.06-2.15a21.4,21.4,0,0,1-15.16,6.3c-11.49,0-21.6-10.11-21.6-21.6s10.11-21.83,21.6-21.83Zm14.46,21C50.76,27.74,44.51,22.68,37,22.68h-.28c-8.7,0-13.53,6.84-13.53,14.62,0,8.71,5.84,14.2,13.5,14.2A14.16,14.16,0,0,0,51.21,37.86Z"/>
        <path class="cls-1"
              d="M261.41,58.94c0,1.86-2,3.77-4.79,3.77A4.34,4.34,0,0,1,252,58.78V55.61c0-1.91,1.8-3.9,4.69-3.9,3.16,0,4.73,2.13,4.73,4.14Z"/>
        <path class="cls-1"
              d="M292.22,14c-13.13.05-24.34,11.63-24.27,24.37V58.22a4.46,4.46,0,0,0,4.35,4.48A4.52,4.52,0,0,0,277,58.36V38.19C277,31,283.31,23,292.16,23a4.58,4.58,0,0,0,4.76-4.59A4.46,4.46,0,0,0,292.22,14Z"/>
        <path class="cls-1"
              d="M346.78,14a4.53,4.53,0,0,0-4.59,4.4v20a15.55,15.55,0,0,1-15.53,15.25c-7.38,0-15.21-6.41-15.21-15.1v-20a4.59,4.59,0,0,0-9.17-.09v20c0,12.92,11.55,24.3,24.35,24.3,14,0,24.7-12,24.7-24.24v-20A4.48,4.48,0,0,0,346.78,14Z"/>

        <path class="cls-2"
              d="M213.87,6.79c0,2-2,3.57-4.79,3.57s-4.62-1.95-4.62-3.78V4.05A4.36,4.36,0,0,1,209.06,0c3.16,0,4.81,2,4.81,4.05Z"/>
        <path class="cls-2"
              d="M128.84,14c-5.77-.09-10.2,3.26-12.92,5.5A16.5,16.5,0,0,0,105,14a15.79,15.79,0,0,0-10.65,3.19c-.88-2-2-3.23-4-3.23a4.68,4.68,0,0,0-4.48,4.88c0,3,0,39.25,0,39.25a4.66,4.66,0,0,0,4.67,4.54,4.53,4.53,0,0,0,4.71-4.55V29c0-2.83,4.84-6.18,8.94-6.13,2.62,0,5.72,2.62,5.72,6.68l0,28.63c0,2.53,2.55,4.47,4.86,4.47a4.65,4.65,0,0,0,4.83-4.44V29.28c0-3.54,5.39-6.52,9.07-6.33,2.89.15,5.45,3.3,5.45,6.33v28.9a4.78,4.78,0,0,0,4.88,4.48,4.56,4.56,0,0,0,4.8-4.53V29.37C143.89,18.81,133.46,13.88,128.84,14Z"/>
        <path class="cls-2"
              d="M209.12,14a4.65,4.65,0,0,0-4.64,4.67V58.09a4.51,4.51,0,0,0,4.61,4.57,4.7,4.7,0,0,0,4.79-4.77l0-39.16A5.11,5.11,0,0,0,209.12,14Z"/>
        <path class="cls-2"
              d="M192.75,14a4.42,4.42,0,0,0-4.52,4.18V19.8A23.88,23.88,0,0,0,172.8,14a24.57,24.57,0,0,0-24.25,24.36c0,12.42,10.85,24.29,24.25,24.29a24.52,24.52,0,0,0,15.39-5.62v1.15a4.5,4.5,0,0,0,4.62,4.46A4.58,4.58,0,0,0,197.54,58V18.44A4.92,4.92,0,0,0,192.75,14ZM172.93,53.67a15.34,15.34,0,1,1,15.35-15.33A15.34,15.34,0,0,1,172.93,53.67Z"/>
        <path class="cls-2"
              d="M241.41,53.26a11.19,11.19,0,0,1-11.29-11.37V4.4a4.73,4.73,0,0,0-9.44,0V41.92A20.79,20.79,0,0,0,241.24,62.7a4.75,4.75,0,0,0,4.82-4.88A4.59,4.59,0,0,0,241.41,53.26Z"/>
    </symbol>

    <symbol id="simai" fill-rule="evenodd" viewBox="0 0 344.25 99">
        <g fill="none">
            <path d="M0 0v99H344.25V0H0z" stroke="none"/>
            <path d="M169.902 100.015V100h-10l-19.953-47.93V100h-19.995V.04h19.994v.004l29.97 71.998L199.885.058l.038.016v-.03h19.993v99.96h-19.993v-48.01l-19.99 48.02h-10.03zm121.163-.01L271.933 36.31 252.803 100H231.93L261.957.035 281.91.04l30.028 99.966h-20.873zm-255.076 0L0 100l7.997-20.01 27.992.026c2.367-.003 4.71-1.048 6.288-3.054 2.728-3.472 2.124-8.503-1.348-11.23-.405-.32-.83-.592-1.273-.82l-24.23-11.886c-1.645-.826-3.23-1.827-4.73-3.007C-1.456 40.47-3.57 22.86 5.978 10.71 11.466 3.726 19.63.057 27.88.015l36.1.025-7.996 19.994-28.18-.025c-2.304.053-4.566 1.1-6.102 3.055-2.728 3.472-2.124 8.503 1.348 11.23.405.32.832.592 1.273.82L48.555 47c1.643.827 3.228 1.828 4.73 3.008C65.434 59.555 67.548 77.165 58 89.315 52.485 96.335 44.28 100 35.99 100.005zm287.912 0V.045h19.994v99.96h-19.994zM79.976 100V.04h19.99V100h-19.99z"
                  fill="#fff" stroke="none"/>
        </g>
    </symbol>

    <symbol id="fr8" fill-rule="evenodd" viewBox="0 0 124 32">
        <g fill="none" fill-rule="evenodd">
            <g transform="translate(95)">
                <mask id="b" fill="#fff">
                    <path id="a" d="M.226.142h28.62V32H.226z"/>
                </mask>
                <path fill="#fff" d="M19.681 18.05l2.929 9.124-7.295-5.491L3.11 32v-.002a.026.026 0 0 0 .004-.01c.26-.583 8.488-18.895 19.235-19.168-3.115-.333-9.72 1.027-15.626 2.493L.226 10.427h10.33L14.011.142l3.255 10.285h11.58l-9.165 7.622z" mask="url(#b)"/>
            </g>
            <path fill="#fff" d="M76.593 20.559l-3.83-.003 3.83-4.62v4.623zM76.788 11L65.276 24.4V14.15h5.341l1.32-3.136h-21.83c-1.947 0-3.603 1.336-4.217 3.204a5.141 5.141 0 0 0 0 3.201c.487 1.476 1.624 2.62 3.04 3.033.375.11.77.168 1.177.168h5.674c.822 0 1.491.719 1.491 1.602 0 .884-.669 1.678-1.491 1.678h-8.475L45 27h10.78c1.948 0 3.606-1.311 4.217-3.176a5.08 5.08 0 0 0 .255-1.602c0-.562-.088-1.101-.255-1.602-.484-1.473-1.621-2.62-3.04-3.033-.374-.11-.802-.132-1.21-.132h-5.674c-.823 0-1.455-.755-1.455-1.638 0-.883.666-1.666 1.489-1.666h11.77V27h5.903l2.9-3.5 5.913-.009v3.506H80V11h-3.212zM93.033 20.286c1.82-.432 4.53-1.508 4.53-4.411 0-3.707-3.152-4.624-5.208-4.828-.195-.019-.402-.047-.628-.047H83v16h3.475V14.127h5.257c.965 0 2.424.17 2.424 1.697 0 1.69-1.942 1.613-2.415 1.613h-4.613s5.21 7.432 6.293 8.98c.313.45.57.583 1.12.583H98s-3.596-4.778-4.967-6.714"/>
            <path fill="#fff" d="M113 14c-6.633 1.481-10.933 5.93-11 6l.935-2.719S109.165 14.251 113 14M32.976 14.146c-.505 0-1.482.537-1.482 1.627 0 .637.392 1.67 1.61 1.67h5.472c1.017 0 1.955-.484 1.955-1.668 0-.8-.521-1.629-1.757-1.629h-5.798zm6.027 9.621c.762-.005 1.766-.369 1.766-1.627 0-1.006-1.031-1.62-1.604-1.626h-6.309c-.538 0-1.633.472-1.633 1.685 0 .918.64 1.568 1.71 1.568h6.07zm4.387-9.813c.343.681.924 3.745-1.04 4.798 1.184.852 1.648 2.293 1.648 3.372.02.658-.094 1.031-.28 1.66-.417 1.406-2.085 2.974-4.17 3.21-.097.012-6.548.004-7.014-.01-1.98-.063-3.798-1.543-4.274-3.245-.145-.517-.26-1.1-.26-1.637 0-1.358.524-2.538 1.681-3.33-1.606-1.078-1.421-2.85-1.421-3.012 0-3.064 2.65-4.76 4.855-4.76h5.837c2.681 0 3.92 1.923 4.438 2.954zM23.02 20.286c1.816-.432 4.522-1.508 4.522-4.411 0-3.707-3.147-4.624-5.2-4.828-.194-.019-.4-.047-.627-.047H13v16h3.47l.01-12.873h5.24c.964 0 2.42.17 2.42 1.697 0 1.69-1.939 1.613-2.41 1.613h-4.608s5.204 7.432 6.285 8.98c.313.45.61.583 1.16.583H28s-3.611-4.778-4.98-6.714"/>
            <g transform="translate(0 11)">
                <mask id="d" fill="#fff">
                    <path id="c" d="M0 .243h10.804v15.698H0z"/>
                </mask>
                <path fill="#fff" d="M0 .243L10.804.25v3.062H3.248v3.247h6.284v3.096H3.24v6.286H0z" mask="url(#d)"/>
            </g>
        </g>
    </symbol>
</svg>