<svg xmlns="http://www.w3.org/2000/svg" viewBox="0 0 138.49 121.7">
    <path d="M131.74,108.2a6.73,6.73,0,0,0-1.24.12l-9.27-16.05a6.69,6.69,0,0,0,1.64-4.35,6.69,6.69,0,0,0-8-6.63l-9.28-16.08a6.69,6.69,0,0,0,1.64-4.36,6.69,6.69,0,0,0-8-6.62L90,38.16a6.69,6.69,0,0,0,1.64-4.36,6.69,6.69,0,0,0-8-6.62L74.39,11.11A6.69,6.69,0,0,0,76,6.75a6.75,6.75,0,0,0-13.5,0,6.69,6.69,0,0,0,1.64,4.36L54.89,27.17a6.71,6.71,0,0,0-6.34,11L39.27,54.23a6.71,6.71,0,0,0-6.34,11L23.65,81.29a6.71,6.71,0,0,0-6.34,11L8,108.33a6.75,6.75,0,1,0,5,8.88H31.72a6.73,6.73,0,1,0,11.45-6.61l9.27-16.06A6.64,6.64,0,0,0,60,90.17H78.56a6.64,6.64,0,0,0,7.56,4.37l9.27,16.06A6.69,6.69,0,0,0,93.76,115a6.73,6.73,0,0,0,13.08,2.26h18.57a6.74,6.74,0,1,0,6.33-9Zm1.91,5.57,0-.09Zm-.59,3-.07.05Zm-.39.23-.1,0ZM11.9,110.65l9.3-16.1a6.14,6.14,0,0,0,2.46,0l9.27,16.06a6.7,6.7,0,0,0-1.22,2.11H13.09A6.7,6.7,0,0,0,11.9,110.65Zm59-105.48a2.26,2.26,0,0,1,.31.41A2.25,2.25,0,0,0,70.87,5.17ZM69.28,4.5a2.23,2.23,0,0,1,.53.07A2.23,2.23,0,0,0,69.28,4.5Zm.68.12a2.22,2.22,0,0,1,.36.15A2.24,2.24,0,0,0,70,4.62Zm.5.23a2.26,2.26,0,0,1,.38.29A2.25,2.25,0,0,0,70.45,4.84Zm-2.73.28a2.26,2.26,0,0,1,.37-.28A2.25,2.25,0,0,0,67.73,5.13Zm.52-.36a2.22,2.22,0,0,1,.35-.15A2.24,2.24,0,0,0,68.24,4.76Zm.5-.19a2.23,2.23,0,0,1,.53-.07A2.24,2.24,0,0,0,68.74,4.57Zm-1.38,1a2.26,2.26,0,0,1,.3-.39A2.26,2.26,0,0,0,67.37,5.57Zm1.91,7.93a6.72,6.72,0,0,0,1.23-.12l9.27,16.07a6.7,6.7,0,0,0-1.22,2.11H60a6.71,6.71,0,0,0-1.22-2.1L68,13.37A6.72,6.72,0,0,0,69.28,13.5Zm40.51,72.17H91.23A6.71,6.71,0,0,0,90,83.56l9.28-16.08a6.11,6.11,0,0,0,2.44,0L111,83.56A6.71,6.71,0,0,0,109.79,85.67ZM74.39,65.21a6.7,6.7,0,0,0,1.22-2.1H94.18a6.71,6.71,0,0,0,1.22,2.1L86.12,81.3a6.13,6.13,0,0,0-2.45,0ZM54.88,81.29a6.12,6.12,0,0,0-2.45,0L43.15,65.22a6.71,6.71,0,0,0,1.23-2.1H62.94a6.71,6.71,0,0,0,1.22,2.1ZM60,36H78.56a6.7,6.7,0,0,0,1.22,2.1L70.5,54.23a6.12,6.12,0,0,0-2.45,0L58.77,38.15A6.71,6.71,0,0,0,60,36ZM94.17,58.62H75.61a6.7,6.7,0,0,0-1.22-2.11l9.28-16.08a6.1,6.1,0,0,0,2.44,0L95.4,56.5A6.71,6.71,0,0,0,94.17,58.62ZM53.66,40.54a6.72,6.72,0,0,0,1.23-.12L64.17,56.5a6.71,6.71,0,0,0-1.22,2.11H44.38a6.71,6.71,0,0,0-1.23-2.12l9.28-16.08A6.72,6.72,0,0,0,53.66,40.54ZM38,67.61a6.72,6.72,0,0,0,1.21-.12l9.29,16.08a6.71,6.71,0,0,0-1.22,2.1H28.76a6.71,6.71,0,0,0-1.23-2.11l9.28-16.08A6.72,6.72,0,0,0,38,67.61Zm0,40.6a6.72,6.72,0,0,0-1.24.12L27.54,92.28a6.71,6.71,0,0,0,1.22-2.11H47.33a6.71,6.71,0,0,0,1.22,2.1l-9.27,16.05A6.72,6.72,0,0,0,38,108.2ZM58.77,83.56l9.28-16.08a6.12,6.12,0,0,0,2.45,0l9.28,16.08a6.71,6.71,0,0,0-1.22,2.11H60A6.71,6.71,0,0,0,58.77,83.56Zm32.46,6.61h18.56A6.71,6.71,0,0,0,111,92.28l-9.27,16.05a6.17,6.17,0,0,0-2.47,0L90,92.28A6.71,6.71,0,0,0,91.23,90.17ZM99.69,117l-.1,0Zm5.94-6.44,9.27-16.06a6.14,6.14,0,0,0,2.46,0l9.27,16.06a6.7,6.7,0,0,0-1.22,2.11H106.85A6.7,6.7,0,0,0,105.62,110.6ZM4.5,115a2.23,2.23,0,0,1,.61-1.53l-.24.42a2.24,2.24,0,0,0,1.32,3.28A2.25,2.25,0,0,1,4.5,115Zm2.05,2.23-.3,0A2.28,2.28,0,0,0,6.55,117.18Zm126.94-.84c0-.06.09-.11.13-.17Zm.25-.4a2.23,2.23,0,0,0,.11-.27A2.22,2.22,0,0,1,133.75,115.95Zm.18-.48A2.24,2.24,0,0,0,134,115,2.24,2.24,0,0,1,133.92,115.47ZM134,115a2.25,2.25,0,0,0-.07-.55,2.22,2.22,0,0,1,.07.54Zm-.29-1.1a2.22,2.22,0,0,1,.2.49A2.24,2.24,0,0,0,133.69,113.86Z"/>
</svg>