<svg xmlns="http://www.w3.org/2000/svg" viewBox="0 0 351.33 73.01">
    <path class="cls-1"
          d="M36.73,15.16A21.81,21.81,0,0,1,52,21.75v0a3.16,3.16,0,0,1,3.11-3.39h.46A3.45,3.45,0,0,1,59,21.89v30a2,2,0,0,0,3.27,1.72c4.82-5,10.59-25.49-3-37.38C46.6,5.19,29.6,7,20.56,13.25a29.22,29.22,0,0,0-9.79,35.08c6.51,15,25.15,19.51,36.22,15,5.61-2.26,8.2,5.32,2.37,7.79-8.8,3.75-33.3,3.37-44.74-16.45C-3.1,41.33-2.69,17.77,17.82,5.57,33.5-3.76,54.18-1.17,66.65,11.85c13,13.61,12.28,39.11-.44,49C60.45,65.37,51.9,61,52,54.43l-.06-2.15a21.4,21.4,0,0,1-15.16,6.3c-11.49,0-21.6-10.11-21.6-21.6s10.11-21.83,21.6-21.83Zm14.46,21C50.76,27.74,44.51,22.68,37,22.68h-.28c-8.7,0-13.53,6.84-13.53,14.62,0,8.71,5.84,14.2,13.5,14.2A14.16,14.16,0,0,0,51.21,37.86Z"/>
    <path class="cls-1"
          d="M261.41,58.94c0,1.86-2,3.77-4.79,3.77A4.34,4.34,0,0,1,252,58.78V55.61c0-1.91,1.8-3.9,4.69-3.9,3.16,0,4.73,2.13,4.73,4.14Z"/>
    <path class="cls-1"
          d="M292.22,14c-13.13.05-24.34,11.63-24.27,24.37V58.22a4.46,4.46,0,0,0,4.35,4.48A4.52,4.52,0,0,0,277,58.36V38.19C277,31,283.31,23,292.16,23a4.58,4.58,0,0,0,4.76-4.59A4.46,4.46,0,0,0,292.22,14Z"/>
    <path class="cls-1"
          d="M346.78,14a4.53,4.53,0,0,0-4.59,4.4v20a15.55,15.55,0,0,1-15.53,15.25c-7.38,0-15.21-6.41-15.21-15.1v-20a4.59,4.59,0,0,0-9.17-.09v20c0,12.92,11.55,24.3,24.35,24.3,14,0,24.7-12,24.7-24.24v-20A4.48,4.48,0,0,0,346.78,14Z"/>

    <path class="cls-2"
          d="M213.87,6.79c0,2-2,3.57-4.79,3.57s-4.62-1.95-4.62-3.78V4.05A4.36,4.36,0,0,1,209.06,0c3.16,0,4.81,2,4.81,4.05Z"/>
    <path class="cls-2"
          d="M128.84,14c-5.77-.09-10.2,3.26-12.92,5.5A16.5,16.5,0,0,0,105,14a15.79,15.79,0,0,0-10.65,3.19c-.88-2-2-3.23-4-3.23a4.68,4.68,0,0,0-4.48,4.88c0,3,0,39.25,0,39.25a4.66,4.66,0,0,0,4.67,4.54,4.53,4.53,0,0,0,4.71-4.55V29c0-2.83,4.84-6.18,8.94-6.13,2.62,0,5.72,2.62,5.72,6.68l0,28.63c0,2.53,2.55,4.47,4.86,4.47a4.65,4.65,0,0,0,4.83-4.44V29.28c0-3.54,5.39-6.52,9.07-6.33,2.89.15,5.45,3.3,5.45,6.33v28.9a4.78,4.78,0,0,0,4.88,4.48,4.56,4.56,0,0,0,4.8-4.53V29.37C143.89,18.81,133.46,13.88,128.84,14Z"/>
    <path class="cls-2"
          d="M209.12,14a4.65,4.65,0,0,0-4.64,4.67V58.09a4.51,4.51,0,0,0,4.61,4.57,4.7,4.7,0,0,0,4.79-4.77l0-39.16A5.11,5.11,0,0,0,209.12,14Z"/>
    <path class="cls-2"
          d="M192.75,14a4.42,4.42,0,0,0-4.52,4.18V19.8A23.88,23.88,0,0,0,172.8,14a24.57,24.57,0,0,0-24.25,24.36c0,12.42,10.85,24.29,24.25,24.29a24.52,24.52,0,0,0,15.39-5.62v1.15a4.5,4.5,0,0,0,4.62,4.46A4.58,4.58,0,0,0,197.54,58V18.44A4.92,4.92,0,0,0,192.75,14ZM172.93,53.67a15.34,15.34,0,1,1,15.35-15.33A15.34,15.34,0,0,1,172.93,53.67Z"/>
    <path class="cls-2"
          d="M241.41,53.26a11.19,11.19,0,0,1-11.29-11.37V4.4a4.73,4.73,0,0,0-9.44,0V41.92A20.79,20.79,0,0,0,241.24,62.7a4.75,4.75,0,0,0,4.82-4.88A4.59,4.59,0,0,0,241.41,53.26Z"/>
</svg>