<svg fill-rule="evenodd" viewBox="0 0 344.25 99">
    <g fill="none">
        <path d="M0 0v99H344.25V0H0z" stroke="none"/>
        <path d="M169.902 100.015V100h-10l-19.953-47.93V100h-19.995V.04h19.994v.004l29.97 71.998L199.885.058l.038.016v-.03h19.993v99.96h-19.993v-48.01l-19.99 48.02h-10.03zm121.163-.01L271.933 36.31 252.803 100H231.93L261.957.035 281.91.04l30.028 99.966h-20.873zm-255.076 0L0 100l7.997-20.01 27.992.026c2.367-.003 4.71-1.048 6.288-3.054 2.728-3.472 2.124-8.503-1.348-11.23-.405-.32-.83-.592-1.273-.82l-24.23-11.886c-1.645-.826-3.23-1.827-4.73-3.007C-1.456 40.47-3.57 22.86 5.978 10.71 11.466 3.726 19.63.057 27.88.015l36.1.025-7.996 19.994-28.18-.025c-2.304.053-4.566 1.1-6.102 3.055-2.728 3.472-2.124 8.503 1.348 11.23.405.32.832.592 1.273.82L48.555 47c1.643.827 3.228 1.828 4.73 3.008C65.434 59.555 67.548 77.165 58 89.315 52.485 96.335 44.28 100 35.99 100.005zm287.912 0V.045h19.994v99.96h-19.994zM79.976 100V.04h19.99V100h-19.99z"
              fill="#fff" stroke="none"/>
    </g>
</svg>