<svg xmlns="http://www.w3.org/2000/svg" viewBox="0 0 64.24 163.45">
    <path class="numb_0"
          d="M.5.51v36h1l.74,0,.64,0,.86.08.66.09.72.12.71.13.77.18.49.12.55.16,1.07.34.77.27,1.22.5.81.38.75.39.75.4.63.38.7.46L15,41l.85.67.86.76.73.73.6.64.56.67.63.82.53.84.64,1.15.6,1.19.33.72.45,1,.29.74.28.77.43,1.3.38,1.33.36,1.53L24,57.72l.45,2.21.35,2,.28,2,.22,1.86.16,1.78.14,2,.11,2,.08,2,.06,2.24,0,2.5V85l0,1.76,0,1.81-.08,2.28-.1,2.05-.14,2.23L25.33,97l-.23,2.06-.29,2.1-.29,1.68L24.1,105l-.43,1.92-.46,1.93-.19.72-.12.42-.12.39-.16.51-.19.58-.18.51-.24.62-.24.6-.22.51-.24.53-.24.51-.25.49-.35.68-.43.8-.41.69-.33.55-.31.42-.41.54-.44.54-.35.4-.35.38-.32.33-.36.35-.43.39-.35.31-.44.37-.39.31-.39.29-.36.26-.41.28-.41.26-.38.23-1,.54L11,124.8l-1,.41-.81.31-.8.28-.8.25-1,.27-1.2.25-.8.13-1,.14-.8.06-1,.06H1.22l-.1,36H2l.95,0,.59,0,1.39-.05,1.62-.09,2.52-.21,2.38-.28,2.31-.33,2.84-.53,1.79-.39,1.41-.36,2.09-.59,1-.31L25,159l1.82-.69,1.69-.71,1-.49,2.84-1.4L36,153.54l2.47-1.75,2.87-2.38,2.93-2.86,3-3.46,2.24-3.16,1.91-3.16,1.86-3.4,1.75-3.62,1.65-3.87,1-2.68,1.15-3.51.91-3.22.88-3.72.69-3.42.58-3.33.4-2.68L63,98.09l.31-3.47L63.53,91l.11-2.84.09-2.32V79.91l0-3L63.61,74l-.19-3.15-.19-2.65L63,65.6l-.34-2.82-.32-2.41L62,58l-.44-2.55-.46-2.53-.51-2.41-.71-3L59.21,45l-.75-2.45-1-2.85-1-2.59-.93-2.24L54.43,32.4l-1-2.14-1.31-2.48-1.14-2-1.22-2-1.33-1.92-1.27-1.68L46,18.75l-1.29-1.48-1.58-1.65-1.31-1.21-1.33-1.18-1.28-1-1.92-1.44L35.49,9.58,33.59,8.41l-1.73-.94-2.06-1-1.6-.72-2-.84-1.85-.68-2-.67L20.66,3l-2-.51L17.27,2.2l-1.39-.28-1.59-.31L12.9,1.4l-1.74-.25L9.68,1,8,.81,5.48.64,2.67.53Z"/>
</svg>