<svg xmlns="http://www.w3.org/2000/svg" viewBox="0 0 113.4 162">
    <path class="numb_2"
          d="M8.77,189.56V161q6.08-5.4,17.1-14.85T43,131.4q6.07-5.28,14.17-13.27A113.13,113.13,0,0,0,69.3,104.51Q79.87,89.89,79.88,79.09,79.88,60,63,60q-8.1,0-12.83,5.74T45.45,82.24H8.33q0-27,15.64-40.84T65,27.56q25.42,0,39.6,14.51a48.26,48.26,0,0,1,14.17,35q0,15.53-6.75,27.23-4,6.75-7,11.47a74.82,74.82,0,0,1-9.68,11.7q-6.75,7-9.9,10.13t-11.59,10.8q-8.44,7.65-10.69,9.9h58.5v31.28Z"
          transform="translate(-8.33 -27.56)"/>
</svg>