<svg xmlns="http://www.w3.org/2000/svg" viewBox="0 0 114.3 168.3">
    <path class="numb_3"
          d="M66.6,57.26q-15.53,0-17.1,16.65H12.15q0-23.62,15.19-36.56T67.73,24.41q25.2,0,39.15,12.37t14,31.5q0,15.08-7.31,24.52t-15,12.6v.9q25.2,9.68,25.2,38.93,0,22.05-14.74,34.76T68.29,192.71q-26,0-42.41-13.27T9.45,139.84H46.8q.22,9.9,5.63,15.64t15,5.74q9.56,0,14.4-5.17t4.84-14.74q0-9.56-6.75-14.29t-22-4.72h-7.2V91h7.2q25.65,0,25.65-18,0-7.2-4.61-11.47T66.6,57.26Z"
          transform="translate(-9.45 -24.41)"/>
</svg>