<svg xmlns="http://www.w3.org/2000/svg" viewBox="0 0 118.35 164.48">
    <path class="numb_5"
          d="M20.7,27.34H123.3V61.09H55.58v28.8q10.13-9,25.76-9t26.44,5.06Q118.58,91,124.2,99.34a62.22,62.22,0,0,1,11,35.33q0,26.32-15.52,41.74T77.17,191.81q-27,0-42.64-12.94a47.84,47.84,0,0,1-17.66-33.41h38a16.14,16.14,0,0,0,7,10.69q5.85,4.17,15.75,4.16t15.19-6.64Q98.1,147,98.1,136t-5.51-17.1q-5.52-6.07-14.74-6.08t-14.06,3.94a16.27,16.27,0,0,0-6,9.79H20.7Z"
          transform="translate(-16.88 -27.34)"/>
</svg>