<svg xmlns="http://www.w3.org/2000/svg" viewBox="0 0 118.13 168.08">
    <path class="numb_6"
          d="M72.45,55.24q-24.75,0-25,42.3A31.73,31.73,0,0,1,62.33,87.19a55.87,55.87,0,0,1,18.9-3.37q22.5,0,36.34,13.95t13.84,39.15q0,25.2-14.85,40T76.27,191.81q-32.85,0-47.92-20T13.27,108.56q0-84.82,59.85-84.82,24.75,0,38.14,13.39t15.86,33.41H91.35Q88.2,55.24,72.45,55.24ZM94,138.49a24.69,24.69,0,0,0-5.51-16.31q-5.52-6.63-16-6.64t-16.31,5.85q-5.85,5.85-5.85,16.31T57,154.35a23.16,23.16,0,0,0,16.42,6.19q9.79,0,15.19-6.19T94,138.49Z"
          transform="translate(-13.27 -23.74)"/>
</svg>