<svg xmlns="http://www.w3.org/2000/svg" viewBox="0 0 121.5 172.8">
    <path class="numb_8"
          d="M16,67.16q0-18.45,14.85-31.73T72.9,22.16q27.22,0,42,13.39T129.6,67.39q0,23.4-20.93,35.1,25,12.15,25,40.72,0,23.63-17.32,37.69T73,195q-26,0-43.43-14.17T12.15,143.21q0-28.57,25-40.72Q16,90.79,16,67.16ZM95,141q0-9.67-5.74-15.75t-16.42-6.08q-10.69,0-17.1,5.85t-6.41,15.86q0,10,6.19,16.31t17.1,6.3q10.91,0,16.65-6.41T95,141Zm-2.7-68.17q0-8.78-5.29-14T73.13,53.66q-8.55,0-14.06,5.17T53.55,72.9q0,8.89,5.63,14.17A19.29,19.29,0,0,0,72.9,92.36,19.08,19.08,0,0,0,86.63,87Q92.25,81.56,92.25,72.79Z"
          transform="translate(-12.15 -22.16)"/>
</svg>