<svg xmlns="http://www.w3.org/2000/svg" viewBox="0 0 116.1 167.63">
    <path class="numb_9"
          d="M74.7,160.31q11.47,0,16.65-9.11t5.17-30q-4.28,4.05-12.6,7a52.53,52.53,0,0,1-17.55,2.93q-23.62,0-37.8-12.83T14.4,79.65Q14.4,53.89,29.48,39T70.65,24.19q35.1,0,48.15,22.95a86.56,86.56,0,0,1,9,26,183.49,183.49,0,0,1,2.7,33.3A273.89,273.89,0,0,1,129,137.59a100.89,100.89,0,0,1-5.4,23.06,46.81,46.81,0,0,1-10.46,17.21q-13.5,14-40.84,14T32,177.41q-13.05-14.4-13.5-36H54.23Q56.92,160.31,74.7,160.31ZM51.3,77.62a23.61,23.61,0,0,0,5.29,15.52q5.28,6.41,15.52,6.41t15.75-5.74q5.51-5.74,5.51-16.2t-5.62-16.2q-5.63-5.74-15.52-5.74T56.81,62.1A23,23,0,0,0,51.3,77.62Z"
          transform="translate(-14.4 -24.19)"/>
</svg>